<?xml version="1.0" standalone="no"?>
<!DOCTYPE svg PUBLIC "-//W3C//DTD SVG 20010904//EN"
 "http://www.w3.org/TR/2001/REC-SVG-20010904/DTD/svg10.dtd">
<svg version="1.0" xmlns="http://www.w3.org/2000/svg"
 width="700.000000pt" height="700.000000pt" viewBox="0 0 700.000000 700.000000"
 preserveAspectRatio="xMidYMid meet">
<metadata>
Created by potrace 1.14, written by Peter Selinger 2001-2017
</metadata>
<g transform="translate(0.000000,700.000000) scale(0.100000,-0.100000)"
fill="#000000" stroke="none">
<path d="M1339 6956 c-2 -2 -29 -7 -59 -11 -30 -3 -73 -11 -95 -17 -22 -5 -50
-12 -62 -14 -81 -15 -334 -124 -407 -176 -164 -116 -245 -187 -342 -303 -165
-196 -288 -472 -322 -725 -9 -72 -9 -4326 0 -4405 57 -468 359 -896 783 -1107
126 -63 270 -113 380 -132 75 -13 113 -18 155 -22 63 -4 4193 -4 4255 1 379
29 733 210 989 505 173 199 299 487 333 761 10 84 10 4282 0 4377 -38 343
-229 697 -502 928 -204 172 -389 258 -715 330 -35 8 -4383 18 -4391 10z"/>
</g>
</svg>
