<?xml version="1.0" standalone="no"?>
<!DOCTYPE svg PUBLIC "-//W3C//DTD SVG 20010904//EN"
 "http://www.w3.org/TR/2001/REC-SVG-20010904/DTD/svg10.dtd">
<svg version="1.0" xmlns="http://www.w3.org/2000/svg"
 width="500.000000pt" height="500.000000pt" viewBox="0 0 500.000000 500.000000"
 preserveAspectRatio="xMidYMid meet">
<metadata>
Created by potrace 1.14, written by Peter Selinger 2001-2017
</metadata>
<g transform="translate(0.000000,500.000000) scale(0.100000,-0.100000)"
fill="#000000" stroke="none">
<path d="M614 4842 c-130 -44 -228 -114 -314 -224 -37 -48 -87 -171 -100 -243
-8 -52 -11 -535 -8 -1920 l3 -1850 22 -65 c62 -183 192 -315 381 -389 l67 -26
1810 0 c996 0 1825 3 1843 8 221 52 396 223 452 443 20 76 20 117 20 1918 -1
1471 -3 1853 -14 1901 -43 203 -185 363 -394 444 l-67 26 -1810 2 -1810 2 -81
-27z"/>
</g>
</svg>
