<svg xml:space="preserve" width="627.71" height="578.54" xmlns="http://www.w3.org/2000/svg">
  <defs>
    <clipPath clipPathUnits="userSpaceOnUse" id="a">
      <path d="M1468.56 19.94c40.73 10.62 83.37 30.2 119.69 55.91-.34-.4-.73-.84-1.19-1.3-2.43-2.5-6.39-5.83-11.96-9.53-11.14-7.4-28.22-16.74-50.19-26.33-10.99-4.72-23.19-9.74-36.6-13.75-6.3-1.9-12.9-3.56-19.75-5m49.54 11.93c2.81 1.22 5.55 2.44 8.23 3.65 21.95 10.07 38.92 19.95 49.87 27.94 5.47 3.98 9.34 7.65 11.61 10.45.99 1.2 1.61 2.23 1.99 3.05a317.8 317.8 0 0 1 21.96 17.18c3.72 2.28 8.03 5.28 12.5 9.06-29.96-34.8-69.56-57.11-106.16-71.33"/>
    </clipPath>
  </defs>
  <path d="m803.5 1796.02 101.76-543.96-680.4-127.28-101.76 543.96 680.4 127.28" style="fill:#f3f2f1;fill-opacity:1;fill-rule:nonzero;stroke:none" transform="matrix(.13333 0 0 -.13333 0 578.54)"/>
  <path d="M803.5 1796.02s-1.15-.31-3.3-.76l-9.55-1.92-36.98-7.21-139.24-26.69-490.88-93.05 1.91 2.79 102.02-543.85v-.06l-3.1 2.14 680.47 126.84-1.78-2.6-72.63 394.56-20.08 110.43-5.2 29.19c-1.16 6.63-1.66 10.19-1.66 10.19s.77-3.18 2.06-9.63l5.62-28.68 21.1-109.73c18.12-95.27 43.98-231.37 75.17-395.51l.41-2.18-2.19-.42-680.31-127.72-2.64-.49-.49 2.63-.01.06-101.47 543.95-.44 2.36 2.35.44 492.85 90.97 138.95 25.35 36.61 6.56 9.35 1.61c2.08.34 3.12.49 3.08.43" style="fill:#dadbd8;fill-opacity:1;fill-rule:nonzero;stroke:none" transform="matrix(.13333 0 0 -.13333 0 578.54)"/>
  <path d="m241.91 1163.41 632.6 118.34-88.94 475.48-632.6-118.34 88.94-475.48" style="fill:#e7e8e5;fill-opacity:1;fill-rule:nonzero;stroke:none" transform="matrix(.13333 0 0 -.13333 0 578.54)"/>
  <path d="m241.91 1163.41 165.66 336.88 171.46-159.3 74.34 116.22 221.14-175.46-632.6-118.34M595.77 1572.97a50.68 50.68 0 1 0-99.62-18.64 50.68 50.68 0 0 0 99.62 18.64" style="fill:#dadbd8;fill-opacity:1;fill-rule:nonzero;stroke:none" transform="matrix(.13333 0 0 -.13333 0 578.54)"/>
  <path d="m2899.61 1892.72-1424.8 257.95 348.4 1924.4 1424.8-257.96-348.4-1924.39" style="fill:#fafaf9;fill-opacity:1;fill-rule:nonzero;stroke:none" transform="matrix(.13333 0 0 -.13333 0 578.54)"/>
  <path d="M2899.61 1892.72s.48 3.18 1.53 9.26l4.75 27.01 18.67 104.76 70.82 394.78 250.25 1389.01 1.94-2.81-1424.68 257.67-.16.03 3.11 2.16-348.88-1924.31-1.76 2.55 1035.28-188.59 287.57-52.64 75.56-13.93c17.1-3.18 26-4.95 26-4.95s-8.65 1.41-25.63 4.4l-75.24 13.37-287.29 51.44-1037.03 186.59-2.16.39.39 2.16 347.92 1924.47.48 2.64 2.63-.48.16-.03 1424.6-258.17 2.38-.44-.43-2.38-252.9-1390.13-71.99-394.02-19.16-104.18-4.97-26.7a452.42 452.42 0 0 0-1.76-8.93" style="fill:#dadbd8;fill-opacity:1;fill-rule:nonzero;stroke:none" transform="matrix(.13333 0 0 -.13333 0 578.54)"/>
  <path d="m2452.96 3235.07-604.93 109.52 95.43 527.08 604.92-109.52-95.42-527.08M3018.51 3606.02l-387.33 70.12 12.45 68.77 387.33-70.12-12.45-68.77M2929.17 2967.02l-1105.41 200.13 12.45 68.76 1105.41-200.13-12.45-68.76M2907.26 2845.97 1801.85 3046.1l12.45 68.76 1105.41-200.12-12.45-68.77M2885.34 2724.92l-1105.41 200.13 12.45 68.77 1105.41-200.13-12.45-68.77M2863.43 2603.88l-1105.41 200.13 12.45 68.76 1105.41-200.13-12.45-68.76M2841.51 2482.83 1736.1 2682.96l12.45 68.76 1105.41-200.12-12.45-68.77M2766.39 2067.88l-1105.41 200.13 12.45 68.77 1105.41-200.13-12.45-68.77M2320.99 2452.06l-606.8 109.85 12.45 68.77 606.8-109.86-12.45-68.76M2998.36 3494.73l-387.33 70.13 12.45 68.76 387.33-70.12-12.45-68.77M2978.21 3383.44l-387.33 70.13 12.45 68.76 387.33-70.12-12.45-68.77M2809.56 3299.04l-238.83 43.23 12.45 68.77 238.83-43.24-12.45-68.76M3534.42 4102.64l-56.64 117.74-48.57-121.97zm9.48-18.64-122.9-4.94-13.27-34.45c-4.33-11.48-6.36-20.9-6.06-28.26.39-9.75 4.61-16.78 12.67-21.08 4.73-2.56 16.18-4.14 34.37-4.79l.38-9.49-115.72-4.65-.38 9.5c12.41 2.38 22.47 7.96 30.17 16.75 7.7 8.8 16.91 26.68 27.66 53.67l113.29 282.62 4.88.2 136.93-280.29c13.05-26.54 23.57-43.17 31.55-49.87 6.03-5.07 14.37-7.82 25.01-8.25l.38-9.49-168.32-6.76-.38 9.49 6.93.28c13.5.54 22.92 2.81 28.25 6.79 3.64 2.88 5.37 6.9 5.17 12.03a31.87 31.87 0 0 1-1.92 9.43c-.41 1.53-3.23 7.84-8.48 18.94L3543.9 4084" style="fill:#dadbd8;fill-opacity:1;fill-rule:nonzero;stroke:none" transform="matrix(.13333 0 0 -.13333 0 578.54)"/>
  <path d="m3776.56 3357.23 150.06-449.35-562.06-187.71-150.07 449.35 562.07 187.71" style="fill:#f3f2f1;fill-opacity:1;fill-rule:nonzero;stroke:none" transform="matrix(.13333 0 0 -.13333 0 578.54)"/>
  <path d="m3374.49 2754.93 522.58 174.52-131.18 392.78-522.58-174.52 131.18-392.78" style="fill:#e7e8e5;fill-opacity:1;fill-rule:nonzero;stroke:none" transform="matrix(.13333 0 0 -.13333 0 578.54)"/>
  <path d="m3374.49 2754.93 100.98 305.1 164.08-114.99 49.42 107.27 208.1-122.86-522.58-174.52M3626.54 3143.73a43.37 43.37 0 1 0-82.29-27.49 43.38 43.38 0 0 0 82.29 27.49" style="fill:#dadbd8;fill-opacity:1;fill-rule:nonzero;stroke:none" transform="matrix(.13333 0 0 -.13333 0 578.54)"/>
  <path d="m4671.08 3707.88-137.58-702.51-878.73 172.09 137.59 702.52 878.72-172.1" style="fill:#f3f2f1;fill-opacity:1;fill-rule:nonzero;stroke:none" transform="matrix(.13333 0 0 -.13333 0 578.54)"/>
  <path d="M4671.08 3707.88s-1.5.2-4.29.7l-12.36 2.28-47.8 9.07-180.03 34.61-634.7 123.09 2.81 1.89-137.3-702.5-.01-.07-2.11 3.14 878.63-172.54-2.61-1.76 100.92 509.28 28.45 142.29 7.61 37.53a587.67 587.67 0 0 0 2.79 12.99s-.66-4.22-2.22-12.61l-7.03-37.22-27.23-142.03-98.92-511.08-.42-2.18-2.19.42-878.81 171.66-2.63.51.52 2.63.01.07 137.85 702.39.46 2.35 2.35-.46 635.76-125.74 179.26-35.75 47.22-9.54 12.05-2.5c2.69-.57 3.97-.92 3.97-.92" style="fill:#dadbd8;fill-opacity:1;fill-rule:nonzero;stroke:none" transform="matrix(.13333 0 0 -.13333 0 578.54)"/>
  <path d="m3693.73 3215.75 816.99-160 120.26 614.07-816.99 160-120.26-614.07" style="fill:#e7e8e5;fill-opacity:1;fill-rule:nonzero;stroke:none" transform="matrix(.13333 0 0 -.13333 0 578.54)"/>
  <path d="m3693.73 3215.75 360.11 325.82 129.99-273.43 144.89 104.18 182-316.57-816.99 160M4314.79 3539.01a65.55 65.55 0 1 0-128.66 25.2 65.55 65.55 0 0 0 128.66-25.2" style="fill:#dadbd8;fill-opacity:1;fill-rule:nonzero;stroke:none" transform="matrix(.13333 0 0 -.13333 0 578.54)"/>
  <path d="m411.34 4269.53 45.43-529.84 205.49-55.7 398.53 46.36-56.12 596.41-593.33-57.23" style="fill:#f3f2f1;fill-opacity:1;fill-rule:nonzero;stroke:none" transform="matrix(.13333 0 0 -.13333 0 578.54)"/>
  <path d="m519.4 3787.36-62.63-47.67s37.89-33.96 81.73-45.39 83.9-14.95 123.76-10.31c0 0-94.95 16.47-142.85 103.37" style="fill:#e7e8e5;fill-opacity:1;fill-rule:nonzero;stroke:none" transform="matrix(.13333 0 0 -.13333 0 578.54)"/>
  <path d="M956.73 4131.95c.1-.98-100.81-11.57-225.36-23.65-124.58-12.07-225.62-21.07-225.71-20.08-.1.98 100.78 11.57 225.37 23.65 124.54 12.07 225.6 21.07 225.7 20.08M962.63 4050.41c.09-.98-100.82-11.57-225.36-23.65-124.58-12.08-225.62-21.07-225.71-20.08-.1.98 100.78 11.57 225.37 23.64 124.54 12.08 225.6 21.07 225.7 20.09M972.14 3978.54c.1-.99-100.81-11.57-225.35-23.65-124.58-12.07-225.62-21.07-225.72-20.09-.1.99 100.79 11.58 225.37 23.65 124.54 12.08 225.6 21.07 225.7 20.09M978.4 3909.06c.1-.98-100.81-11.57-225.35-23.65-124.59-12.07-225.63-21.07-225.73-20.08-.09.98 100.8 11.56 225.38 23.65 124.54 12.07 225.6 21.06 225.7 20.08" style="fill:#dadbd8;fill-opacity:1;fill-rule:nonzero;stroke:none" transform="matrix(.13333 0 0 -.13333 0 578.54)"/>
  <path d="M4707.82 2.67C4707.82 1.2 3653.86 0 2354.03 0 1053.74 0 0 1.2 0 2.67c0 1.48 1053.74 2.68 2354.03 2.68 1299.83 0 2353.79-1.2 2353.79-2.68" style="fill:#17282f;fill-opacity:1;fill-rule:nonzero;stroke:none" transform="matrix(.13333 0 0 -.13333 0 578.54)"/>
  <path d="M283.29 3348.13 704.93 933.87l1777.73 279.2 82.4 199.03-480.92 2232.36L417.75 3545 283.3 3348.13" style="fill:#dadbd8;fill-opacity:1;fill-rule:nonzero;stroke:none" transform="matrix(.13333 0 0 -.13333 0 578.54)"/>
  <path d="m283.29 3348.13 126.3 193.58.2-1.14 1-5.77-127.5-186.67" style="fill:#a7a9a8;fill-opacity:1;fill-rule:nonzero;stroke:none" transform="matrix(.13333 0 0 -.13333 0 578.54)"/>
  <path d="m704.93 933.87-47.07 269.48-.82 4.71-5.58 31.96-29.39 168.25-25.91 148.37-5.35 30.62-28.34 162.33-.46 2.61L283.3 3348.13l127.5 186.67 418.03-2407.75.41-2.38.19.03-31.65-48.51-8.45-1.36-52.02 294.85-248.18 1401.54-75.82 424.62-20.87 115.39-5.57 29.99a303.43 303.43 0 0 1-2.08 10.19s.44-3.5 1.54-10.28l5.04-30.08 19.9-115.57 74.13-424.91 246.64-1401.83 52.53-297.4.45-2.57 2.58.42 6.28 1.02-50.02-76.67-64.44 354.39-252.27 1381.98-77.05 418.68-21.22 113.78-5.65 29.57c-1.3 6.65-2.1 10.04-2.1 10.04s.43-3.45 1.56-10.14l5.13-29.66 20.22-113.96 75.38-418.99 250.73-1382.26 65.04-357.1.46-2.55.17.03-34.88-53.48" style="fill:#8f9192;fill-opacity:1;fill-rule:nonzero;stroke:none" transform="matrix(.13333 0 0 -.13333 0 578.54)"/>
  <path d="m409.59 3541.71 421.63-2414.24 1733.84 284.63-438 2374.53-1717.47-244.92" style="fill:#fafaf9;fill-opacity:1;fill-rule:nonzero;stroke:none" transform="matrix(.13333 0 0 -.13333 0 578.54)"/>
  <path d="m409.59 3541.71 1717.16 247.06 2.06.3.38-2.05 438.51-2374.44.49-2.68-2.69-.44-28.62-4.7-1705.26-279.7-2.39-.39-.41 2.38-419.23 2414.66c3.73-21.28 173.6-988.3 424.03-2413.82l-2.8 1.98 1705.19 280.17 28.62 4.7-2.2-3.13-437.51 2374.62 2.44-1.75a54683764.93 54683764.93 0 0 1-1717.77-242.77" style="fill:#17282f;fill-opacity:1;fill-rule:nonzero;stroke:none" transform="matrix(.13333 0 0 -.13333 0 578.54)"/>
  <path d="M1798.72 2483.57c25.47-161.22-84.58-312.57-245.8-338.04-161.23-25.47-312.57 84.58-338.04 245.81-25.47 161.22 84.58 312.57 245.8 338.04 161.23 25.47 312.58-84.58 338.04-245.81" style="fill:#f2575d;fill-opacity:1;fill-rule:nonzero;stroke:none" transform="matrix(.13333 0 0 -.13333 0 578.54)"/>
  <path d="m1371.33 2359.86-13.43 85.02 294.75 46.57 12.58-79.67s-17.97-68.75-137.21-87.59c-119.24-18.83-156.69 35.67-156.69 35.67" style="fill:#fff;fill-opacity:1;fill-rule:nonzero;stroke:none" transform="matrix(.13333 0 0 -.13333 0 578.54)"/>
  <path d="m1311.43 2444.39 210.24-37.33 182.45 102.61-210.65 33.21-182.04-98.49" style="fill:#fff;fill-opacity:1;fill-rule:nonzero;stroke:none" transform="matrix(.13333 0 0 -.13333 0 578.54)"/>
  <path d="M1910.72 3201.04 865.7 3035.95a23.47 23.47 0 0 0-26.85 19.52l-3.54 22.41a23.48 23.48 0 0 0 19.52 26.85l1045.02 165.08a23.46 23.46 0 0 0 26.84-19.52l3.54-22.41a23.46 23.46 0 0 0-19.51-26.84M1745.31 3027.17l-662.71-104.69a23.47 23.47 0 0 0-26.84 19.52l-3.54 22.41a23.47 23.47 0 0 0 19.52 26.85l662.71 104.69a23.47 23.47 0 0 0 26.84-19.52l3.54-22.41a23.49 23.49 0 0 0-19.52-26.85M1983.96 1545.89l-662.71-104.69a23.47 23.47 0 0 0-26.84 19.52l-3.54 22.41a23.47 23.47 0 0 0 19.52 26.85l662.71 104.69a23.47 23.47 0 0 0 26.84-19.52l3.54-22.41a23.47 23.47 0 0 0-19.52-26.85" style="fill:#dadbd8;fill-opacity:1;fill-rule:nonzero;stroke:none" transform="matrix(.13333 0 0 -.13333 0 578.54)"/>
  <path d="M2475.84 1345.02s-2.83-.63-8.41-1.61l-24.82-4.27-95.9-15.98-356.07-58.42-1203.05-195.55-2.58-.42-.45 2.57-52.53 297.4L485.4 2770.57l-74.14 424.91-19.89 115.57-5.04 30.08c-1.1 6.78-1.53 10.28-1.53 10.28s.79-3.44 2.07-10.19l5.57-29.99 20.88-115.39 75.8-424.62c63.54-358.74 151.27-854.2 248.2-1401.54l52.46-297.42-3.03 2.15 1203.34 193.79 356.32 56.84 96.05 15.07 24.9 3.79c5.61.82 8.49 1.12 8.49 1.12" style="fill:#17282f;fill-opacity:1;fill-rule:nonzero;stroke:none" transform="matrix(.13333 0 0 -.13333 0 578.54)"/>
  <path d="M2343.63 1254.19s-2.66-.6-7.93-1.55l-23.42-4.1-90.55-15.37-336.79-56.27L742.19 987.74l-2.55-.42-.46 2.55-65.03 357.1L423.4 2729.23c-31.8 176.83-57.56 319.94-75.38 418.99l-20.22 113.96-5.13 29.66a293.8 293.8 0 0 0-1.57 10.14s.8-3.39 2.1-10.04c1.3-6.79 3.2-16.66 5.66-29.57l21.22-113.78 77.05-418.68L679.4 1347.93l64.94-357.12-3.01 2.12 1143.04 187.36 337.05 54.72 90.7 14.48 23.49 3.63c5.29.79 8.01 1.07 8.01 1.07M451.46 2519.36l-39-55.28 94.84-568.85 56.51-19.17-112.34 643.3" style="fill:#17282f;fill-opacity:1;fill-rule:nonzero;stroke:none" transform="matrix(.13333 0 0 -.13333 0 578.54)"/>
  <path d="m834.5 1923.33-270.69-47.27-112.34 643.3 270.68 47.27 112.35-643.3" style="fill:#17282f;fill-opacity:1;fill-rule:nonzero;stroke:none" transform="matrix(.13333 0 0 -.13333 0 578.54)"/>
  <path d="m851.2 1903.79-17.6-3.08a18.5 18.5 0 0 0-21.4 15.04L698.4 2567.29a18.48 18.48 0 0 0 15.04 21.39l17.6 3.08a18.48 18.48 0 0 0 21.4-15.03l113.79-651.54a18.5 18.5 0 0 0-15.04-21.4" style="fill:#17282f;fill-opacity:1;fill-rule:nonzero;stroke:none" transform="matrix(.13333 0 0 -.13333 0 578.54)"/>
  <path d="m664 2355.59-4.95 8.7-175.66-99.73 4.93-8.7 7.3 6.84a124.12 124.12 0 0 1-90.46 39.37c-5.98 0-12.02-.44-18.08-1.33-61.06-9.08-105.96-62.74-106.04-123.07 0-5.37.36-10.78 1.1-16.22 8.53-62.77 62.06-107.5 122.8-107.5 7.08 0 14.26.61 21.47 1.87 43.13 7.54 77.1 36.59 92.91 74.11l-9.22 3.89-1.57-9.88 198.3-31.6a23.17 23.17 0 0 1 26.47 26.86l-40 228.93a23.07 23.07 0 0 1-8.17 13.98 23.32 23.32 0 0 1-14.66 5.21c-3.84.01-7.82-.98-11.42-3.03l4.94-8.7 4.94-8.69 1.54.42 2.05-.74 1.09-1.89 39.98-228.93.05-.58-.93-2.2-2.2-.93-.54.04-206.03 32.84-3.05-7.23c-13.32-31.54-41.73-55.86-77.92-62.18a105.71 105.71 0 0 0-18.04-1.57c-50.87.01-95.85 37.5-102.98 90.19a101 101 0 0 0-.91 13.53c-.08 50.3 38.09 95.91 88.95 103.28 5.1.75 10.16 1.12 15.17 1.12 29.25 0 56.56-12.44 75.87-33.04l5.38-5.75 183.1 103.95-.58-.33-4.94 8.69M810.74 1924.11c-.18 0-.67 2.25-1.42 6.42l-3.47 18.43-12.42 67.92-40.03 224.28-38.9 224.52-11.23 68.14-2.79 18.57c-.57 4.26-.8 6.51-.6 6.54.17.03.74-2.15 1.67-6.35l3.77-18.4 12.9-67.84c10.66-57.33 25-136.6 40.45-224.25 15.43-87.62 29.04-167.02 38.49-224.56a4156.9 4156.9 0 0 0 10.75-68.23c1.13-8.09 2.06-14.32 2.48-18.65.41-4.33.53-6.55.35-6.54" style="fill:#33535f;fill-opacity:1;fill-rule:nonzero;stroke:none" transform="matrix(.13333 0 0 -.13333 0 578.54)"/>
  <path d="M558.46 1873.86c-.19.01-.68 2.25-1.43 6.43l-3.46 18.42-12.43 67.93-40.02 224.27-38.9 224.52-11.23 68.14-2.79 18.57c-.58 4.26-.8 6.51-.61 6.54.18.04.75-2.15 1.68-6.35l3.77-18.39 12.9-67.85c10.66-57.33 25-136.6 40.45-224.25 15.43-87.62 29.04-167.01 38.48-224.56 4.73-28.77 8.4-52.08 10.76-68.23 1.13-8.09 2.06-14.32 2.48-18.65.41-4.33.53-6.55.35-6.54" style="fill:#33535f;fill-opacity:1;fill-rule:nonzero;stroke:none" transform="matrix(.13333 0 0 -.13333 0 578.54)"/>
  <path d="M1704.12 2509.67c.18-.32-4.74-3.49-13.8-8.95l-38.65-22.71a12238.26 12238.26 0 0 0-128.69-73.28l-.84-.47-.94.16-2.06.37a12433.8 12433.8 0 0 0-147.07 26.91l-44.47 8.76c-10.47 2.19-16.24 3.57-16.17 3.93.06.36 5.95-.32 16.54-1.88l44.76-7.08c37.75-6.22 89.85-15.16 147.35-25.37l2.05-.37-1.77-.3a12244.4 12244.4 0 0 0 129.47 71.9l39.47 21.23c9.38 4.91 14.64 7.47 14.82 7.15" style="fill:#17282f;fill-opacity:1;fill-rule:nonzero;stroke:none" transform="matrix(.13333 0 0 -.13333 0 578.54)"/>
  <text transform="matrix(1.317 -.20805 .20805 1.317 143.55 146.11)" style="font-variant:normal;font-weight:800;font-size:14.6842px;font-family:Montserrat;-inkscape-font-specification:Montserrat-ExtraBold;writing-mode:lr-tb;fill:#17282f;fill-opacity:1;fill-rule:nonzero;stroke:none"><tspan x="0 9.3244696 21.159937 31.027723 40.528404 45.506348" y="0">THESIS</tspan></text>
  <path d="M2708.36 896.27h-852.61c-97.46 0-176.47 79.01-176.47 176.47v94.48c0 97.46 79.01 176.47 176.47 176.47h852.61V896.27" style="fill:#f2575d;fill-opacity:1;fill-rule:nonzero;stroke:none" transform="matrix(.13333 0 0 -.13333 0 578.54)"/>
  <path d="M4283.75 1269.41H2485.46v74.28h1798.29a29.3 29.3 0 0 0 29.29-29.3v-15.68a29.3 29.3 0 0 0-29.29-29.3M4283.75 896.27H2485.46v74.28h1798.29a29.3 29.3 0 0 0 29.29-29.3v-15.68a29.3 29.3 0 0 0-29.29-29.3" style="fill:#f2575d;fill-opacity:1;fill-rule:nonzero;stroke:none" transform="matrix(.13333 0 0 -.13333 0 578.54)"/>
  <path d="M4258.53 970.55H2689.41c-82.53 0-149.44 66.9-149.44 149.43s66.91 149.43 149.44 149.43h1569.12c-42.08-99.62-42.08-199.24 0-298.86" style="fill:#f3f2f1;fill-opacity:1;fill-rule:nonzero;stroke:none" transform="matrix(.13333 0 0 -.13333 0 578.54)"/>
  <path d="M1967.44 896.27h-108.19c-99.39 0-179.97 80.58-179.97 179.97v88.85c0 98.64 79.96 178.6 178.59 178.6h627.59v-65.73c-65.89-91.62-60.86-222.05 0-318.25v-49.7h-459.77c-20.94 0-40.73-4.95-58.25-13.74M2485.46 1277.96v65.73h35.12v-17.74h10.82a238.6 238.6 0 0 1-45.94-47.99M2525.15 910.01h-39.69v49.7a286.7 286.7 0 0 1 39.69-49.7" style="fill:#cc4341;fill-opacity:1;fill-rule:nonzero;stroke:none" transform="matrix(.13333 0 0 -.13333 0 578.54)"/>
  <path d="M4067.89 1106.11c0-1.48-322.07-2.68-719.28-2.68-397.34 0-719.34 1.2-719.34 2.68 0 1.47 322 2.67 719.34 2.67 397.21 0 719.28-1.2 719.28-2.67M4215.93 1039.68c0-1.48-322.07-2.68-719.28-2.68-397.34 0-719.34 1.2-719.34 2.68 0 1.48 322 2.68 719.34 2.68 397.21 0 719.28-1.2 719.28-2.68M4172.28 1200.31c0-1.48-322.08-2.68-719.28-2.68-397.34 0-719.35 1.2-719.35 2.68 0 1.48 322.01 2.68 719.35 2.68 397.2 0 719.28-1.2 719.28-2.68M2461.19 927.63c0-1.48-150.75-2.68-336.68-2.68-185.99 0-336.72 1.2-336.72 2.68 0 1.47 150.73 2.67 336.72 2.67 185.93 0 336.68-1.2 336.68-2.67M2461.19 1306.55c0-1.48-150.75-2.68-336.68-2.68-185.99 0-336.72 1.2-336.72 2.68 0 1.48 150.73 2.67 336.72 2.67 185.93 0 336.68-1.19 336.68-2.67" style="fill:#17282f;fill-opacity:1;fill-rule:nonzero;stroke:none" transform="matrix(.13333 0 0 -.13333 0 578.54)"/>
  <path d="M2628.16 6.01H1479.34c-97.46 0-176.47 79.01-176.47 176.47v223.25c0 97.46 79.01 176.47 176.47 176.47h1148.82V6" style="fill:#f2575d;fill-opacity:1;fill-rule:nonzero;stroke:none" transform="matrix(.13333 0 0 -.13333 0 578.54)"/>
  <path d="M4665.45 486.55H2341.11v95.65h2324.34a29.3 29.3 0 0 0 29.3-29.29v-37.06a29.3 29.3 0 0 0-29.3-29.3M4665.45 6.01H2341.11v95.65h2324.34a29.3 29.3 0 0 0 29.3-29.3V35.3a29.3 29.3 0 0 0-29.3-29.29" style="fill:#f2575d;fill-opacity:1;fill-rule:nonzero;stroke:none" transform="matrix(.13333 0 0 -.13333 0 578.54)"/>
  <path d="M4624.54 101.66H2603.75c-106.28 0-192.44 86.16-192.44 192.45 0 106.28 86.16 192.44 192.44 192.44h2020.79c-54.19-128.3-54.19-256.59 0-384.89" style="fill:#f3f2f1;fill-opacity:1;fill-rule:nonzero;stroke:none" transform="matrix(.13333 0 0 -.13333 0 578.54)"/>
  <path d="M2411.31 6.01h-934.25c-7.95 0-15.77.53-23.43 1.56h2.1a178.35 178.35 0 0 1 23.61-1.56h931.97" style="fill:#a7a9a8;fill-opacity:1;fill-rule:nonzero;stroke:none" transform="matrix(.13333 0 0 -.13333 0 578.54)"/>
  <path d="M2341.11 6.01h-861.77c-8 0-15.89.53-23.61 1.56l246.07.53s.65.32 1.79 1.02l47.57-.74h.02c.96 0 53.46.16 85.33 35.34h39.74c239.45 0 433.6 1.19 433.6 2.67 0 1.47-194.15 2.67-433.6 2.67h-35.28c7.82 10.16 13.97 22.86 17.14 38.74 16.15 80.94 33.59 321.27 33.59 321.27s-59.08 51.37-103 73.45l-63.28-9.19a182.4 182.4 0 0 1-5.21 4.5c-23.06 18.31-51.1 30.7-80.8 38.57-14.87 4.1-30.46 5.88-46.2 6.65h-.03c-15.74 0-31.73-.9-47.44-4.35-31.64-6.05-61.89-19.26-91.15-34.27-20.7-10.54-40.5-22.04-61.21-30.83-20.81-9.36-40.61-19.67-60.25-29.72-6.75-3.48-13.45-6.97-20.12-10.44l-9.85-1.43c5.27 94.88 83.87 170.19 180.07 170.19h519.06a130.82 130.82 0 0 1 23.4-2.1h315.42v-82.54c-84.87-117.99-78.38-285.97 0-409.86V6M2341.11 497.56v82.55h88.71c-36.44-22.68-65.88-50.8-88.71-82.55M2411.31 6.01h-70.2V87.7A364.29 364.29 0 0 1 2411.31 6" style="fill:#cc4341;fill-opacity:1;fill-rule:nonzero;stroke:none" transform="matrix(.13333 0 0 -.13333 0 578.54)"/>
  <path d="M4379.03 276.24c0-1.48-414.78-2.68-926.32-2.68-511.71 0-926.4 1.2-926.4 2.68 0 1.48 414.69 2.67 926.4 2.67 511.54 0 926.32-1.2 926.32-2.67M4569.67 190.7c0-1.49-414.77-2.68-926.31-2.68-511.71 0-926.4 1.2-926.4 2.67 0 1.48 414.69 2.68 926.4 2.68 511.54 0 926.31-1.2 926.31-2.68M4513.46 355.62c0-1.47-414.78-2.67-926.32-2.67-511.71 0-926.4 1.2-926.4 2.67 0 1.48 414.69 2.68 926.4 2.68 511.54 0 926.32-1.2 926.32-2.68M2309.85 46.4c0-1.49-194.15-2.69-433.6-2.69-239.53 0-433.64 1.2-433.64 2.68 0 1.47 194.11 2.67 433.64 2.67 239.45 0 433.6-1.2 433.6-2.67M2309.85 534.38c0-1.48-194.15-2.68-433.6-2.68-239.53 0-433.64 1.2-433.64 2.68 0 1.47 194.11 2.67 433.64 2.67 239.45 0 433.6-1.2 433.6-2.67" style="fill:#17282f;fill-opacity:1;fill-rule:nonzero;stroke:none" transform="matrix(.13333 0 0 -.13333 0 578.54)"/>
  <path d="M2972.33 580.1h-946.64c-71.86 0-130.12 58.26-130.12 130.13v69.66c0 71.86 58.26 130.12 130.12 130.12h946.64v-329.9" style="fill:#33535f;fill-opacity:1;fill-rule:nonzero;stroke:none" transform="matrix(.13333 0 0 -.13333 0 578.54)"/>
  <path d="M4620.71 832.3H2739.1v77.71h1881.61a30.66 30.66 0 0 0 30.66-30.65v-16.41a30.65 30.65 0 0 0-30.66-30.65M4620.71 580.1H2739.1v77.72h1881.61a30.65 30.65 0 0 0 30.66-30.65v-16.4a30.66 30.66 0 0 0-30.66-30.66" style="fill:#33535f;fill-opacity:1;fill-rule:nonzero;stroke:none" transform="matrix(.13333 0 0 -.13333 0 578.54)"/>
  <path d="M4594.33 657.82H2883.38a87.24 87.24 0 0 0 0 174.48h1710.95c-44.03-58.16-44.03-116.32 0-174.48" style="fill:#f3f2f1;fill-opacity:1;fill-rule:nonzero;stroke:none" transform="matrix(.13333 0 0 -.13333 0 578.54)"/>
  <path d="M2739.1 580.1h-712.54c-72.34 0-130.99 58.65-130.99 131v65.27c0 73.81 59.83 133.64 133.64 133.64h709.89v-48.46c-68.95-67.56-63.68-163.74 0-234.67V580.1M2739.1 861.55v48.46h74.86c-30.89-13.19-55.73-29.72-74.86-48.46M2796.14 580.1h-57.04v46.78c15.59-17.37 34.68-33.22 57.04-46.77" style="fill:#20353d;fill-opacity:1;fill-rule:nonzero;stroke:none" transform="matrix(.13333 0 0 -.13333 0 578.54)"/>
  <path d="M4394.85 758.8c0-1.48-336.99-2.68-752.6-2.68-415.75 0-752.68 1.2-752.68 2.68 0 1.47 336.93 2.67 752.68 2.67 415.61 0 752.6-1.2 752.6-2.67M4549.75 711.84c0-1.48-337-2.68-752.6-2.68-415.76 0-752.68 1.2-752.68 2.68 0 1.47 336.92 2.67 752.68 2.67 415.6 0 752.6-1.2 752.6-2.67M2713.71 612.91c0-1.48-157.74-2.67-352.29-2.67-194.61 0-352.32 1.19-352.32 2.67s157.71 2.68 352.32 2.68c194.55 0 352.29-1.2 352.29-2.68M2713.71 871.15c0-1.47-157.74-2.67-352.29-2.67-194.61 0-352.32 1.2-352.32 2.67 0 1.48 157.71 2.68 352.32 2.68 194.55 0 352.29-1.2 352.29-2.68M4628.91 910.01c0-1.48-578.66-2.67-1292.3-2.67-713.89 0-1292.43 1.2-1292.43 2.67 0 1.48 578.54 2.68 1292.43 2.68 713.64 0 1292.3-1.2 1292.3-2.68" style="fill:#17282f;fill-opacity:1;fill-rule:nonzero;stroke:none" transform="matrix(.13333 0 0 -.13333 0 578.54)"/>
  <path d="M3591.16 1205.21v-179.19l62.12 39.82 69.27-39.82v179.19h-131.39M4222.28 2983.89l-312.65-260.42-475.65-939.66 296.55-134.01 462.54 921.57 29.21 412.52" style="fill:#f2575d;fill-opacity:1;fill-rule:nonzero;stroke:none" transform="matrix(.13333 0 0 -.13333 0 578.54)"/>
  <path d="M4107.59 2570.58c-8.91 0-17.79 1.6-26.08 4.94-27.88 11.23-46.95 41.32-45.22 71.32a84.51 84.51 0 0 0-39.78-9.77 85.63 85.63 0 0 0-42.09 10.89 83.61 83.61 0 0 0-23.2 19.83c-13 16.09-20.25 36.91-19.24 57.61l310.3 258.49-29.21-412.52a31.67 31.67 0 0 0-4.21-.28c-7.36 0-14.14 2.58-18.83 7.1a24.75 24.75 0 0 0-5.88 10.11c-.34 1.37-.56 2.8-.63 4.29.02.96.07 1.95.03 2.96-13.74-16.03-34.92-24.97-55.96-24.97" style="fill:#fabdc3;fill-opacity:1;fill-rule:nonzero;stroke:none" transform="matrix(.13333 0 0 -.13333 0 578.54)"/>
  <path d="M4096.55 2879.16s4.73-77.79 113.76-64.28l11.97 169.01-125.73-104.73" style="fill:#f2575d;fill-opacity:1;fill-rule:nonzero;stroke:none" transform="matrix(.13333 0 0 -.13333 0 578.54)"/>
  <path d="M3703.85 1977.57h-171.79l377.57 745.9 2.35 1.93s-1.78-17.39 6.47-36.57a89.87 89.87 0 0 1 12.77-21.04 82.3 82.3 0 0 1 23.2-19.83 83.3 83.3 0 0 1 51.72-10.62c17.7 2.15 30.15 9.5 30.15 9.5l-332.44-669.27" style="fill:#cc4341;fill-opacity:1;fill-rule:nonzero;stroke:none" transform="matrix(.13333 0 0 -.13333 0 578.54)"/>
  <path d="M3954.42 2647.96a82.3 82.3 0 0 0-23.2 19.83 83.61 83.61 0 0 1 23.2-19.83m-42.44 77.44" style="fill:#b28384;fill-opacity:1;fill-rule:nonzero;stroke:none" transform="matrix(.13333 0 0 -.13333 0 578.54)"/>
  <path d="M3895.04 1977.57h-44.98l313.49 617.98c-.07-1.01-.08-2-.03-2.96a10.92 10.92 0 0 1 .63-4.29 21.04 21.04 0 0 1 5.88-10.11c5.98-6.07 14.02-7.11 18.86-7.11 2.53 0 4.18.29 4.18.29l-298.03-593.8" style="fill:#cc4341;fill-opacity:1;fill-rule:nonzero;stroke:none" transform="matrix(.13333 0 0 -.13333 0 578.54)"/>
  <path d="M4170.03 2578.19a21.04 21.04 0 0 0-5.88 10.11 24.75 24.75 0 0 1 5.88-10.11m-6.51 14.4c-.05.96-.04 1.95.03 2.96.04-1.01-.01-2-.03-2.96" style="fill:#b28384;fill-opacity:1;fill-rule:nonzero;stroke:none" transform="matrix(.13333 0 0 -.13333 0 578.54)"/>
  <path d="M4034.02 2736.45c.2-.08-1.55-1.09-1.63-4.15a8.82 8.82 0 0 1 8.03-8.64c5.58-.7 12.78 1.51 19.72 5.55 3.41 2.15 6.68 5.22 8.43 9.41 1.78 4.09 2.01 9.4-.87 13.45-2.79 4.12-8.1 6.19-13.54 6.85-5.51.7-11.38.01-17.36-.99-11.86-2.13-24.54-6.35-35.72-13.93-5.39-3.85-10.35-9.38-10.99-16.25-.7-6.79 3.13-13.73 8.75-18.08 11.86-8.63 28.77-8.46 43.77-5.45 30.71 6.69 55.23 31 61.15 57.35 1.24 6.58-.43 13.28-4.67 17.96-4.11 4.79-9.77 7.82-15.33 10.03a112.55 112.55 0 0 1-32.98 6.61 123.53 123.53 0 0 1-48.19-7.2 141.7 141.7 0 0 1-12.28-5.25c-2.73-1.38-4.23-2-4.23-2s5.34 3.71 16.2 8.07a120.98 120.98 0 0 0 48.57 7.98 113 113 0 0 0 33.59-6.46c5.74-2.25 11.67-5.33 16.16-10.48 4.64-5.02 6.55-12.61 5.22-19.59-6.1-27.54-31.15-52.26-62.72-59.23a81.57 81.57 0 0 0-23.72-1.64c-7.77.69-15.67 2.74-21.9 7.55-6.09 4.75-10.32 12.29-9.54 20.04.78 7.82 6.31 13.75 11.92 17.73 11.68 7.83 24.48 11.96 36.63 14.09 6.06.97 12.09 1.65 17.89.87 5.68-.74 11.49-2.96 14.64-7.68 3.22-4.64 2.84-10.56.87-14.91-1.95-4.52-5.5-7.75-9.08-9.92-7.3-4.09-14.53-6.2-20.54-5.35-6.32.88-8.69 6.58-8.34 9.52.26 3.28 2.21 4.18 2.09 4.14" style="fill:#fff;fill-opacity:1;fill-rule:nonzero;stroke:none" transform="matrix(.13333 0 0 -.13333 0 578.54)"/>
  <path d="M4201.72 2742.11c-.03-.27-4.58.73-12.85.4-8.24-.26-20.17-2.67-33.55-9-13.48-6.17-27.83-16.54-43.18-28.8-15.44-11.95-32.56-26.11-54.39-33.73a110.45 110.45 0 0 0-63.64-2.47c-19.32 4.96-34.74 15.07-45.67 25.19a107.17 107.17 0 0 0-21.55 27.92c-3.9 7.39-5.2 11.84-5.2 11.84.07.03.6-.99 1.54-2.97.91-1.98 2.37-4.86 4.43-8.45a112.1 112.1 0 0 1 21.86-27.16c10.92-9.83 26.15-19.6 45.11-24.35a109.36 109.36 0 0 1 62.38 2.58c21.33 7.43 38.34 21.36 53.85 33.24 15.41 12.17 30.06 22.55 43.79 28.61 13.64 6.23 25.84 8.44 34.19 8.43 8.39.06 12.88-1.28 12.88-1.28M4199.88 2647.91c-.22-.63-6.02 8.71-21.45 10.27-14.98 1.49-35.96-2.78-58.32-8.51a323.02 323.02 0 0 1-55.59-20.66c-6.87-3.26-12.31-6.15-16.08-8.13-3.74-2.03-5.85-3.09-5.94-2.96-.08.14 1.88 1.45 5.51 3.72a232.9 232.9 0 0 0 15.8 8.8 286.29 286.29 0 0 0 55.71 21.42 287.3 287.3 0 0 0 32.19 6.78c9.99 1.54 19.23 2.23 26.92 1.13 7.73-.99 13.52-4.1 16.82-6.86 3.29-2.85 4.43-5 4.43-5M4070.09 2581.75c-.16.22 3.68 3.61 10.45 8.43 6.75 4.68 16.82 11.1 29.64 13.26 12.84 2.42 24.97-1.91 31.17-7.67 3.2-2.8 5.18-5.67 6.24-7.76 1.07-2.1 1.34-3.39 1.23-3.43-.39-.25-2.1 4.89-8.49 9.96-6.19 5.15-17.51 8.96-29.78 6.67-12.26-2.06-22.2-8.05-29.12-12.36-6.93-4.44-11.14-7.38-11.34-7.1M4209.9 2798.12c.04-.07-.48-.49-1.5-1.24a87.88 87.88 0 0 0-4.57-3.18c-2.03-1.28-4.65-2.88-8.14-3.62-3.48-.8-7.61-.33-11.8.72-8.51 1.91-17.97 6.18-28.63 9.9a215.94 215.94 0 0 1-35.69 8.9c-25.84 4.25-49.69 4.36-66.86 4.51l-20.38.03c-4.82.02-7.48.1-7.48.26-.01.16 2.65.37 7.46.62 4.81.24 11.77.52 20.39.69 17.19.26 41.16.41 67.24-3.87a206.15 206.15 0 0 0 36.01-9.18c10.78-3.88 20.04-8.24 28.33-10.3 8.27-2.81 15.1-.53 19.1 2.1 4.13 2.41 6.42 3.81 6.52 3.66" style="fill:#fff;fill-opacity:1;fill-rule:nonzero;stroke:none" transform="matrix(.13333 0 0 -.13333 0 578.54)"/>
  <path d="M4541.35 1948.93v-819.14c0-8.27 12.84-8.28 12.84 0v819.14c0 8.26-12.84 8.28-12.84 0" style="fill:#f2575d;fill-opacity:1;fill-rule:nonzero;stroke:none" transform="matrix(.13333 0 0 -.13333 0 578.54)"/>
  <path d="M4594.14 1310.29a46.2 46.2 0 1 0-92.4 0 46.2 46.2 0 0 0 92.4 0" style="fill:#f2575d;fill-opacity:1;fill-rule:nonzero;stroke:none" transform="matrix(.13333 0 0 -.13333 0 578.54)"/>
  <path d="M4534.89 1286.38s-33.64-33.65-43.74-132.34c-10.09-98.69-12.33-148.03-12.33-148.03l90.84-5.61v70.65c0-3.36 17.94-52.71 17.94-52.71l71.78 23.55s-25.8 262.43-124.49 244.49" style="fill:#f2575d;fill-opacity:1;fill-rule:nonzero;stroke:none" transform="matrix(.13333 0 0 -.13333 0 578.54)"/>
  <path d="M2520.58 1325.95H4062.6v555.94H2520.58ZM1966.73 1881.89h2637.53v95.68H1966.73Z" style="fill:#17282f;fill-opacity:1;fill-rule:nonzero;stroke:none" transform="matrix(.13333 0 0 -.13333 0 578.54)"/>
  <path d="M2520.58 1483.68v398.21H4062.6v-126.7s-74.94 3.31-184.26 3.31c-163.96 0-405.23-7.45-586.75-44.68-302.54-62.06-771.01-230.14-771.01-230.14M2920.73 1881.89h-954v95.68h954v-95.68" style="fill:#0f191d;fill-opacity:1;fill-rule:nonzero;stroke:none" transform="matrix(.13333 0 0 -.13333 0 578.54)"/>
  <path d="M4585.12 1881.89c0-1.47-586.46-2.67-1309.74-2.67-723.52 0-1309.86 1.2-1309.86 2.67 0 1.48 586.34 2.68 1309.86 2.68 723.28 0 1309.74-1.2 1309.74-2.68" style="fill:#33535f;fill-opacity:1;fill-rule:nonzero;stroke:none" transform="matrix(.13333 0 0 -.13333 0 578.54)"/>
  <path d="M2919.18 1881.09c-1.48 0-2.68 21.78-2.68 48.64 0 26.87 1.2 48.64 2.68 48.64 1.48 0 2.68-21.77 2.68-48.64 0-26.86-1.2-48.64-2.68-48.64M3139.16 1325.95c-1.48 0-2.68 108.47-2.68 242.24 0 133.82 1.2 242.27 2.68 242.27 1.47 0 2.67-108.45 2.67-242.27 0-133.77-1.2-242.24-2.67-242.24" style="fill:#33535f;fill-opacity:1;fill-rule:nonzero;stroke:none" transform="matrix(.13333 0 0 -.13333 0 578.54)"/>
  <path d="m908.4 643.24 177.29 71.55 135.42 353.76 180.52-93.02s-17.46-34.95-54.77-121.39c-14.4-33.36-62.13-126.39-81.58-171.71-36.7-85.54-119.64-142.04-212.68-144.47l-166.38-4.33 22.17 109.6" style="fill:#f9a78d;fill-opacity:1;fill-rule:nonzero;stroke:none" transform="matrix(.13333 0 0 -.13333 0 578.54)"/>
  <path d="m820.33 711.72-26.78 28.15a30.38 30.38 0 0 1-17.33 4.81l-84.86-2.58a53.2 53.2 0 0 1-39.26-23.77l-30.85-52.52s-20.73-35.93-18.1-44.66c4-13.18 17.9-10.5 17.9-10.5s2.94-16.6 8.5-19.98c9.29-5.63 20.62-1.33 20.62-1.33 3.08-6.37 9.64-10.61 16.7-10.11 1.41.1 2.89.36 4.41.82 10.07 3.05 14.61 22.55 14.61 22.55l43.03 7.97s61.8-41.3 83.56-68.38c21.78-27.06 78.83-6.38 78.83-6.38l21.35 102.04-92.33 73.87" style="fill:#f9a78d;fill-opacity:1;fill-rule:nonzero;stroke:none" transform="matrix(.13333 0 0 -.13333 0 578.54)"/>
  <path d="M757.79 699.54c.06-.6-6.84-1.93-18.56-3.1-11.7-1.3-28.25-1.77-46.89-4.18l2.02 1.48a179.13 179.13 0 0 0-11.02-20.32 227.01 227.01 0 0 0-40.8-48.26c-12.16-10.75-20.93-15.75-21.29-15.21-.48.68 7.41 6.7 18.7 17.97 11.23 11.26 26 27.78 38.85 48.34a198.73 198.73 0 0 1 10.87 19.65l.63 1.32 1.38.16c19.16 2.16 35.65 1.94 47.35 2.33 11.71.26 18.7.45 18.76-.18" style="fill:#f57f62;fill-opacity:1;fill-rule:nonzero;stroke:none" transform="matrix(.13333 0 0 -.13333 0 578.54)"/>
  <path d="M759.75 659.06c.13-.55-5.7-2.76-15.99-4.26a121.9 121.9 0 0 0-41.51 1.45l3.02 1.71a139.34 139.34 0 0 0-6.2-15.39c-8.96-18.79-21.62-33.17-31.89-41.9-10.3-8.81-17.9-12.48-18.21-11.94-.49.7 6.28 5.46 15.64 14.72a150.22 150.22 0 0 1 29.64 41.44 154.8 154.8 0 0 1 6.08 14.74l.8 2.22 2.22-.5c31.76-7.09 56.26-.72 56.4-2.3" style="fill:#f57f62;fill-opacity:1;fill-rule:nonzero;stroke:none" transform="matrix(.13333 0 0 -.13333 0 578.54)"/>
  <path d="M867.48 638.12 791.8 673.3c-10.48 4.87-21.4 9.85-32.95 9.79-12.44-.05-24.02-5.91-35.06-11.63l-40.73-21.08c-2.2-1.14-4.61-2.5-5.4-4.87-1.02-3.1 1.22-6.27 3.51-8.59 20.34-20.6 56.9-22.09 78.85-3.22 6.53-17.78 13.3-35.95 25.52-50.4 12.23-14.46 31.25-24.68 49.87-21.26" style="fill:#f9a78d;fill-opacity:1;fill-rule:nonzero;stroke:none" transform="matrix(.13333 0 0 -.13333 0 578.54)"/>
  <path d="M835.41 562.04c.03-.12-.66-.35-2.03-.66a29.2 29.2 0 0 0-6.16-.7c-5.41-.15-13.66.89-22.8 5.53-9.1 4.5-19 12.69-26.81 24.45-8 11.66-13.95 26.4-19.82 42.22l3.78-.99c-11.16-9.83-27.43-15.06-44.07-13.78a64.02 64.02 0 0 0-24.57 6.87 58.94 58.94 0 0 0-10.91 7.56c-1.65 1.52-3.4 2.9-4.9 5-1.41 1.94-2.96 4.83-2.15 8.24.68 2.81 2.83 4.6 4.52 5.66 1.8 1.11 3.35 1.81 4.94 2.65l9.43 4.88 18.46 9.51c12.11 6 23.57 13.03 36.48 15.9 13.08 3.16 25.84-.9 35.91-5.44 10.24-4.66 19.46-9.21 28.03-13.3L853.02 646c9.46-4.75 14.62-7.54 14.46-7.87-.16-.34-5.6 1.81-15.34 5.98l-41 18.12-28.18 12.64c-10.03 4.28-21.42 7.67-33.1 4.71-11.67-2.68-22.98-9.6-35.13-15.74l-18.42-9.6c-3.12-1.6-6.26-3.24-9.43-4.88-3.21-1.64-6.56-3.24-6.72-4.86-.64-1.96 2.28-5.44 5.39-7.94 2.98-2.74 6.4-4.9 9.86-6.87a59.27 59.27 0 0 1 22.5-6.4c15.32-1.27 30.31 3.42 40.56 12.22l2.62 2.25 1.16-3.23c5.66-15.9 11.22-30.32 18.63-41.7 7.26-11.47 16.33-19.42 24.86-24.12 17.46-9.53 29.87-5.71 29.67-6.66" style="fill:#f57f62;fill-opacity:1;fill-rule:nonzero;stroke:none" transform="matrix(.13333 0 0 -.13333 0 578.54)"/>
  <path d="M1851.9 1628.94c.68 56.8 9.63 113.41 7.45 170.17-2.18 56.75-17.12 115.88-56.72 156.59-39.6 40.72-108.37 56.26-154.71 23.4l-9.5-48.33c18.24-219.01 15.75-441.57 33.99-660.58 2.4-28.77 25.75-54.81 38.83-80.55 13.08-25.73 39.34-46.97 68.15-45.2 37.7 2.32 62.45 40.54 74.17 76.44 42.49 130.17-3.31 271.15-1.66 408.06" style="fill:#17282f;fill-opacity:1;fill-rule:nonzero;stroke:none" transform="matrix(.13333 0 0 -.13333 0 578.54)"/>
  <path d="M1715.3 1923.43c-8.25 14.03-16.74 28.28-28.88 39.14-12.13 10.85-28.71 17.97-44.71 14.94-7.53-1.44-15.18-5.72-17.71-12.95-2.53-7.23 2.87-16.9 10.51-16.27l1.63-1.39c17-15.05 34.31-29.75 51.9-44.11 4.43-3.61 9.02-7.29 14.49-8.96 5.47-1.68 12.08-.9 15.87 3.37 6.27 7.07 1.69 18.08-3.1 26.23" style="fill:#f2575d;fill-opacity:1;fill-rule:nonzero;stroke:none" transform="matrix(.13333 0 0 -.13333 0 578.54)"/>
  <path d="M1747.39 1867.67c-56.6 69.19-132.61 109.01-221.99 110.49-50.42.84-71.29-9.64-107.61-19.44-36.31-9.8-69.07-29.28-90.74-60.02-25.73-36.52-47.34-77.42-52.21-121.83-4.99-45.61-10-91.54-6.55-137.3 3.44-45.76 15.87-91.84 42.81-128.99l116.43-20.22c64.31-2.2 129.5-4.3 192.15 10.36 62.64 14.67 123.51 48.38 157.06 103.28 46.61 76.27 27.26 194.49-29.35 263.67" style="fill:#17282f;fill-opacity:1;fill-rule:nonzero;stroke:none" transform="matrix(.13333 0 0 -.13333 0 578.54)"/>
  <path d="m1643.79 1868.44-155.22 61.7-40.55-4.71c-91.24-.33-154.17-100.95-154.77-174.85-.66-82.1 1.77-182.36 14.81-242.88 26.23-121.68 130.08-131.81 130.08-131.81s-2.12-64.84-2.9-105.7l237.64 17.16 11.94 539.41a43.25 43.25 0 0 1-41.03 41.68" style="fill:#f9a78d;fill-opacity:1;fill-rule:nonzero;stroke:none" transform="matrix(.13333 0 0 -.13333 0 578.54)"/>
  <path d="M1490.58 1536.18c-.84 6.41-4.41 12.09-8.96 15.98-9.09 7.79-22.38 8.55-32.11 1.83-9.73-6.71-15.31-20.48-13.47-33.28 5.46-7.51 13.82-12.58 23.07-13.38 1.44-.13 2.88-.18 4.33-.14 7.02.18 14.15 2.55 19.51 7.72 5.36 5.17 8.67 13.36 7.63 21.27" style="fill:#f57f62;fill-opacity:1;fill-rule:nonzero;stroke:none" transform="matrix(.13333 0 0 -.13333 0 578.54)"/>
  <path d="M1334.39 1646.69c.16-8.33 7.35-15.06 16.05-15.05 8.68.01 15.61 6.75 15.45 15.08-.16 8.33-7.35 15.07-16.03 15.06-8.71 0-15.64-6.76-15.47-15.09M1321.07 1709.53c2.06-1.94 13.5 7.53 30.45 8.42 16.91 1.13 29.82-6.9 31.54-4.73.86.97-1.34 4.57-6.96 8.21-5.55 3.63-14.85 6.95-25.4 6.33-10.55-.64-19.21-5.01-24.1-9.27-4.98-4.28-6.54-8.09-5.53-8.96M1429.93 1576.67c.03.97-10.6 2.21-27.79 3.46-4.34.21-8.49.84-9.38 3.75-1.19 3.07.36 7.84 2.18 12.98l10.99 33.65c15.19 47.87 25.93 87.14 24 87.73-1.93.6-15.82-37.73-31.01-85.6l-10.43-33.81c-1.37-5-3.88-10.73-1.31-17.1 1.34-3.17 4.64-5.34 7.46-5.93 2.82-.7 5.25-.61 7.4-.62 17.22.02 27.88.53 27.89 1.49" style="fill:#17282f;fill-opacity:1;fill-rule:nonzero;stroke:none" transform="matrix(.13333 0 0 -.13333 0 578.54)"/>
  <path d="M1437.94 1376.03s82.87-.79 161.99 52.87c0 0-39.12-87.49-162.61-82.74l.62 29.87" style="fill:#f57f62;fill-opacity:1;fill-rule:nonzero;stroke:none" transform="matrix(.13333 0 0 -.13333 0 578.54)"/>
  <path d="M1480.43 1567.69c-2.76.01-1.79-18.38-16.82-32.3-14.98-13.95-34.7-12.96-34.7-15.54-.2-1.17 4.56-3.33 12.84-3.1 8.13.16 19.84 3.42 29.03 11.93 9.17 8.53 12.71 19.44 12.92 27.02.28 7.72-2.02 12.17-3.27 11.99M1326.83 1768.86c3.08-3.98 15.9-.5 31.12-.93 15.24.06 28.01-3.73 31.13.18 1.39 1.9-.49 5.84-5.97 9.71-5.4 3.86-14.56 7.21-25.03 7.34-10.47.12-19.68-3-25.13-6.73-5.54-3.74-7.46-7.63-6.12-9.57M1519.26 1650.96c.44-8.32-6.24-15.55-14.92-16.16-8.66-.62-16.06 5.6-16.5 13.92-.44 8.32 6.25 15.56 14.91 16.18 8.68.62 16.07-5.62 16.51-13.94M1550.33 1716.09c-1.92-2.09-14.02 6.53-30.98 6.2-16.95-.1-29.25-9.04-31.13-7-.92.91 1.01 4.65 6.36 8.69 5.27 4.02 14.31 8.01 24.87 8.15 10.57.12 19.53-3.62 24.7-7.5 5.29-3.92 7.12-7.6 6.18-8.54M1540.14 1770.37c-3.27-3.91-16.43-.15-32.17-.23-15.74.41-29.02-3.09-32.16.88-1.38 1.93.65 5.83 6.41 9.58 5.68 3.73 15.22 6.87 26.04 6.77 10.82-.12 20.25-3.45 25.79-7.3 5.64-3.86 7.53-7.8 6.09-9.7" style="fill:#17282f;fill-opacity:1;fill-rule:nonzero;stroke:none" transform="matrix(.13333 0 0 -.13333 0 578.54)"/>
  <path d="M1663.74 1620.48c-.48 9.15 8.9 31.28 17.85 33.18 23.9 5.08 67.46 5.53 71.23-55.67 5.14-83.66-79.91-71.57-80.21-69.18-.23 1.87-7.21 60.11-8.87 91.67" style="fill:#f9a78d;fill-opacity:1;fill-rule:nonzero;stroke:none" transform="matrix(.13333 0 0 -.13333 0 578.54)"/>
  <path d="M1693.81 1560.79c.35.29 1.52-.93 4.05-1.91a14.62 14.62 0 0 1 10.91.45c8.64 3.79 15.22 18.28 14.7 33.38a48.4 48.4 0 0 1-5.36 20.62c-2.93 5.97-7.15 10-11.66 10.51a7.43 7.43 0 0 1-8.35-4.52c-.98-2.41-.34-4.05-.78-4.22-.22-.22-1.88 1.29-1.42 4.79a9.3 9.3 0 0 0 2.97 5.45 11.08 11.08 0 0 0 7.93 2.62c6.48-.05 12.65-5.63 16.02-12.03a49.63 49.63 0 0 0 6.49-23.01c.5-16.9-7.16-33.2-19.04-37.44-5.79-1.9-10.81-.43-13.47 1.39-2.72 1.91-3.27 3.75-2.99 3.92" style="fill:#f57f62;fill-opacity:1;fill-rule:nonzero;stroke:none" transform="matrix(.13333 0 0 -.13333 0 578.54)"/>
  <path d="m1685.01 1653.42-21.26-22.05c-91.8 87.87-271.19 307.86-261.18 294.75 0 0 62.89 25.87 131.14 14.24 68.26-11.63 197.72-45.79 195.74-126.29-1.99-80.5-44.44-160.65-44.44-160.65" style="fill:#17282f;fill-opacity:1;fill-rule:nonzero;stroke:none" transform="matrix(.13333 0 0 -.13333 0 578.54)"/>
  <path d="M1806.57 1671.9c.14.04-.3 1.7-1.28 4.84-1 3.12-2.79 7.65-5.7 13.19-5.82 11.01-16.95 25.92-34.97 39.34-17.75 13.78-42.36 25.03-70.39 33.86-27.99 9.12-59.54 16.2-90.5 29.49-31.18 12.8-58.97 29.3-82.66 46.3a426.92 426.92 0 0 0-58.34 51 456.52 456.52 0 0 0-33.74 40.04l-8.39 11.53c-1.95 2.63-3.03 3.97-3.15 3.89-.13-.08.71-1.58 2.43-4.36 1.75-2.76 4.21-6.92 7.75-12.03a385.08 385.08 0 0 1 32.88-41.14 409.8 409.8 0 0 1 58.23-52.12c23.8-17.34 51.83-34.13 83.34-47.06 31.37-13.46 63.14-20.46 90.95-29.3 27.91-8.58 52.14-19.32 69.79-32.53 17.9-12.86 29.14-27.14 35.31-37.73 6.14-10.68 8.01-17.37 8.44-17.21" style="fill:#33535f;fill-opacity:1;fill-rule:nonzero;stroke:none" transform="matrix(.13333 0 0 -.13333 0 578.54)"/>
  <path d="M1782.22 1658.73s.85 6.85-3.25 18.28c-3.9 11.35-13.8 26.76-31.43 39.39-17.47 13.05-42.41 21.11-69.82 27.37-27.52 6.07-57.38 13.84-86.75 27.53-29.32 13.58-55.63 30.03-77.35 47.74a378.54 378.54 0 0 0-53.02 52.12c-13.75 16.19-22.96 30.76-29.56 40.64l-7.09 11.71c-1.67 2.66-2.6 4.03-2.73 3.96-.14-.07.55-1.57 1.97-4.37l6.42-12.16c6.19-10.19 15.08-25.12 28.64-41.7a363.37 363.37 0 0 1 52.89-53.27c21.81-18.07 48.37-34.83 78.05-48.57 29.66-13.84 60.19-21.65 87.64-27.48 27.37-6.03 51.78-13.64 68.95-25.99 17.38-11.98 27.36-26.64 31.64-37.52 4.47-10.94 4.23-17.78 4.8-17.68" style="fill:#33535f;fill-opacity:1;fill-rule:nonzero;stroke:none" transform="matrix(.13333 0 0 -.13333 0 578.54)"/>
  <path d="M1682.24 1511.78c-.07.56 7.09 1.49 19.48 4.73 12.31 3.43 29.75 10.96 46.82 26.17 17.27 14.98 32.64 38.29 43.49 66.54 10.8 28.28 17.31 61.52 18.14 96.52.36 17.49-.99 34.55-4.04 50.74a246.6 246.6 0 0 1-13.87 45.34 242.44 242.44 0 0 1-43.34 67.5c-31.15 34.06-57.09 47.78-56.16 48.95.1.17 1.69-.67 4.63-2.41 2.9-1.81 7.36-4.21 12.64-8 10.75-7.3 25.71-18.94 41.76-35.9a238.59 238.59 0 0 0 45.14-68.13 247.21 247.21 0 0 0 14.51-46.31 247.47 247.47 0 0 0 4.25-51.91c-.85-35.62-7.62-69.42-18.92-98.23-11.35-28.78-27.51-52.56-45.65-67.64-17.95-15.3-36.17-22.46-48.85-25.31-6.29-1.75-11.46-1.79-14.82-2.36-3.4-.38-5.19-.48-5.21-.29" style="fill:#33535f;fill-opacity:1;fill-rule:nonzero;stroke:none" transform="matrix(.13333 0 0 -.13333 0 578.54)"/>
  <path d="m1788.7 482.52-494.84-71.86c-185.86-52.6-381.68-68.01-586.39-50.24l744.71-347.4 298.98-4.64s91.04-.28 106.95 79.42c16.15 80.94 33.59 321.27 33.59 321.27s-59.08 51.37-103 73.45" style="fill:#17282f;fill-opacity:1;fill-rule:nonzero;stroke:none" transform="matrix(.13333 0 0 -.13333 0 578.54)"/>
  <path d="M1795.98 124.28a720.29 720.29 0 0 1-8.73 149.94l-.07-.03c3.26 18.6 5.61 38.25 3.55 58.86-1.73 13.03-6.82 24.75-10.09 37.38l-.16.56c8.71-.27 29.29-.9 40.49-1.35 18.04-.72 37.93-.72 37.93-.72 3.31-16.33-19.39-32.74-27.97-47.02-12.8-21.3-2.63-48.15 1.73-72.6 7.89-44.32-6.09-92-36.68-125.02" style="fill:#0f191d;fill-opacity:1;fill-rule:nonzero;stroke:none" transform="matrix(.13333 0 0 -.13333 0 578.54)"/>
  <path d="m1436.01 1290.67 240.44 25.96 43.99-40.06-171.64-100.9-75.72-39.21-74.78 22.71-23.7 44.57 61.41 86.93" style="fill:#f9a78d;fill-opacity:1;fill-rule:nonzero;stroke:none" transform="matrix(.13333 0 0 -.13333 0 578.54)"/>
  <path d="M1111.93 997.92s75.36 144.63 94.02 176.23c31.81 53.86 91.16 84.39 91.16 84.39l138.9 32.13s-14.41-69.6 72.03-74.4c109.93-6.12 178.22 99.3 178.22 99.3s125.44-12.9 160.07-27.46c34.64-14.55 132.63-55.54 147-185.83l33.57-212.68-265.02-20.2 3.67-283.14-112.61-92.11s-323.36-111.35-344.01-118.66c-9.76-3.45-7.37 133.95-30.48 251.69l-43.65 105.97c-17.47 42.42-28.33 87.38-30.9 133.19-1.69 30.14-.87 52.95-.87 52.95s-67.98 23.37-91.1 78.63" style="fill:#33535f;fill-opacity:1;fill-rule:nonzero;stroke:none" transform="matrix(.13333 0 0 -.13333 0 578.54)"/>
  <path d="m1320.73 486.7 444.3 133.36-3.15 249.34 226.27 17.24s-18.06-129.2-20.7-195.45c-3.81-95.27-49.64-228.43-80.3-256.7-30.65-28.27-578.22-59-578.22-59l11.8 111.2" style="fill:#f9a78d;fill-opacity:1;fill-rule:nonzero;stroke:none" transform="matrix(.13333 0 0 -.13333 0 578.54)"/>
  <path d="M1068.75 408.29c3.67-6.06 10.6-9.66 17.58-8.5 1.39.23 2.84.62 4.31 1.22 9.75 3.98 7.24 24.26 7.24 24.26l47.29 11.53s65.39-35.34 89.6-60.24c24.22-24.9 79.08 1.04 79.08 1.04l11.68 103.6-94.32 72.88s5.78-4.33-1.45 10.11c-7.24 14.45-34.5 6.66-34.5 6.66-4.88 7.04-23.18 8.28-23.18 8.28l-76.63-14.9a53.15 53.15 0 0 1-36.86-27.34l-28.69-54.29s-14.39-38.61-10.94-47.05c5.21-12.75 18.81-8.77 18.81-8.77s5.7-24.21 12.2-24.56c6.5-.36 18.78 6.07 18.78 6.07" style="fill:#f9a78d;fill-opacity:1;fill-rule:nonzero;stroke:none" transform="matrix(.13333 0 0 -.13333 0 578.54)"/>
  <path d="M1227.64 494.35c-.02-.82-10.38-.66-26.84-2.66-16.41-2.08-38.98-6.73-62.18-16.69a224.97 224.97 0 0 1-31.46-16.43c-8.94-5.99-18.35-11.07-20.82-18.1a9.44 9.44 0 0 1 1.56-9.15 13.2 13.2 0 0 1 6.22-4.48c4.19-1.36 6.73 0 6.86-.47.2-.1-2.24-2.32-7.35-1.39a14.42 14.42 0 0 0-7.86 4.58 12.39 12.39 0 0 0-2.76 11.95c1.33 4.64 4.89 8.43 8.78 11.62 4 3.08 8.19 6.24 12.9 9.27a202.84 202.84 0 0 0 95.77 32.77c16.84 1.13 27.22-.28 27.18-.82" style="fill:#f57f62;fill-opacity:1;fill-rule:nonzero;stroke:none" transform="matrix(.13333 0 0 -.13333 0 578.54)"/>
  <path d="M1236.87 445.47c.02-1.48-31.54-2.6-70.03-7.86-38.51-5.12-69.25-12.4-69.61-10.97-.16.63 7.33 3.26 19.75 6.45 12.42 3.2 29.79 6.8 49.2 9.42 19.4 2.61 37.11 3.73 49.93 3.94 12.82.22 20.75-.34 20.76-.98M1069.04 410.29c-.25.02-.82 2.84-1.6 8.16-.74 5.3-1.66 13-1.81 22.64-.04 4.8.06 10.12.94 15.85.8 5.74 3.03 11.9 6.3 17.43 6.15 11.1 14.99 22.77 26.67 31.92 11.65 9.05 23.4 16.84 35.54 21.55 12.04 4.7 23.51 6.51 33.01 7.67a302.91 302.91 0 0 0 22.58 1.68c5.34.19 8.3.14 8.33-.2.09-.8-11.7-2.1-30.43-4.94-9.31-1.59-20.4-3.73-31.8-8.44-11.31-4.62-22.85-12.42-34.11-21.17-11.28-8.87-19.55-19.57-25.85-30.35-6.72-10.33-7.25-21.63-7.68-31.04-.41-18.86.98-30.71-.09-30.76" style="fill:#f57f62;fill-opacity:1;fill-rule:nonzero;stroke:none" transform="matrix(.13333 0 0 -.13333 0 578.54)"/>
  <path d="M1169.87 559.2c.06-.74-11.49-1.94-29.8-5.49-17.58-4.1-45.95-7.62-60.26-33.39-15.84-23.67-29.14-45.89-34.33-63.68-5.6-17.7-4.07-29.53-5.08-29.52-.26-.02-.94 2.86-1.09 8.17-.19 5.3.35 13.09 2.81 22.31 4.52 18.69 17.67 41.7 33.6 65.5 4.07 5.98 8.53 11.7 13.85 16.35 5.3 4.74 11.65 7.75 17.53 9.96 11.93 4.38 23.07 6.26 32.38 7.74 18.67 2.7 30.35 2.67 30.39 2.05" style="fill:#f57f62;fill-opacity:1;fill-rule:nonzero;stroke:none" transform="matrix(.13333 0 0 -.13333 0 578.54)"/>
  <path d="M1216.58 391.73c-.09-.12-1.76.96-4.86 3.15l-13.75 9.39a538.42 538.42 0 0 1-53.53 31.07l1.11-.12-47.21-11.85 1.48 2.14c.41-3.9.49-7.73.02-11.76-.5-3.96-1.42-8.26-4.54-11.94a11.97 11.97 0 0 0-6.13-3.41c-2.08-.7-4.38-1.1-6.7-.9a19.6 19.6 0 0 0-12.42 5.66c-.85.8-1.6 1.72-2.3 2.66l-.5.74-.24.37-.12.18-.02.03c-.63.2 5.5-1.53 2.89-.8l-.05-.04-.1-.05-1.47-.73a83.1 83.1 0 0 0-6.01-2.67 52.73 52.73 0 0 0-6.43-2.14 25.67 25.67 0 0 0-3.53-.67 8.22 8.22 0 0 0-4.5.52c-2.85 1.71-3.99 3.9-5.18 5.97a54.92 54.92 0 0 0-2.89 6.4 115.35 115.35 0 0 0-4.12 13.31l2.95-1.72c-6.13-1.57-13.56-.64-18.31 4.7-2.15 2.5-3.99 5.63-4.04 9.39-.1 3.36.42 6.36.98 9.39 2.44 12 6.3 23.64 10.53 35.45l.05.14.08.16 15.3 28.96 9.7 18.36c3.24 5.9 6.05 12.44 10.82 17.88a51.74 51.74 0 0 0 16.46 12.88c6.17 3.25 13.2 4.48 19.4 5.62l72.26 13.84.31.06.26-.02a68.08 68.08 0 0 0 13.04-2.38c4.14-1.3 8.53-2.8 11.71-6.91l-2.75.63c7.93 4 17.4 4.77 24.94.54 7.57-4.18 11.48-11.58 13.8-18.63l-.66.97 64.99-49.93 17.53-13.81c3.98-3.2 6.01-4.96 5.9-5.11-.11-.14-2.36 1.33-6.54 4.26L1296.07 504l-65.96 48.63-.45.32-.22.64c-2.11 6.22-5.92 12.95-12.14 16.16-6.08 3.45-14.38 2.69-21.01-.7l-1.64-.85-1.11 1.47c-1.86 2.45-5.68 4.1-9.47 5.17a64.38 64.38 0 0 1-12.14 2.11l.57.03-72.18-14.23c-6.48-1.23-12.52-2.3-18.16-5.27a46.75 46.75 0 0 1-14.87-11.68c-4.22-4.76-6.86-10.92-10.2-17.03l-9.7-18.36-15.31-28.95.12.29c-4.16-11.56-8.04-23.23-10.39-34.65a39.04 39.04 0 0 1-.93-8.29c-.09-2.22 1.22-4.51 2.79-6.39 3.08-3.71 8.78-4.51 13.44-3.38l2.38.58.57-2.3c1.06-4.32 2.33-8.67 3.87-12.74 1.46-3.85 3.56-8.51 5.81-9.95a4.5 4.5 0 0 1 1.96-.07c.93.08 1.92.3 2.91.54 1.97.48 3.94 1.16 5.88 1.92s3.86 1.6 5.73 2.49l1.38.68.08.04.04.02c-2.59.73 3.55-.98 2.92-.82l.01-.01.1-.15.19-.3.39-.58 1.8-2.11c2.6-2.63 6.1-4.26 9.63-4.52 1.77-.16 3.51.13 5.24.71a7.8 7.8 0 0 1 4.23 2.17c4.2 5.1 4.19 13.64 3.7 20.4l-.13 1.77 1.61.38 47.37 11.21.6.14.51-.27a463.94 463.94 0 0 0 53.09-32.52 267.1 267.1 0 0 0 13.29-10.13c2.93-2.43 4.41-3.76 4.31-3.88" style="fill:#f57f62;fill-opacity:1;fill-rule:nonzero;stroke:none" transform="matrix(.13333 0 0 -.13333 0 578.54)"/>
  <path d="M985.66 327.43s-313.5 98.5-411.98 130.43c-169.54 54.95-280.54-.6-315.54-61.26-45.42-78.7 63.49-232.18 105.44-267.45C487.9 24.62 701 10.54 701 10.54l766.21 1.44-223.72 303.3-257.82 12.15" style="fill:#17282f;fill-opacity:1;fill-rule:nonzero;stroke:none" transform="matrix(.13333 0 0 -.13333 0 578.54)"/>
  <path d="M1032.56 185.21c-127-14.93-257.7 2.86-376.1 51.17-20.7 8.45-41.14 17.85-62.8 23.35a183.83 183.83 0 0 1-64.7 4.57c-17.1-1.85-35.3-6.97-45.7-20.7-15.28-20.15-7.42-48.78 1.07-72.6 9.95-27.94 20.3-56.59 39.76-78.96 22.75-26.16 55.73-41.12 88.8-51.54 64.7-20.38 133.03-26.22 200.8-28.92l232.86 12.74-13.99 160.9" style="fill:#dadbd8;fill-opacity:1;fill-rule:nonzero;stroke:none" transform="matrix(.13333 0 0 -.13333 0 578.54)"/>
  <path d="M582.97 259.63c.28.13 1.64-2.05 3.57-6.25s4.25-10.52 6.16-18.61c3.9-16.03 5.22-39.88-2.63-64.3-7.86-24.44-22.83-43.05-35.35-53.8a101.17 101.17 0 0 0-15.85-11.53c-4.01-2.29-6.39-3.27-6.54-3-.46.74 8.42 5.8 20.03 17.08 11.6 11.12 25.5 29.33 33.03 52.75 7.52 23.42 6.84 46.31 3.91 62.1-2.87 15.93-7.13 25.23-6.33 25.56M1785.8 346.64c-18.2 51.56-21.24 127.4-133.46 163.79-112.23 36.4-197.16-33.36-254.79-57.63-57.63-24.27-373.07-197.16-373.07-197.16s-59.4-105.92-42.5-152.67c16.92-46.74 93.75-93 93.75-93h352.68c91 0 260.33 3.02 260.33 3.02 31.15 48.87 60.66 115.26 60.66 115.26l3.03 15.17c0 12.13 51.57 151.66 33.37 203.22" style="fill:#17282f;fill-opacity:1;fill-rule:nonzero;stroke:none" transform="matrix(.13333 0 0 -.13333 0 578.54)"/>
  <path d="M1590.4 78.72s-.25-2.03-2.59-4.81c-2.27-2.8-6.14-6.47-11.61-10.45-10.95-8-27.92-17.87-49.87-27.94-11.02-4.97-23.17-10.21-36.83-14.47-13.61-4.3-28.58-7.47-44.44-9.6-31.78-4.54-67.04-3.54-103.61-4.06-73.37-1.18-139.85-3.93-188.04-3.4-24.09.18-43.6 1.16-57.02 2.55-6.71.69-11.9 1.42-15.39 2.17-3.49.66-5.3 1.08-5.27 1.25.09.5 7.41-.81 20.82-1.51 13.4-.8 32.83-1.25 56.86-.98 48.07.35 114.47 3.65 187.97 4.83 36.78.52 71.71-.6 103.09 3.64 15.67 1.98 30.42 4.95 43.84 9 13.41 4 25.61 9.03 36.6 13.75 21.97 9.6 39.05 18.93 50.19 26.33 5.57 3.7 9.53 7.04 11.96 9.54 2.49 2.47 3.04 4.3 3.34 4.16" style="fill:#17282f;fill-opacity:1;fill-rule:nonzero;stroke:none" transform="matrix(.13333 0 0 -.13333 0 578.54)"/>
  <path d="M1075.73 9.96s-1.65.73-4.67 2.48a297.14 297.14 0 0 0-13.13 8.17c-11.25 7.56-27.85 18.94-46.37 36.88-9.06 9.1-18.79 19.87-26.24 33.84-7.82 14.08-8.18 32.37-5.17 50.17 6.24 36.07 22.02 74.62 42.64 115.06l.24.48.52.3a21593.41 21593.41 0 0 0 196.43 106.8 8578.1 8578.1 0 0 0 113.15 59.74c19.64 10.05 39.44 20.36 60.25 29.72 20.71 8.8 40.51 20.3 61.21 30.83 29.26 15.01 59.51 28.22 91.15 34.27 15.72 3.45 31.72 4.35 47.47 4.35 15.74-.77 31.33-2.55 46.2-6.65 29.7-7.86 57.74-20.26 80.8-38.57a160.85 160.85 0 0 0 29.36-31.81c7.98-11.83 14.05-24.52 18.95-37.3 4.94-12.79 8.53-25.73 12.12-38.29 3.27-12.63 8.36-24.35 10.09-37.38 2.55-25.58-1.67-49.68-6.01-72.12-4.55-22.47-10.12-43.46-15.66-63.05l-8.27-28.35c-2.57-9.01-5.59-18.08-6.93-26.1l-.03-.29-3.1-15.15-.01-.08-.02-.04c-12.74-39.75-28.24-69.07-40.51-87.88-12.42-18.8-21.46-27-21.46-27-.04.05.4.66 1.33 1.82l4.17 5.09a237.44 237.44 0 0 1 14.74 20.87c11.8 18.92 26.86 48.35 39.12 87.86l-.02-.11c5.74 4.79 4.62 9.51 2.96 15.18l-.02-.28c1.41 9.34 4.3 17.7 6.82 26.97l8.05 28.38c5.39 19.58 10.81 40.53 15.21 62.88 4.21 22.27 8.2 46.32 5.62 70.88-1.56 11.92-6.76 24.08-10.11 36.73-3.65 12.57-7.25 25.37-12.14 37.9-4.86 12.53-10.82 24.88-18.59 36.34a156.23 156.23 0 0 1-28.55 30.75c-22.38 17.71-49.98 29.9-79.08 37.53-14.55 3.99-29.78 5.69-45.15 6.44-15.38-.03-31-.91-46.39-4.3-30.98-5.95-60.78-18.94-89.87-33.86-20.56-10.46-40.49-22.04-61.5-30.96-20.5-9.19-40.39-19.52-59.98-29.52a9259.46 9259.46 0 0 1-113.19-59.52l-196.76-106.1.76.77c-20.64-39.96-36.6-78.36-42.98-113.73-3.05-17.62-2.88-34.84 4.5-48.47 7.08-13.63 16.55-24.4 25.41-33.51 18.11-18 34.46-29.65 45.47-37.47l12.8-8.62c2.91-1.91 4.37-2.97 4.37-2.97" style="fill:#17282f;fill-opacity:1;fill-rule:nonzero;stroke:none" transform="matrix(.13333 0 0 -.13333 0 578.54)"/>
  <path d="M1649.75 140.79s105.05-12.53 95.72-63.98c-9.34-51.45-43.67-68.7-43.67-68.7l-285.58-.62s170.53 11.88 233.53 133.3" style="fill:#dadbd8;fill-opacity:1;fill-rule:nonzero;stroke:none" transform="matrix(.13333 0 0 -.13333 0 578.54)"/>
  <path d="M1659.94 165.77c.58-.16-.24-5.82-3.2-14.59a113.32 113.32 0 0 0-17.04-31.84c-17.62-22.91-39.99-31.84-40.18-30.78-.92 1.4 19.59 11.96 36.29 33.78 16.66 21.77 22.52 44.03 24.13 43.43" style="fill:#17282f;fill-opacity:1;fill-rule:nonzero;stroke:none" transform="matrix(.13333 0 0 -.13333 0 578.54)"/>
  <path d="M1623.45 145.58c1.37-.05-.2-17.7-10.14-36.58-9.64-18.94-22.01-31.16-22.91-30.28-1.11.93 9.24 14.21 18.54 32.51 9.59 18.2 13.16 34.56 14.51 34.35" style="fill:#17282f;fill-opacity:1;fill-rule:nonzero;stroke:none" transform="matrix(.13333 0 0 -.13333 0 578.54)"/>
  <path d="M1757.51 22.45c-.78.4 5.97 13.43 14.22 35.5a385.4 385.4 0 0 1 21.42 89.15 385.1 385.1 0 0 1-.75 91.7c-3.06 23.37-6.69 37.58-5.84 37.79.33.09 1.49-3.4 3.3-9.78 1.9-6.37 4-15.78 5.98-27.5 4.01-23.43 6.28-56.56 2.2-92.77-4.19-36.18-13.88-67.94-23.07-89.86-4.58-10.98-8.74-19.67-12.03-25.44-3.21-5.82-5.13-8.95-5.43-8.8" style="fill:#33535f;fill-opacity:1;fill-rule:nonzero;stroke:none" transform="matrix(.13333 0 0 -.13333 0 578.54)"/>
  <g clip-path="url(#a)" transform="matrix(.13333 0 0 -.13333 0 578.54)">
    <path d="M1468.56 19.94h155.7v83.26h-155.7Z" style="fill:#0f191d;fill-opacity:1;fill-rule:nonzero;stroke:none"/>
  </g>
  <path d="m1427.78 11.92-3.6.01a279.5 279.5 0 0 1 44.38 8.01c6.85 1.44 13.45 3.1 19.75 5 13.41 4 25.61 9.03 36.6 13.75 21.97 9.6 39.05 18.93 50.19 26.33 5.57 3.7 9.53 7.04 11.96 9.54.46.45.85.89 1.19 1.3l1.55 1.1c-.38-.82-1-1.86-1.99-3.05-2.27-2.8-6.14-6.47-11.61-10.45-10.95-8-27.92-17.87-49.87-27.94a592.97 592.97 0 0 0-8.23-3.65c-25.72-10-49.96-16-68.34-19.53-7.77-.28-15.17-.42-21.98-.42M1694.87 130.34a252.9 252.9 0 0 1-40.84 9.84 170.78 170.78 0 0 1 16.34 29.18c3.11 7.17 8.2 15.85 15.48 15.85.62 0 1.26-.07 1.92-.2 6.81-1.39 9.55-9.59 10.29-16.5 1.38-12.87.15-25.76-3.19-38.17" style="fill:#0f191d;fill-opacity:1;fill-rule:nonzero;stroke:none" transform="matrix(.13333 0 0 -.13333 0 578.54)"/>
  <path d="M1449.76 12.34a399.42 399.42 0 0 1 68.34 19.53c36.6 14.22 76.2 36.52 106.16 71.33a105.3 105.3 0 0 1 23.85 28.86c2.06 2.68 4.03 5.39 5.92 8.12a252.9 252.9 0 0 0 40.84-9.84c-6.32-23.44-20.17-45.14-38.19-61.63-27.56-25.23-63.83-39.34-100.6-46.01-29.12-5.28-71.42-9.14-106.32-10.36" style="fill:#8f9192;fill-opacity:1;fill-rule:nonzero;stroke:none" transform="matrix(.13333 0 0 -.13333 0 578.54)"/>
  <path d="M1611.76 94.14c13.72 11.76 26.04 24.47 36.35 37.92a105.3 105.3 0 0 0-36.35-37.92" style="fill:#0f191d;fill-opacity:1;fill-rule:nonzero;stroke:none" transform="matrix(.13333 0 0 -.13333 0 578.54)"/>
  <path d="M1002.27 282.46c-.59-1.22-23.22 7.4-50.55 19.23-27.34 11.84-49.08 22.46-48.57 23.72.5 1.26 23.13-7.35 50.55-19.23 27.4-11.87 49.15-22.49 48.57-23.72" style="fill:#17282f;fill-opacity:1;fill-rule:nonzero;stroke:none" transform="matrix(.13333 0 0 -.13333 0 578.54)"/>
  <path d="m902.14 353.7-62.73 19.77a9571.8 9571.8 0 0 0 108.2-18.25c-15.11-.7-30.26-1.2-45.47-1.52" style="fill:#c3c5c2;fill-opacity:1;fill-rule:nonzero;stroke:none" transform="matrix(.13333 0 0 -.13333 0 578.54)"/>
  <path d="m1115.65 321.3-129.99 6.13s-34.18 10.74-83.51 26.27c15.2.31 30.35.81 45.45 1.52a9690.3 9690.3 0 0 0 156.53-28.62c4.16-.8 9-2.3 11.52-5.3" style="fill:#111d23;fill-opacity:1;fill-rule:nonzero;stroke:none" transform="matrix(.13333 0 0 -.13333 0 578.54)"/>
  <path d="M830.14 252.66c-31.58.01-63 2.59-93.68 9.93-58.73 14.05-115.25 47.9-143.84 101.09l102.04 32.26c48.3-7.13 96.56-14.62 144.75-22.47l62.74-19.77c49.33-15.53 83.51-26.27 83.51-26.27l129.99-6.12a7.12 7.12 0 0 0 1.69-3.92c.53-5.05-4.39-8.84-8.79-11.38-57.62-33.2-125.62-42.45-191.85-48.55-28.7-2.64-57.7-4.8-86.56-4.8m73.38 72.87c-.21 0-.34-.04-.37-.12-.51-1.26 21.23-11.88 48.57-23.72 25.59-11.09 47.06-19.34 50.17-19.34.21 0 .34.04.38.11.58 1.23-21.17 11.85-48.57 23.72-25.63 11.1-47.08 19.35-50.18 19.35" style="fill:#111d23;fill-opacity:1;fill-rule:nonzero;stroke:none" transform="matrix(.13333 0 0 -.13333 0 578.54)"/>
  <path d="M1001.89 282.35c-3.1 0-24.58 8.25-50.17 19.34-27.34 11.84-49.08 22.46-48.57 23.72.03.08.16.12.37.12 3.1 0 24.55-8.24 50.18-19.35 27.4-11.87 49.15-22.49 48.57-23.72-.04-.07-.17-.1-.38-.1" style="fill:#111d23;fill-opacity:1;fill-rule:nonzero;stroke:none" transform="matrix(.13333 0 0 -.13333 0 578.54)"/>
  <path d="m434.52 731.73 171.34-379.05a44.37 44.37 0 0 1 39.85-26.09l499.76-6.48 63 33.91-98.66 7.22-153.57 368.57a31.77 31.77 0 0 1-29.07 19.54l-478.83 3.62a15.04 15.04 0 0 1-13.82-21.24" style="fill:#dadbd8;fill-opacity:1;fill-rule:nonzero;stroke:none" transform="matrix(.13333 0 0 -.13333 0 578.54)"/>
  <path d="M434.52 731.73s-1 1.37-1.5 4.57c-.5 3.07.02 8.53 4.67 13.1 2.33 2.16 5.7 4 9.71 4.18l12.57.1h31.3l200.56-.66 139.35-.71 77.9-.45 20.43-.21a34.28 34.28 0 0 0 20.04-8.43c5.83-4.72 9.05-12.2 11.47-18.44l8.16-19.51 143.2-342.95-2.37 1.7 95.29-6.96 3.38-.24 9.58-.71-8.46-4.55-63.01-33.9-.64-.35-.72.01-379.03 5.2-84.6 1.21c-13.78.3-26.96.15-40.67.84a46.8 46.8 0 0 0-33.9 20.95c-22.3 46.93-40.94 90.36-59.02 130.06l-83.79 187.47L442 713.9l-5.7 13.26c-1.26 3-1.77 4.58-1.77 4.58s.85-1.44 2.27-4.36l6.18-13.03 23.35-50.43 85.37-186.76c18.16-39.32 37.48-83.53 59.32-129.17a42.2 42.2 0 0 1 30.64-18.78c12.8-.6 26.63-.43 40.22-.68l84.6-.97 379.03-4.65-1.35-.33 62.99 33.92 1.13-5.26-3.38.25-95.28 6.98-1.72.13-.65 1.58a3227244.27 3227244.27 0 0 0-150.79 362.7c-2.62 6.71-5.08 12.47-10.13 16.69a29.43 29.43 0 0 1-17.18 7.3l-20.09.25-77.9.73-139.35 1.4-200.53 2.38-31.31.48-12.5.16a14.31 14.31 0 0 1-9.04-3.64 14.86 14.86 0 0 1-4.87-12.26c.3-3.1 1.14-4.57.97-4.63" style="fill:#17282f;fill-opacity:1;fill-rule:nonzero;stroke:none" transform="matrix(.13333 0 0 -.13333 0 578.54)"/>
  <path d="M1095.12 320.77c-.16-.07-.95 1.36-2.3 4.13l-5.71 12.24-20.07 45.41a9270.44 9270.44 0 0 0-63.83 150.83c-24.44 59.13-45.96 112.9-60.9 152.09-7.45 19.6-13.4 35.5-17.22 46.58l-4.35 12.78c-.94 2.94-1.36 4.52-1.2 4.58.16.05.89-1.4 2.13-4.23l5.2-12.46 18.66-45.98c16.2-39.4 38.06-92.64 62.22-151.48l62.49-151.36 18.63-46 4.86-12.61c1.06-2.9 1.54-4.46 1.39-4.52" style="fill:#17282f;fill-opacity:1;fill-rule:nonzero;stroke:none" transform="matrix(.13333 0 0 -.13333 0 578.54)"/>
  <path d="M785.07 547.97a24.5 24.5 0 1 0-49 0 24.5 24.5 0 0 0 49 0" style="fill:#fff;fill-opacity:1;fill-rule:nonzero;stroke:none" transform="matrix(.13333 0 0 -.13333 0 578.54)"/>
  <path d="M1271.65 1157.67c.76-.42-6.44-13.91-16.54-36.36a649.45 649.45 0 0 1-32.78-90.22 648.79 648.79 0 0 1-18.66-94.2c-2.98-24.43-3.8-39.7-4.67-39.66-.37.02-.54 3.84-.53 10.77-.04 6.93.42 16.95 1.43 29.29 2 24.69 7.12 58.72 17.27 95.23 10.22 36.48 23.44 68.25 34.51 90.41 5.53 11.09 10.32 19.9 13.95 25.8 3.57 5.94 5.7 9.12 6.02 8.94M2026.9 889.6c.01-.16-1.87-.45-5.49-.86l-15.92-1.56-59.39-4.98-203.11-15.3-2.61-.19-.17 2.61-5.35 84.74c-2.88 50.99-5.34 99.58-6.12 143.88-2.32 44.53 8.59 85.18 26.05 114.09 17.28 29.34 40.2 46.4 56.94 54.72 8.52 4.02 15.34 6.7 20.17 7.84 4.76 1.35 7.27 1.96 7.31 1.79.25-.73-10.07-2.82-26.52-11.47-16.18-8.77-38.15-25.87-54.63-54.79-16.66-28.62-26.93-68.07-24.39-112.09 1.05-44.15 3.66-92.71 6.54-143.66l5.2-84.69-2.78 2.42 203.24 13.44 59.5 3.44c6.56.28 11.85.5 15.97.7 3.64.09 5.54.07 5.56-.08M1528.66 716.4c-.15-.35-3.29.83-8.88 3.26a72.78 72.78 0 0 0-9.93 4.97c-3.73 2.18-8.17 4.42-12.55 7.7-9.14 6-19.15 14.45-29.25 24.82a210.17 210.17 0 0 0-28.03 37.75 209.61 209.61 0 0 0-18.11 43.4c-3.76 13.99-5.89 26.91-6.38 37.84-.58 5.44-.23 10.4-.2 14.72a71 71 0 0 0 .81 11.07c.77 6.05 1.37 9.35 1.73 9.3 1.06-.09-.68-13.46 1.44-34.78.94-10.67 3.42-23.21 7.33-36.77a223.3 223.3 0 0 1 18.03-42.13 223.3 223.3 0 0 1 26.99-37.04c9.65-10.3 19.16-18.83 27.84-25.1 17.24-12.71 29.62-18.06 29.16-19.02" style="fill:#17282f;fill-opacity:1;fill-rule:nonzero;stroke:none" transform="matrix(.13333 0 0 -.13333 0 578.54)"/>
</svg>
