<svg xmlns="http://www.w3.org/2000/svg" xmlns:xlink="http://www.w3.org/1999/xlink" viewBox="0 0 450 450"><defs><style>.cls-1{fill:#f4f4f4;}.cls-2{isolation:isolate;}.cls-3{clip-path:url(#clip-path);}.cls-4{fill:#efeded;opacity:0.8;mix-blend-mode:multiply;}.cls-5{fill:#fff8ef;}.cls-6{fill:#eee8de;}.cls-18,.cls-7{fill:#c5bbac;}.cls-8{fill:#d5cbbd;}.cls-9{fill:url(#Áåçûìÿííûé_ãðàäèåíò_180);}.cls-10{fill:#3d3d89;}.cls-11{fill:#6666c4;}.cls-12{fill:url(#Áåçûìÿííûé_ãðàäèåíò_180-2);}.cls-13{fill:#5454ac;}.cls-14{fill:#4a4a9b;}.cls-15{fill:#d87b5c;}.cls-16{fill:#ff9e7c;}.cls-17{fill:#f38f6e;}.cls-18{opacity:0.7;}.cls-19{fill:#333;}.cls-20{fill:#444;}.cls-21{fill:#545454;}.cls-22{fill:#fff;}.cls-23{fill:#231f20;}.cls-24{fill:#f2f2f7;}</style><clipPath id="clip-path"><ellipse class="cls-1" cx="225.5" cy="223.83" rx="222.5" ry="218.83"/></clipPath><linearGradient id="Áåçûìÿííûé_ãðàäèåíò_180" x1="84.32" y1="271.07" x2="357.31" y2="271.07" gradientUnits="userSpaceOnUse"><stop offset="0.01" stop-color="#7b7be6"/><stop offset="1" stop-color="#9481ff"/></linearGradient><linearGradient id="Áåçûìÿííûé_ãðàäèåíò_180-2" x1="86.76" y1="241.37" x2="357.24" y2="241.37" xlink:href="#Áåçûìÿííûé_ãðàäèåíò_180"/></defs><g class="cls-2"><g id="_0" data-name="0"><g id="_1" data-name="1"><ellipse class="cls-1" cx="225.5" cy="223.83" rx="222.5" ry="218.83"/><g class="cls-3"><path class="cls-4" d="M141.74,177.44-46,281l151.72,86.15a18.27,18.27,0,0,0,9,2.38h13.74L139,375.43a18.31,18.31,0,0,0,9,2.38h8.85l14.22,8.08h20.11l8.83,5a28.69,28.69,0,0,0,14.17,3.74h30.22Z"/><g id="_8" data-name="8"><g class="cls-2"><path class="cls-5" d="M200.8,225.88,78.55,295.3a2.73,2.73,0,0,1-2.69.26L244.7,391.77a2.72,2.72,0,0,0,2.7-.26l122.24-69.42Z"/><path id="Cube_face_-_right" data-name="Cube face - right" class="cls-6" d="M362.05,321.81,242.5,389.69V369a15.21,15.21,0,0,1,7.74-13.19l111.81-63.48Z"/><path class="cls-7" d="M74.15,298.45c-1.11-.64-1.8-2-1.81-3.9l116,60.79L241.56,391c0,1.92.39,3.09,1.5,3.73Z"/><path class="cls-6" d="M241.52,370.53l-61.2-30-108-66.46a13.36,13.36,0,0,1,6.18-10.52l121.08,51L247.7,360a13.36,13.36,0,0,0-6.18,10.52Z"/><polygon class="cls-5" points="247.32 359.8 78.48 263.59 200.73 194.17 369.57 290.38 247.32 359.8"/></g><path class="cls-8" d="M224,332.85,200.73,194.17,78.48,263.59c-1.64.89-6.18,4.74-6.18,10.52,23,16.72,148.87,85.69,148.87,85.69a16.71,16.71,0,0,1,10.34-9h10.06l.61-6.72Z"/><polygon class="cls-8" points="241.52 370.53 72.3 274.11 72.34 294.55 241.56 390.97 241.52 370.53"/><path class="cls-6" d="M369.57,290.38v2.73L247.33,362.52a8.18,8.18,0,0,0-3.77,6.43l0,20.44c0,2.35,1.71,3.3,3.8,2.12l122.24-69.42v2.73L247.4,394.24c-3.42,1.94-6.2.38-6.21-3.48l0-20.44a13.36,13.36,0,0,1,6.18-10.52Z"/><g class="cls-2"><path class="cls-9" d="M200.42,193.88,86.83,258.39a2.56,2.56,0,0,1-2.51.24L241.21,348a2.51,2.51,0,0,0,2.51-.24l113.59-64.5Z"/><path id="Cube_face_-_right-2" data-name="Cube face - right" class="cls-6" d="M350.25,283,239.17,346.09V326.82a14.11,14.11,0,0,1,7.19-12.25l103.89-59Z"/><path class="cls-10" d="M82.74,261.31a3.9,3.9,0,0,1-1.68-3.62l107.79,56.48,49.44,33.11c0,1.78.36,2.88,1.4,3.47Z"/><path class="cls-11" d="M238.26,328.29l-56.87-27.83L81,238.7a12.42,12.42,0,0,1,5.74-9.78l112.51,47.41L244,318.52a12.4,12.4,0,0,0-5.74,9.77Z"/><polygon class="cls-12" points="243.65 318.32 86.76 228.92 200.35 164.42 357.24 253.82 243.65 318.32"/></g><path class="cls-13" d="M222,293.28,200.35,164.42,86.76,228.92c-1.53.83-5.74,4.41-5.74,9.78,21.36,15.53,138.33,79.62,138.33,79.62A15.49,15.49,0,0,1,229,310h9.35l.56-6.24Z"/><polygon class="cls-14" points="238.26 328.29 81.02 238.7 81.06 257.69 238.29 347.28 238.26 328.29"/><path class="cls-11" d="M357.24,253.82v2.53l-113.59,64.5a7.62,7.62,0,0,0-3.51,6l0,19c0,2.19,1.58,3.08,3.53,2l113.59-64.5v2.54l-113.59,64.5c-3.17,1.8-5.76.35-5.78-3.23l0-19a12.42,12.42,0,0,1,5.74-9.78Z"/><g class="cls-2"><path class="cls-15" d="M346.27,246.54l-149.1-84.92a6.19,6.19,0,0,0,2.86-4.86l149.1,84.91a6.19,6.19,0,0,1-2.86,4.87Z"/><path class="cls-15" d="M199.16,138.37a1.94,1.94,0,0,1,.84,1.8l0,16.59,149.1,84.91.38-18.38Z"/><polygon class="cls-16" points="238.3 307.85 89.2 222.93 197.17 161.62 346.27 246.54 238.3 307.85"/><polygon class="cls-15" points="238.19 304.49 232.39 304.49 89.2 222.93 197.17 161.62 284.28 234.83 238.19 304.49"/><polygon id="Cube_face_-_left" data-name="Cube face - left" class="cls-8" points="94.47 198.88 238.24 280.51 238.24 304.44 94.47 222.81 94.47 198.88"/><path class="cls-6" d="M345.63,240.22l0-16.59a2,2,0,0,0-.84-1.8L238.24,280.51v23.94l104.58-59.38a6.22,6.22,0,0,0,2.81-4.85Z"/><polygon class="cls-15" points="238.3 309.91 89.2 225 89.2 222.93 238.3 307.85 238.3 309.91"/><path class="cls-16" d="M200.45,136.18a3.34,3.34,0,0,0-3.33.32l-108,61.31,149.09,84.92L349.55,221.1Z"/><path class="cls-17" d="M346.22,221.42c2.59-1.47,4.69-.29,4.7,2.63l0,16.59a10.12,10.12,0,0,1-4.67,8l-108,61.31v-2.06l108-61.31a6.19,6.19,0,0,0,2.86-4.87l0-16.58c0-1.78-1.3-2.51-2.88-1.61l-108,61.31v-2.06Z"/><polygon class="cls-15" points="238.25 284.79 89.15 199.87 89.14 197.81 238.24 282.73 238.25 284.79"/></g><polygon class="cls-15" points="93.14 195.54 225.54 270.72 238.66 270.72 213.93 239.75 150.76 162.83 93.14 195.54"/><g class="cls-2"><path class="cls-5" d="M209.35,138.41,111.29,194.1a2.36,2.36,0,0,1-2.33.22L238.24,268a2.36,2.36,0,0,0,2.33-.22l98.07-55.69Z"/><path id="Cube_face_-_right-3" data-name="Cube face - right" class="cls-6" d="M332.08,211.87l-95.73,54.36V260.9A13.1,13.1,0,0,1,243,249.52l89-50.57Z"/><path class="cls-7" d="M107.49,196.82a3.65,3.65,0,0,1-1.56-3.37l83.69,43.22,45.91,30.66c0,1.66.34,2.67,1.29,3.22Z"/><path class="cls-6" d="M235.5,262.26l-52.81-25.85-76.8-48a11.51,11.51,0,0,1,5.33-9.07L199.29,214l41.54,39.18a11.52,11.52,0,0,0-5.33,9.07Z"/><polygon class="cls-8" points="235.5 262.26 105.89 188.38 105.93 193.45 235.53 267.33 235.5 262.26"/><polygon class="cls-5" points="240.51 253.01 111.22 179.31 209.29 123.62 338.58 197.32 240.51 253.01"/><path class="cls-6" d="M338.58,197.32v2.35l-98.07,55.69a7,7,0,0,0-3.25,5.54l0,5.07c0,2,1.47,2.85,3.28,1.83l98.07-55.69v2.36l-98.07,55.68c-2.95,1.68-5.35.33-5.36-3l0-5.07a11.51,11.51,0,0,1,5.33-9.07Z"/></g><path class="cls-8" d="M244,328.51c6.36-3.26,21.21-11.59,29.41-16.7C265.32,315.94,250.45,324.47,244,328.51Z"/><path class="cls-11" d="M260.06,319.19l-6.67,3.86c23.36.05,30.89,15.2,33.52,22.43l7-3.75S282.4,318.32,260.06,319.19Z"/><path class="cls-8" d="M310.51,253.46c8-4.11,22.82-12.65,28.18-16C333.16,240.3,318.31,248.6,310.51,253.46Z"/><path class="cls-16" d="M324,245.9l-4.8,2.78c16.8,0,19.67,18,22.05,24.13l5-2.7S341.53,247,324,245.9Z"/></g><path class="cls-18" d="M188.87,135.22l-77.65,44.09a11.51,11.51,0,0,0-5.33,9.07l0,5.07a3.65,3.65,0,0,0,1.56,3.37L158.64,226c2-4.67,5.93-6.81,11.7-6.68h59.09l.32-34,23.62-13.5Z"/><g id="_9" data-name="9"><path class="cls-19" d="M282.55,132.59c-30.29,17.2-79.4,17.2-109.69,0-15-8.49-22.53-19.6-22.71-30.73v74.21c.18,11.14,7.75,22.24,22.71,30.74,30.29,17.2,79.4,17.2,109.69,0,15.32-8.7,22.89-20.14,22.71-31.55V101.05C305.44,112.45,297.87,123.89,282.55,132.59Z"/><g class="cls-2"><polygon class="cls-20" points="350.83 111.79 350.82 117.62 230.72 186.26 230.73 180.44 350.83 111.79"/><polygon class="cls-20" points="230.73 180.44 230.72 186.26 109.83 117.62 109.84 111.79 230.73 180.44"/><polygon class="cls-21" points="350.83 111.79 230.73 180.44 109.84 111.79 229.95 43.15 350.83 111.79"/></g><path class="cls-22" d="M230.94,110.75a1.41,1.41,0,0,0-1.91-.5l-58.81,33.38a4.67,4.67,0,0,0-2.36,4v1a27.25,27.25,0,0,1,2.79.73v-1.76a1.92,1.92,0,0,1,1-1.66l58.81-33.39A1.36,1.36,0,0,0,230.94,110.75Z"/><path class="cls-23" d="M169.27,215c-1.91-.58-6.33,8-6.33,16.31a1,1,0,0,0,1.27.93c0,.76,0,1.48,1,1.48a.67.67,0,0,0,.36-.08,1,1,0,0,0,1.76.68,1,1,0,0,0,2,.21,1,1,0,0,0,1.95-.18.86.86,0,0,0,.88-.24,1,1,0,0,0,1.68-.63c0-.33,0-.63,0-.94C177.7,233.85,172.44,214.16,169.27,215Z"/><path class="cls-24" d="M168.24,145.94a4.63,4.63,0,0,0-.38,1.73v68.39c0,1.14,2.79,1.06,2.79,0V147.67a1.49,1.49,0,0,1,0-.36A6.63,6.63,0,0,1,168.24,145.94Z"/><path class="cls-22" d="M229.4,114.13c3.41.52,6.91-.63,7.82-2.56s-1.11-3.92-4.51-4.44-6.91.63-7.82,2.56S226,113.61,229.4,114.13Z"/></g><polygon class="cls-6" points="139.61 361.39 143.6 360.77 136.59 386.3 132.59 386.91 139.61 361.39"/><polygon class="cls-6" points="146.95 334.66 150.95 334.04 144.3 358.21 140.31 358.83 146.95 334.66"/><polygon class="cls-6" points="154.3 307.94 158.29 307.32 151.65 331.49 147.65 332.11 154.3 307.94"/><polygon class="cls-5" points="140.31 358.83 144.3 358.21 169.52 372.53 165.53 373.14 140.31 358.83"/><polygon class="cls-6" points="161.64 281.21 165.63 280.6 158.99 304.76 155 305.38 161.64 281.21"/><polygon class="cls-5" points="147.65 332.11 151.65 331.49 176.86 345.81 172.87 346.43 147.65 332.11"/><polygon class="cls-6" points="168.98 254.5 172.98 253.88 166.33 278.05 162.34 278.66 168.98 254.5"/><polygon class="cls-5" points="155 305.38 158.99 304.76 184.21 319.08 180.21 319.7 155 305.38"/><polygon class="cls-6" points="176.33 227.77 180.32 227.15 173.68 251.32 169.69 251.94 176.33 227.77"/><polygon class="cls-5" points="162.34 278.66 166.33 278.05 191.55 292.37 187.56 292.98 162.34 278.66"/><polygon class="cls-6" points="183.67 201.05 187.66 200.43 181.02 224.6 177.03 225.22 183.67 201.05"/><polygon class="cls-5" points="169.69 251.94 173.68 251.32 198.89 265.64 194.9 266.25 169.69 251.94"/><polygon class="cls-6" points="191.02 174.32 195.01 173.7 188.37 197.87 184.38 198.49 191.02 174.32"/><polygon class="cls-5" points="177.03 225.22 181.02 224.6 206.24 238.92 202.24 239.54 177.03 225.22"/><polygon class="cls-6" points="198.36 147.6 202.35 146.99 195.71 171.16 191.72 171.77 198.36 147.6"/><polygon class="cls-5" points="184.38 198.49 188.37 197.87 213.58 212.19 209.59 212.81 184.38 198.49"/><polygon class="cls-5" points="191.72 171.77 195.71 171.16 220.92 185.47 216.93 186.09 191.72 171.77"/><polygon class="cls-5" points="196.09 146.31 200.08 145.7 202.35 146.99 198.36 147.6 196.09 146.31"/><polygon class="cls-5" points="223.57 161.92 227.57 161.31 229.84 162.59 225.84 163.21 223.57 161.92"/><path class="cls-8" d="M223.57,161.92l-6.64,24.17-25.21-14.32,6.64-24.17-2.27-1.29L130.32,385.62l2.27,1.29,7-25.52,25.21,14.31-7,25.53,2.27,1.29,65.76-239.31Zm-58,211.22-25.22-14.31L147,334.66,172.17,349Zm7.34-26.71-25.22-14.32,6.65-24.17,25.21,14.32Zm7.34-26.73L155,305.38l6.64-24.17,25.22,14.32ZM187.56,293l-25.22-14.32L169,254.49l25.22,14.32Zm7.34-26.73-25.21-14.31,6.64-24.17,25.21,14.31Zm7.34-26.71L177,225.22l6.64-24.17,25.22,14.32Zm7.35-26.73-25.21-14.32L191,174.32l25.21,14.32Z"/><polygon class="cls-6" points="225.84 163.21 229.84 162.59 164.07 401.9 160.08 402.52 225.84 163.21"/></g></g></g></g></svg>