<?xml version="1.0" encoding="utf-8"?>
<!-- Generator: Adobe Illustrator 24.3.0, SVG Export Plug-In . SVG Version: 6.00 Build 0)  -->
<svg version="1.1" xmlns="http://www.w3.org/2000/svg" xmlns:xlink="http://www.w3.org/1999/xlink" x="0px" y="0px"
	 viewBox="0 0 500 500" style="enable-background:new 0 0 500 500;" xml:space="preserve">
<style type="text/css">
	.st0{fill:#F4F4F4;}
	.st1{fill:#FF5576;}
	.st2{fill:#F43B51;}
	.st3{fill:none;}
	.st4{fill:#485C75;}
	.st5{fill:#ACC7E5;}
	.st6{fill:#374F79;}
	.st7{fill:#D0E0ED;}
	.st8{fill:#F73152;}
	.st9{fill:#F73C60;}
	.st10{fill:#F5F2E9;}
	.st11{fill:#FFFFFF;}
	.st12{opacity:0.5;}
	.st13{fill:#F73E54;}
</style>
<g id="BACKGROUND">
	<g>
		<circle class="st0" cx="250.3" cy="244" r="246.8"/>
	</g>
</g>
<g id="OBJECTS">
	<g>
		<g>
			<path class="st1" d="M128.7,203c-0.7,0-1.2-0.5-1.2-1.2v-3.6c0-0.7,0.5-1.2,1.2-1.2c0.7,0,1.2,0.5,1.2,1.2v3.6
				C129.9,202.4,129.3,203,128.7,203z M128.7,193.4c-0.7,0-1.2-0.5-1.2-1.2v-3.6c0-0.7,0.5-1.2,1.2-1.2c0.7,0,1.2,0.5,1.2,1.2v3.6
				C129.9,192.9,129.3,193.4,128.7,193.4z M128.7,183.8c-0.7,0-1.2-0.5-1.2-1.2v-3.6c0-0.7,0.5-1.2,1.2-1.2c0.7,0,1.2,0.5,1.2,1.2
				v3.6C129.9,183.3,129.3,183.8,128.7,183.8z M128.7,174.3c-0.7,0-1.2-0.5-1.2-1.2v-3.6c0-0.7,0.5-1.2,1.2-1.2
				c0.7,0,1.2,0.5,1.2,1.2v3.6C129.9,173.7,129.3,174.3,128.7,174.3z M128.7,164.7c-0.7,0-1.2-0.5-1.2-1.2v-3.6
				c0-0.7,0.5-1.2,1.2-1.2c0.7,0,1.2,0.5,1.2,1.2v3.6C129.9,164.2,129.3,164.7,128.7,164.7z M128.3,155.2c-0.5,0-1-0.4-1.2-0.9
				c-0.2-1.1-0.6-2.1-1.1-3.2c-0.3-0.6,0-1.3,0.6-1.6c0.6-0.3,1.3,0,1.6,0.6c0.5,1.2,0.9,2.4,1.2,3.6c0.1,0.6-0.3,1.3-0.9,1.4
				C128.4,155.1,128.3,155.2,128.3,155.2z M123.7,146.9c-0.3,0-0.6-0.1-0.9-0.4c-0.8-0.8-1.6-1.5-2.6-2.1c-0.6-0.4-0.7-1.1-0.3-1.7
				c0.4-0.6,1.1-0.7,1.7-0.3c1.1,0.7,2.1,1.5,3,2.4c0.5,0.5,0.5,1.2,0,1.7C124.3,146.7,124,146.9,123.7,146.9z M115.5,142.2
				c-0.1,0-0.2,0-0.3,0c-1.1-0.3-2.2-0.4-3.3-0.4c-0.7,0-1.2-0.6-1.2-1.2c0-0.7,0.6-1.2,1.2-1.2c1.3,0,2.6,0.2,3.8,0.5
				c0.6,0.2,1,0.8,0.9,1.4C116.5,141.9,116,142.2,115.5,142.2z M106,141.8h-3.6c-0.7,0-1.2-0.5-1.2-1.2c0-0.7,0.5-1.2,1.2-1.2h3.6
				c0.7,0,1.2,0.5,1.2,1.2C107.2,141.2,106.6,141.8,106,141.8z M96.4,141.8h-3.6c-0.7,0-1.2-0.5-1.2-1.2c0-0.7,0.5-1.2,1.2-1.2h3.6
				c0.7,0,1.2,0.5,1.2,1.2C97.6,141.2,97,141.8,96.4,141.8z M86.8,141.8h-1.6c-0.7,0-1.2-0.5-1.2-1.2c0-0.7,0.5-1.2,1.2-1.2h1.6
				c0.7,0,1.2,0.5,1.2,1.2C88,141.2,87.5,141.8,86.8,141.8z"/>
		</g>
		<g>
			<path class="st1" d="M202.7,203c-0.7,0-1.2-0.5-1.2-1.2v-3.6c0-0.7,0.5-1.2,1.2-1.2c0.7,0,1.2,0.5,1.2,1.2v3.6
				C203.9,202.4,203.4,203,202.7,203z M202.7,193.4c-0.7,0-1.2-0.5-1.2-1.2v-3.6c0-0.7,0.5-1.2,1.2-1.2c0.7,0,1.2,0.5,1.2,1.2v3.6
				C203.9,192.9,203.4,193.4,202.7,193.4z M202.7,183.8c-0.7,0-1.2-0.5-1.2-1.2v-3.6c0-0.7,0.5-1.2,1.2-1.2c0.7,0,1.2,0.5,1.2,1.2
				v3.6C203.9,183.3,203.4,183.8,202.7,183.8z M202.7,174.3c-0.7,0-1.2-0.5-1.2-1.2v-3.6c0-0.7,0.5-1.2,1.2-1.2
				c0.7,0,1.2,0.5,1.2,1.2v3.6C203.9,173.7,203.4,174.3,202.7,174.3z M202.7,164.7c-0.7,0-1.2-0.5-1.2-1.2v-3.6
				c0-0.7,0.5-1.2,1.2-1.2c0.7,0,1.2,0.5,1.2,1.2v3.6C203.9,164.2,203.4,164.7,202.7,164.7z M202.7,155.1c-0.7,0-1.2-0.5-1.2-1.2
				v-3.6c0-0.7,0.5-1.2,1.2-1.2c0.7,0,1.2,0.5,1.2,1.2v3.6C203.9,154.6,203.4,155.1,202.7,155.1z M202.7,145.5
				c-0.7,0-1.2-0.5-1.2-1.2v-3.6c0-0.7,0.5-1.2,1.2-1.2c0.7,0,1.2,0.5,1.2,1.2v3.6C203.9,145,203.4,145.5,202.7,145.5z M202.7,136
				c-0.7,0-1.2-0.5-1.2-1.2v-3.6c0-0.7,0.5-1.2,1.2-1.2c0.7,0,1.2,0.5,1.2,1.2v3.6C203.9,135.4,203.4,136,202.7,136z M202.7,126.4
				c-0.7,0-1.2-0.5-1.2-1.2v-3.6c0-0.7,0.5-1.2,1.2-1.2c0.7,0,1.2,0.5,1.2,1.2v3.6C203.9,125.9,203.4,126.4,202.7,126.4z
				 M202.7,116.8c-0.7,0-1.2-0.5-1.2-1.2v-1.6c0-0.7,0.5-1.2,1.2-1.2c0.7,0,1.2,0.5,1.2,1.2v1.6
				C203.9,116.3,203.4,116.8,202.7,116.8z"/>
		</g>
		<g>
			<path class="st1" d="M298.5,202c-0.7,0-1.2-0.5-1.2-1.2v-3.6c0-0.7,0.5-1.2,1.2-1.2c0.7,0,1.2,0.5,1.2,1.2v3.6
				C299.7,201.4,299.2,202,298.5,202z M298.5,192.4c-0.7,0-1.2-0.5-1.2-1.2v-3.6c0-0.7,0.5-1.2,1.2-1.2c0.7,0,1.2,0.5,1.2,1.2v3.6
				C299.7,191.9,299.2,192.4,298.5,192.4z M298.5,182.8c-0.7,0-1.2-0.5-1.2-1.2V178c0-0.7,0.5-1.2,1.2-1.2c0.7,0,1.2,0.5,1.2,1.2
				v3.6C299.7,182.3,299.2,182.8,298.5,182.8z M298.5,173.3c-0.7,0-1.2-0.5-1.2-1.2v-3.6c0-0.7,0.5-1.2,1.2-1.2
				c0.7,0,1.2,0.5,1.2,1.2v3.6C299.7,172.7,299.2,173.3,298.5,173.3z M298.5,163.7c-0.7,0-1.2-0.5-1.2-1.2v-3.6
				c0-0.7,0.5-1.2,1.2-1.2c0.7,0,1.2,0.5,1.2,1.2v3.6C299.7,163.1,299.2,163.7,298.5,163.7z M298.5,154.1c-0.7,0-1.2-0.5-1.2-1.2
				v-3.6c0-0.7,0.5-1.2,1.2-1.2c0.7,0,1.2,0.5,1.2,1.2v3.6C299.7,153.6,299.2,154.1,298.5,154.1z M298.5,144.5
				c-0.7,0-1.2-0.5-1.2-1.2v-3.6c0-0.7,0.5-1.2,1.2-1.2c0.7,0,1.2,0.5,1.2,1.2v3.6C299.7,144,299.2,144.5,298.5,144.5z M298.5,135
				c-0.7,0-1.2-0.5-1.2-1.2v-3.6c0-0.7,0.5-1.2,1.2-1.2c0.7,0,1.2,0.5,1.2,1.2v3.6C299.7,134.4,299.2,135,298.5,135z M298.5,125.4
				c-0.7,0-1.2-0.5-1.2-1.2v-3.6c0-0.7,0.5-1.2,1.2-1.2c0.7,0,1.2,0.5,1.2,1.2v3.6C299.7,124.9,299.2,125.4,298.5,125.4z
				 M298.5,115.8c-0.7,0-1.2-0.5-1.2-1.2V111c0-0.7,0.5-1.2,1.2-1.2c0.7,0,1.2,0.5,1.2,1.2v3.6C299.7,115.3,299.2,115.8,298.5,115.8
				z M298.5,106.3c-0.7,0-1.2-0.5-1.2-1.2v-3.6c0-0.7,0.5-1.2,1.2-1.2c0.7,0,1.2,0.5,1.2,1.2v3.6
				C299.7,105.7,299.2,106.3,298.5,106.3z M298.5,96.7c-0.7,0-1.2-0.5-1.2-1.2v-3.6c0-0.7,0.5-1.2,1.2-1.2c0.7,0,1.2,0.5,1.2,1.2
				v3.6C299.7,96.1,299.2,96.7,298.5,96.7z"/>
		</g>
		<g>
			<path class="st1" d="M373.9,203c-0.7,0-1.2-0.5-1.2-1.2v-3.6c0-0.7,0.5-1.2,1.2-1.2c0.7,0,1.2,0.5,1.2,1.2v3.6
				C375.1,202.4,374.6,203,373.9,203z M373.9,193.4c-0.7,0-1.2-0.5-1.2-1.2v-3.6c0-0.7,0.5-1.2,1.2-1.2c0.7,0,1.2,0.5,1.2,1.2v3.6
				C375.1,192.9,374.6,193.4,373.9,193.4z M373.9,183.8c-0.7,0-1.2-0.5-1.2-1.2v-3.6c0-0.7,0.5-1.2,1.2-1.2c0.7,0,1.2,0.5,1.2,1.2
				v3.6C375.1,183.3,374.6,183.8,373.9,183.8z M373.9,174.3c-0.7,0-1.2-0.5-1.2-1.2v-3.6c0-0.7,0.5-1.2,1.2-1.2
				c0.7,0,1.2,0.5,1.2,1.2v3.6C375.1,173.7,374.6,174.3,373.9,174.3z M373.9,164.7c-0.7,0-1.2-0.5-1.2-1.2v-3.6
				c0-0.7,0.5-1.2,1.2-1.2c0.7,0,1.2,0.5,1.2,1.2v3.6C375.1,164.2,374.6,164.7,373.9,164.7z M374.3,155.2c-0.1,0-0.2,0-0.3,0
				c-0.6-0.1-1.1-0.8-0.9-1.4c0.3-1.2,0.7-2.5,1.2-3.6c0.3-0.6,1-0.9,1.6-0.6c0.6,0.3,0.9,1,0.6,1.6c-0.5,1-0.8,2.1-1.1,3.2
				C375.4,154.8,374.9,155.2,374.3,155.2z M378.9,146.9c-0.3,0-0.6-0.1-0.8-0.3c-0.5-0.5-0.5-1.2,0-1.7c0.9-0.9,1.9-1.7,3-2.4
				c0.6-0.4,1.3-0.2,1.7,0.3c0.4,0.6,0.2,1.3-0.3,1.7c-0.9,0.6-1.8,1.3-2.6,2.1C379.5,146.7,379.2,146.9,378.9,146.9z M387.1,142.2
				c-0.5,0-1-0.4-1.2-0.9c-0.2-0.6,0.2-1.3,0.9-1.4c1.2-0.3,2.5-0.5,3.8-0.5c0.7-0.1,1.2,0.5,1.2,1.2c0,0.7-0.5,1.2-1.2,1.2
				c-1.1,0-2.2,0.2-3.3,0.4C387.3,142.2,387.2,142.2,387.1,142.2z M409.8,141.8h-3.6c-0.7,0-1.2-0.5-1.2-1.2c0-0.7,0.5-1.2,1.2-1.2
				h3.6c0.7,0,1.2,0.5,1.2,1.2C411,141.2,410.4,141.8,409.8,141.8z M400.2,141.8h-3.6c-0.7,0-1.2-0.5-1.2-1.2c0-0.7,0.5-1.2,1.2-1.2
				h3.6c0.7,0,1.2,0.5,1.2,1.2C401.4,141.2,400.9,141.8,400.2,141.8z"/>
		</g>
		<g>
			<path class="st1" d="M414.8,360.8h-3.6c-0.7,0-1.2-0.5-1.2-1.2c0-0.7,0.5-1.2,1.2-1.2h3.6c0.7,0,1.2,0.5,1.2,1.2
				C416,360.3,415.5,360.8,414.8,360.8z M405.2,360.8h-3.6c-0.7,0-1.2-0.5-1.2-1.2c0-0.7,0.5-1.2,1.2-1.2h3.6c0.7,0,1.2,0.5,1.2,1.2
				C406.4,360.3,405.9,360.8,405.2,360.8z M395.6,360.8h-3.6c-0.7,0-1.2-0.5-1.2-1.2c0-0.7,0.5-1.2,1.2-1.2h3.6
				c0.7,0,1.2,0.5,1.2,1.2C396.8,360.3,396.3,360.8,395.6,360.8z M386.1,360.7c-0.1,0-0.1,0-0.2,0c-1.3-0.2-2.5-0.5-3.7-0.9
				c-0.6-0.2-0.9-0.9-0.7-1.5c0.2-0.6,0.9-0.9,1.5-0.7c1,0.4,2.1,0.6,3.2,0.8c0.7,0.1,1.1,0.7,1,1.3
				C387.2,360.2,386.7,360.7,386.1,360.7z M377.5,356.8c-0.3,0-0.5-0.1-0.8-0.3c-1-0.8-1.9-1.7-2.7-2.8c-0.4-0.5-0.3-1.3,0.2-1.7
				c0.5-0.4,1.3-0.3,1.7,0.2c0.7,0.9,1.5,1.7,2.3,2.4c0.5,0.4,0.6,1.2,0.1,1.7C378.1,356.7,377.8,356.8,377.5,356.8z M372.2,349
				c-0.5,0-1-0.3-1.1-0.8c-0.4-1.2-0.7-2.5-0.8-3.8c-0.1-0.7,0.4-1.2,1.1-1.3c0.7-0.1,1.2,0.4,1.3,1.1c0.1,1.1,0.3,2.2,0.7,3.3
				c0.2,0.6-0.1,1.3-0.8,1.5C372.4,349,372.3,349,372.2,349z M371.3,339.5c-0.7,0-1.2-0.5-1.2-1.2v-3.6c0-0.7,0.5-1.2,1.2-1.2
				s1.2,0.5,1.2,1.2v3.6C372.5,339,372,339.5,371.3,339.5z M371.3,329.9c-0.7,0-1.2-0.5-1.2-1.2v-3.6c0-0.7,0.5-1.2,1.2-1.2
				s1.2,0.5,1.2,1.2v3.6C372.5,329.4,372,329.9,371.3,329.9z M371.3,320.4c-0.7,0-1.2-0.5-1.2-1.2v-3.6c0-0.7,0.5-1.2,1.2-1.2
				s1.2,0.5,1.2,1.2v3.6C372.5,319.8,372,320.4,371.3,320.4z M371.3,310.8c-0.7,0-1.2-0.5-1.2-1.2V306c0-0.7,0.5-1.2,1.2-1.2
				s1.2,0.5,1.2,1.2v3.6C372.5,310.3,372,310.8,371.3,310.8z M371.3,301.2c-0.7,0-1.2-0.5-1.2-1.2v-3.6c0-0.7,0.5-1.2,1.2-1.2
				s1.2,0.5,1.2,1.2v3.6C372.5,300.7,372,301.2,371.3,301.2z"/>
		</g>
		<g>
			<path class="st1" d="M297.3,385.4c-0.7,0-1.2-0.5-1.2-1.2v-1.6c0-0.7,0.5-1.2,1.2-1.2c0.7,0,1.2,0.5,1.2,1.2v1.6
				C298.5,384.8,297.9,385.4,297.3,385.4z M297.3,377.8c-0.7,0-1.2-0.5-1.2-1.2V373c0-0.7,0.5-1.2,1.2-1.2c0.7,0,1.2,0.5,1.2,1.2
				v3.6C298.5,377.3,297.9,377.8,297.3,377.8z M297.3,368.2c-0.7,0-1.2-0.5-1.2-1.2v-3.6c0-0.7,0.5-1.2,1.2-1.2
				c0.7,0,1.2,0.5,1.2,1.2v3.6C298.5,367.7,297.9,368.2,297.3,368.2z M297.3,358.7c-0.7,0-1.2-0.5-1.2-1.2v-3.6
				c0-0.7,0.5-1.2,1.2-1.2c0.7,0,1.2,0.5,1.2,1.2v3.6C298.5,358.1,297.9,358.7,297.3,358.7z M297.3,349.1c-0.7,0-1.2-0.5-1.2-1.2
				v-3.6c0-0.7,0.5-1.2,1.2-1.2c0.7,0,1.2,0.5,1.2,1.2v3.6C298.5,348.6,297.9,349.1,297.3,349.1z M297.3,339.5
				c-0.7,0-1.2-0.5-1.2-1.2v-3.6c0-0.7,0.5-1.2,1.2-1.2c0.7,0,1.2,0.5,1.2,1.2v3.6C298.5,339,297.9,339.5,297.3,339.5z M297.3,329.9
				c-0.7,0-1.2-0.5-1.2-1.2v-3.6c0-0.7,0.5-1.2,1.2-1.2c0.7,0,1.2,0.5,1.2,1.2v3.6C298.5,329.4,297.9,329.9,297.3,329.9z
				 M297.3,320.4c-0.7,0-1.2-0.5-1.2-1.2v-3.6c0-0.7,0.5-1.2,1.2-1.2c0.7,0,1.2,0.5,1.2,1.2v3.6
				C298.5,319.8,297.9,320.4,297.3,320.4z M297.3,310.8c-0.7,0-1.2-0.5-1.2-1.2V306c0-0.7,0.5-1.2,1.2-1.2c0.7,0,1.2,0.5,1.2,1.2
				v3.6C298.5,310.3,297.9,310.8,297.3,310.8z M297.3,301.2c-0.7,0-1.2-0.5-1.2-1.2v-3.6c0-0.7,0.5-1.2,1.2-1.2
				c0.7,0,1.2,0.5,1.2,1.2v3.6C298.5,300.7,297.9,301.2,297.3,301.2z"/>
		</g>
		<g>
			<path class="st1" d="M201.5,369.2c-0.7,0-1.2-0.5-1.2-1.2v-3.6c0-0.7,0.5-1.2,1.2-1.2c0.7,0,1.2,0.5,1.2,1.2v3.6
				C202.6,368.7,202.1,369.2,201.5,369.2z M201.5,359.7c-0.7,0-1.2-0.5-1.2-1.2v-3.6c0-0.7,0.5-1.2,1.2-1.2c0.7,0,1.2,0.5,1.2,1.2
				v3.6C202.6,359.1,202.1,359.7,201.5,359.7z M201.5,350.1c-0.7,0-1.2-0.5-1.2-1.2v-3.6c0-0.7,0.5-1.2,1.2-1.2
				c0.7,0,1.2,0.5,1.2,1.2v3.6C202.6,349.6,202.1,350.1,201.5,350.1z M201.5,340.5c-0.7,0-1.2-0.5-1.2-1.2v-3.6
				c0-0.7,0.5-1.2,1.2-1.2c0.7,0,1.2,0.5,1.2,1.2v3.6C202.6,340,202.1,340.5,201.5,340.5z M201.5,331c-0.7,0-1.2-0.5-1.2-1.2v-3.6
				c0-0.7,0.5-1.2,1.2-1.2c0.7,0,1.2,0.5,1.2,1.2v3.6C202.6,330.4,202.1,331,201.5,331z M201.5,321.4c-0.7,0-1.2-0.5-1.2-1.2v-3.6
				c0-0.7,0.5-1.2,1.2-1.2c0.7,0,1.2,0.5,1.2,1.2v3.6C202.6,320.8,202.1,321.4,201.5,321.4z M201.5,311.8c-0.7,0-1.2-0.5-1.2-1.2
				V307c0-0.7,0.5-1.2,1.2-1.2c0.7,0,1.2,0.5,1.2,1.2v3.6C202.6,311.3,202.1,311.8,201.5,311.8z M201.5,302.2
				c-0.7,0-1.2-0.5-1.2-1.2v-3.6c0-0.7,0.5-1.2,1.2-1.2c0.7,0,1.2,0.5,1.2,1.2v3.6C202.6,301.7,202.1,302.2,201.5,302.2z"/>
		</g>
		<g>
			<path class="st1" d="M105.4,360.8h-3.6c-0.7,0-1.2-0.5-1.2-1.2c0-0.7,0.5-1.2,1.2-1.2h3.6c0.7,0,1.2,0.5,1.2,1.2
				C106.6,360.3,106,360.8,105.4,360.8z M95.8,360.8h-3.6c-0.7,0-1.2-0.5-1.2-1.2c0-0.7,0.5-1.2,1.2-1.2h3.6c0.7,0,1.2,0.5,1.2,1.2
				C97,360.3,96.4,360.8,95.8,360.8z M86.2,360.8h-1c-0.7,0-1.2-0.5-1.2-1.2c0-0.7,0.5-1.2,1.2-1.2h1c0.7,0,1.2,0.5,1.2,1.2
				C87.4,360.3,86.9,360.8,86.2,360.8z M111.3,360.7c-0.6,0-1.1-0.4-1.2-1c-0.1-0.7,0.4-1.3,1-1.3c1.1-0.2,2.2-0.4,3.2-0.8
				c0.6-0.2,1.3,0.1,1.5,0.7c0.2,0.6-0.1,1.3-0.7,1.5c-1.2,0.4-2.5,0.7-3.7,0.9C111.4,360.7,111.4,360.7,111.3,360.7z M120,356.8
				c-0.3,0-0.7-0.1-0.9-0.4c-0.4-0.5-0.4-1.3,0.1-1.7c0.9-0.7,1.6-1.5,2.3-2.4c0.4-0.5,1.2-0.6,1.7-0.2c0.5,0.4,0.6,1.2,0.2,1.7
				c-0.8,1-1.7,1.9-2.7,2.8C120.5,356.7,120.2,356.8,120,356.8z M125.3,349c-0.1,0-0.2,0-0.4-0.1c-0.6-0.2-1-0.9-0.8-1.5
				c0.3-1.1,0.6-2.2,0.7-3.3c0.1-0.7,0.7-1.1,1.3-1.1c0.7,0.1,1.1,0.7,1.1,1.3c-0.1,1.3-0.4,2.5-0.8,3.8
				C126.2,348.7,125.8,349,125.3,349z M126.1,339.5c-0.7,0-1.2-0.5-1.2-1.2v-3.6c0-0.7,0.5-1.2,1.2-1.2c0.7,0,1.2,0.5,1.2,1.2v3.6
				C127.3,339,126.8,339.5,126.1,339.5z M126.1,329.9c-0.7,0-1.2-0.5-1.2-1.2v-3.6c0-0.7,0.5-1.2,1.2-1.2c0.7,0,1.2,0.5,1.2,1.2v3.6
				C127.3,329.4,126.8,329.9,126.1,329.9z M126.1,320.4c-0.7,0-1.2-0.5-1.2-1.2v-3.6c0-0.7,0.5-1.2,1.2-1.2c0.7,0,1.2,0.5,1.2,1.2
				v3.6C127.3,319.8,126.8,320.4,126.1,320.4z M126.1,310.8c-0.7,0-1.2-0.5-1.2-1.2V306c0-0.7,0.5-1.2,1.2-1.2
				c0.7,0,1.2,0.5,1.2,1.2v3.6C127.3,310.3,126.8,310.8,126.1,310.8z M126.1,301.2c-0.7,0-1.2-0.5-1.2-1.2v-3.6
				c0-0.7,0.5-1.2,1.2-1.2c0.7,0,1.2,0.5,1.2,1.2v3.6C127.3,300.7,126.8,301.2,126.1,301.2z"/>
		</g>
	</g>
	<g>
		<path class="st2" d="M442.8,292.4h-3.1c-0.6,0-1-0.5-1-1.1s0.5-1.1,1-1.1h3.1c0.6,0,1.1,0.5,1.1,1.1S443.4,292.4,442.8,292.4z
			 M434.5,292.4h-3.1c-0.6,0-1-0.5-1-1.1s0.5-1.1,1-1.1h3.1c0.6,0,1,0.5,1,1.1S435.1,292.4,434.5,292.4z M426.3,292.4h-3.1
			c-0.6,0-1-0.5-1-1.1s0.5-1.1,1-1.1h3.1c0.6,0,1,0.5,1,1.1S426.9,292.4,426.3,292.4z M418.1,292.4H415c-0.6,0-1-0.5-1-1.1
			s0.5-1.1,1-1.1h3.1c0.6,0,1,0.5,1,1.1S418.7,292.4,418.1,292.4z M409.9,292.4h-3.1c-0.6,0-1-0.5-1-1.1s0.5-1.1,1-1.1h3.1
			c0.6,0,1,0.5,1,1.1S410.5,292.4,409.9,292.4z M401.7,292.4h-3.1c-0.6,0-1-0.5-1-1.1s0.5-1.1,1-1.1h3.1c0.6,0,1,0.5,1,1.1
			S402.2,292.4,401.7,292.4z M393.5,292.4h-3.1c-0.6,0-1-0.5-1-1.1s0.5-1.1,1-1.1h3.1c0.6,0,1,0.5,1,1.1S394,292.4,393.5,292.4z
			 M385.2,292.4h-3.1c-0.6,0-1-0.5-1-1.1s0.5-1.1,1-1.1h3.1c0.6,0,1,0.5,1,1.1S385.8,292.4,385.2,292.4z M377,292.4h-3.1
			c-0.6,0-1-0.5-1-1.1s0.5-1.1,1-1.1h3.1c0.6,0,1,0.5,1,1.1S377.6,292.4,377,292.4z M368.8,292.4h-3.1c-0.6,0-1-0.5-1-1.1
			s0.5-1.1,1-1.1h3.1c0.6,0,1,0.5,1,1.1S369.4,292.4,368.8,292.4z M360.6,292.4h-3.1c-0.6,0-1-0.5-1-1.1s0.5-1.1,1-1.1h3.1
			c0.6,0,1,0.5,1,1.1S361.2,292.4,360.6,292.4z M352.4,292.4h-3.1c-0.6,0-1-0.5-1-1.1s0.5-1.1,1-1.1h3.1c0.6,0,1,0.5,1,1.1
			S352.9,292.4,352.4,292.4z M344.2,292.4h-3.1c-0.6,0-1-0.5-1-1.1s0.5-1.1,1-1.1h3.1c0.6,0,1,0.5,1,1.1S344.7,292.4,344.2,292.4z
			 M335.9,292.4h-3.1c-0.6,0-1-0.5-1-1.1s0.5-1.1,1-1.1h3.1c0.6,0,1,0.5,1,1.1S336.5,292.4,335.9,292.4z M327.7,292.4h-3.1
			c-0.6,0-1-0.5-1-1.1s0.5-1.1,1-1.1h3.1c0.6,0,1,0.5,1,1.1S328.3,292.4,327.7,292.4z M319.5,292.4h-3.1c-0.6,0-1-0.5-1-1.1
			s0.5-1.1,1-1.1h3.1c0.6,0,1,0.5,1,1.1S320.1,292.4,319.5,292.4z M311.3,292.4h-3.1c-0.6,0-1-0.5-1-1.1s0.5-1.1,1-1.1h3.1
			c0.6,0,1,0.5,1,1.1S311.9,292.4,311.3,292.4z M303.1,292.4H300c-0.6,0-1-0.5-1-1.1s0.5-1.1,1-1.1h3.1c0.6,0,1,0.5,1,1.1
			S303.6,292.4,303.1,292.4z M294.8,292.4h-3.1c-0.6,0-1-0.5-1-1.1s0.5-1.1,1-1.1h3.1c0.6,0,1,0.5,1,1.1S295.4,292.4,294.8,292.4z
			 M286.6,292.4h-3.1c-0.6,0-1-0.5-1-1.1s0.5-1.1,1-1.1h3.1c0.6,0,1,0.5,1,1.1S287.2,292.4,286.6,292.4z M278.4,292.4h-3.1
			c-0.6,0-1-0.5-1-1.1s0.5-1.1,1-1.1h3.1c0.6,0,1,0.5,1,1.1S279,292.4,278.4,292.4z M270.2,292.4h-3.1c-0.6,0-1-0.5-1-1.1
			s0.5-1.1,1-1.1h3.1c0.6,0,1,0.5,1,1.1S270.8,292.4,270.2,292.4z M262,292.4h-3.1c-0.6,0-1-0.5-1-1.1s0.5-1.1,1-1.1h3.1
			c0.6,0,1,0.5,1,1.1S262.5,292.4,262,292.4z M253.8,292.4h-3.1c-0.6,0-1-0.5-1-1.1s0.5-1.1,1-1.1h3.1c0.6,0,1,0.5,1,1.1
			S254.3,292.4,253.8,292.4z M245.5,292.4h-3.1c-0.6,0-1-0.5-1-1.1s0.5-1.1,1-1.1h3.1c0.6,0,1,0.5,1,1.1S246.1,292.4,245.5,292.4z
			 M237.3,292.4h-3.1c-0.6,0-1-0.5-1-1.1s0.5-1.1,1-1.1h3.1c0.6,0,1,0.5,1,1.1S237.9,292.4,237.3,292.4z M229.1,292.4H226
			c-0.6,0-1-0.5-1-1.1s0.5-1.1,1-1.1h3.1c0.6,0,1,0.5,1,1.1S229.7,292.4,229.1,292.4z M220.9,292.4h-3.1c-0.6,0-1-0.5-1-1.1
			s0.5-1.1,1-1.1h3.1c0.6,0,1,0.5,1,1.1S221.5,292.4,220.9,292.4z M212.7,292.4h-3.1c-0.6,0-1-0.5-1-1.1s0.5-1.1,1-1.1h3.1
			c0.6,0,1,0.5,1,1.1S213.2,292.4,212.7,292.4z M204.5,292.4h-3.1c-0.6,0-1-0.5-1-1.1s0.5-1.1,1-1.1h3.1c0.6,0,1,0.5,1,1.1
			S205,292.4,204.5,292.4z M196.2,292.4h-3.1c-0.6,0-1-0.5-1-1.1s0.5-1.1,1-1.1h3.1c0.6,0,1,0.5,1,1.1S196.8,292.4,196.2,292.4z
			 M188,292.4h-3.1c-0.6,0-1-0.5-1-1.1s0.5-1.1,1-1.1h3.1c0.6,0,1,0.5,1,1.1S188.6,292.4,188,292.4z M179.8,292.4h-3.1
			c-0.6,0-1-0.5-1-1.1s0.5-1.1,1-1.1h3.1c0.6,0,1,0.5,1,1.1S180.4,292.4,179.8,292.4z M171.6,292.4h-3.1c-0.6,0-1-0.5-1-1.1
			s0.5-1.1,1-1.1h3.1c0.6,0,1,0.5,1,1.1S172.2,292.4,171.6,292.4z M163.4,292.4h-3.1c-0.6,0-1-0.5-1-1.1s0.5-1.1,1-1.1h3.1
			c0.6,0,1,0.5,1,1.1S163.9,292.4,163.4,292.4z M155.2,292.4h-3.1c-0.6,0-1-0.5-1-1.1s0.5-1.1,1-1.1h3.1c0.6,0,1,0.5,1,1.1
			S155.7,292.4,155.2,292.4z M146.9,292.4h-3.1c-0.6,0-1-0.5-1-1.1s0.5-1.1,1-1.1h3.1c0.6,0,1,0.5,1,1.1S147.5,292.4,146.9,292.4z
			 M138.7,292.4h-3.1c-0.6,0-1-0.5-1-1.1s0.5-1.1,1-1.1h3.1c0.6,0,1,0.5,1,1.1S139.3,292.4,138.7,292.4z M130.5,292.4h-3.1
			c-0.6,0-1-0.5-1-1.1s0.5-1.1,1-1.1h3.1c0.6,0,1,0.5,1,1.1S131.1,292.4,130.5,292.4z M122.3,292.4h-3.1c-0.6,0-1-0.5-1-1.1
			s0.5-1.1,1-1.1h3.1c0.6,0,1,0.5,1,1.1S122.8,292.4,122.3,292.4z M114.1,292.4H111c-0.6,0-1-0.5-1-1.1s0.5-1.1,1-1.1h3.1
			c0.6,0,1,0.5,1,1.1S114.6,292.4,114.1,292.4z M105.8,292.4h-3.1c-0.6,0-1-0.5-1-1.1s0.5-1.1,1-1.1h3.1c0.6,0,1,0.5,1,1.1
			S106.4,292.4,105.8,292.4z M97.6,292.4h-3.1c-0.6,0-1-0.5-1-1.1s0.5-1.1,1-1.1h3.1c0.6,0,1,0.5,1,1.1S98.2,292.4,97.6,292.4z
			 M89.4,292.4h-3.1c-0.6,0-1-0.5-1-1.1s0.5-1.1,1-1.1h3.1c0.6,0,1,0.5,1,1.1S90,292.4,89.4,292.4z M81.2,292.4h-3.1
			c-0.6,0-1-0.5-1-1.1s0.5-1.1,1-1.1h3.1c0.6,0,1,0.5,1,1.1S81.8,292.4,81.2,292.4z M73,292.4h-3.1c-0.6,0-1-0.5-1-1.1
			s0.5-1.1,1-1.1H73c0.6,0,1,0.5,1,1.1S73.5,292.4,73,292.4z M64.8,292.4h-3.1c-0.6,0-1-0.5-1-1.1s0.5-1.1,1-1.1h3.1
			c0.6,0,1,0.5,1,1.1S65.3,292.4,64.8,292.4z M56.5,292.4C56.5,292.4,56.5,292.4,56.5,292.4c-1.1-0.1-2.2-0.2-3.3-0.5
			c-0.6-0.1-0.9-0.7-0.7-1.3c0.1-0.6,0.7-0.9,1.2-0.8c0.9,0.2,1.9,0.4,2.8,0.4c0.6,0,1,0.5,1,1.1C57.5,292,57.1,292.4,56.5,292.4z
			 M447.9,291.5c-0.4,0-0.8-0.3-1-0.7c-0.2-0.6,0.1-1.2,0.6-1.4c0.9-0.3,1.8-0.8,2.6-1.3c0.5-0.3,1.1-0.1,1.4,0.4
			c0.3,0.5,0.1,1.2-0.4,1.5c-0.9,0.6-1.9,1.1-3,1.5C448.1,291.5,448,291.5,447.9,291.5z M48.8,289.8c-0.2,0-0.4-0.1-0.6-0.2
			c-0.9-0.6-1.8-1.3-2.6-2.2c-0.4-0.4-0.4-1.1,0-1.5c0.4-0.4,1.1-0.4,1.5,0c0.7,0.7,1.4,1.3,2.2,1.9c0.5,0.3,0.6,1,0.3,1.5
			C49.5,289.6,49.1,289.8,48.8,289.8z M454.6,286.7c-0.2,0-0.5-0.1-0.7-0.3c-0.4-0.4-0.5-1.1-0.1-1.5c0.6-0.8,1.2-1.6,1.6-2.5
			c0.3-0.5,0.9-0.7,1.4-0.4c0.5,0.3,0.7,0.9,0.4,1.5c-0.5,1-1.2,2-1.9,2.8C455.1,286.6,454.8,286.7,454.6,286.7z M43.4,283.5
			c-0.4,0-0.7-0.2-0.9-0.6c-0.5-1-0.9-2.1-1.2-3.2c-0.1-0.6,0.2-1.2,0.7-1.3c0.6-0.2,1.1,0.2,1.3,0.8c0.2,1,0.6,1.9,1,2.8
			c0.3,0.5,0,1.2-0.5,1.4C43.7,283.4,43.6,283.5,43.4,283.5z M458,279c-0.1,0-0.1,0-0.2,0c-0.6-0.1-0.9-0.7-0.8-1.2
			c0.1-0.8,0.2-1.7,0.2-2.6v-0.5c0-0.6,0.5-1.1,1-1.1c0.6,0,1,0.5,1,1.1v0.5c0,1-0.1,2-0.2,2.9C458.9,278.6,458.5,279,458,279z
			 M41.8,275.1c-0.6,0-1-0.5-1-1.1v-3.2c0-0.6,0.5-1.1,1-1.1c0.6,0,1,0.5,1,1.1v3.2C42.8,274.7,42.3,275.1,41.8,275.1z M458.2,270.4
			c-0.6,0-1-0.5-1-1.1v-3.2c0-0.6,0.5-1.1,1-1.1c0.6,0,1,0.5,1,1.1v3.2C459.3,269.9,458.8,270.4,458.2,270.4z M41.8,266.5
			c-0.6,0-1-0.5-1-1.1v-3.2c0-0.6,0.5-1.1,1-1.1c0.6,0,1,0.5,1,1.1v3.2C42.8,266.1,42.3,266.5,41.8,266.5z M458.2,261.8
			c-0.6,0-1-0.5-1-1.1v-3.2c0-0.6,0.5-1.1,1-1.1c0.6,0,1,0.5,1,1.1v3.2C459.3,261.3,458.8,261.8,458.2,261.8z M41.8,257.9
			c-0.6,0-1-0.5-1-1.1v-3.2c0-0.6,0.5-1.1,1-1.1c0.6,0,1,0.5,1,1.1v3.2C42.8,257.5,42.3,257.9,41.8,257.9z M458.2,253.2
			c-0.6,0-1-0.5-1-1.1v-3.2c0-0.6,0.5-1.1,1-1.1c0.6,0,1,0.5,1,1.1v3.2C459.3,252.7,458.8,253.2,458.2,253.2z M41.8,249.3
			c-0.6,0-1-0.5-1-1.1V245c0-0.6,0.5-1.1,1-1.1c0.6,0,1,0.5,1,1.1v3.2C42.8,248.9,42.3,249.3,41.8,249.3z M458.2,244.6
			c-0.6,0-1-0.5-1-1.1v-3.2c0-0.6,0.5-1.1,1-1.1c0.6,0,1,0.5,1,1.1v3.2C459.3,244.1,458.8,244.6,458.2,244.6z M41.8,240.7
			c-0.6,0-1-0.5-1-1.1v-3.2c0-0.6,0.5-1.1,1-1.1c0.6,0,1,0.5,1,1.1v3.2C42.8,240.3,42.3,240.7,41.8,240.7z M458.2,236
			c-0.6,0-1-0.5-1-1.1v-3.2c0-0.6,0.5-1.1,1-1.1c0.6,0,1,0.5,1,1.1v3.2C459.3,235.5,458.8,236,458.2,236z M41.8,232.1
			c-0.6,0-1-0.5-1-1.1v-3.2c0-0.6,0.5-1.1,1-1.1c0.6,0,1,0.5,1,1.1v3.2C42.8,231.7,42.3,232.1,41.8,232.1z M458.2,227.4
			c-0.6,0-1-0.5-1-1.1v-3.2c0-0.6,0.5-1.1,1-1.1c0.6,0,1,0.5,1,1.1v3.2C459.3,226.9,458.8,227.4,458.2,227.4z M41.8,223.5
			c-0.6,0-1-0.5-1-1.1V222c0-1,0.1-2,0.2-3c0.1-0.6,0.6-1,1.2-0.9c0.6,0.1,0.9,0.7,0.8,1.2c-0.1,0.9-0.2,1.7-0.2,2.6v0.4
			C42.8,223.1,42.3,223.5,41.8,223.5z M457.7,218.9c-0.5,0-0.9-0.3-1-0.8c-0.3-1-0.6-1.9-1-2.8c-0.3-0.5-0.1-1.2,0.5-1.4
			c0.5-0.3,1.1-0.1,1.4,0.5c0.5,1,0.9,2.1,1.2,3.2c0.1,0.6-0.2,1.2-0.7,1.3C457.9,218.9,457.8,218.9,457.7,218.9z M43.7,215.3
			c-0.2,0-0.3,0-0.5-0.1c-0.5-0.3-0.7-0.9-0.4-1.5c0.5-1,1.2-1.9,1.9-2.8c0.4-0.5,1-0.5,1.5-0.1c0.4,0.4,0.5,1.1,0.1,1.5
			c-0.6,0.8-1.2,1.6-1.6,2.5C44.4,215.1,44.1,215.3,43.7,215.3z M453.6,211.6c-0.3,0-0.5-0.1-0.7-0.3c-0.7-0.7-1.4-1.3-2.2-1.9
			c-0.5-0.3-0.6-1-0.3-1.5c0.3-0.5,0.9-0.6,1.4-0.3c0.9,0.6,1.8,1.3,2.6,2.1c0.4,0.4,0.4,1.1,0,1.5
			C454.1,211.5,453.8,211.6,453.6,211.6z M49.4,209.2c-0.4,0-0.7-0.2-0.9-0.5c-0.3-0.5-0.1-1.2,0.4-1.5c0.9-0.6,1.9-1.1,3-1.5
			c0.5-0.2,1.1,0.1,1.3,0.7c0.2,0.6-0.1,1.2-0.6,1.4c-0.9,0.3-1.8,0.8-2.6,1.3C49.7,209.2,49.6,209.2,49.4,209.2z M446.5,207.4
			c-0.1,0-0.2,0-0.2,0c-0.9-0.2-1.9-0.4-2.8-0.4c-0.6,0-1-0.5-1-1.1c0-0.6,0.5-1,1-1c0,0,0,0,0,0c1.1,0,2.2,0.2,3.2,0.5
			c0.6,0.1,0.9,0.7,0.8,1.3C447.4,207.1,446.9,207.4,446.5,207.4z M438.3,206.9h-3.1c-0.6,0-1-0.5-1-1.1c0-0.6,0.5-1.1,1-1.1h3.1
			c0.6,0,1,0.5,1,1.1C439.3,206.5,438.9,206.9,438.3,206.9z M430.1,206.9H427c-0.6,0-1-0.5-1-1.1c0-0.6,0.5-1.1,1-1.1h3.1
			c0.6,0,1,0.5,1,1.1C431.1,206.5,430.6,206.9,430.1,206.9z M421.9,206.9h-3.1c-0.6,0-1-0.5-1-1.1c0-0.6,0.5-1.1,1-1.1h3.1
			c0.6,0,1,0.5,1,1.1C422.9,206.5,422.4,206.9,421.9,206.9z M413.6,206.9h-3.1c-0.6,0-1-0.5-1-1.1c0-0.6,0.5-1.1,1-1.1h3.1
			c0.6,0,1,0.5,1,1.1C414.7,206.5,414.2,206.9,413.6,206.9z M405.4,206.9h-3.1c-0.6,0-1-0.5-1-1.1c0-0.6,0.5-1.1,1-1.1h3.1
			c0.6,0,1,0.5,1,1.1C406.5,206.5,406,206.9,405.4,206.9z M397.2,206.9h-3.1c-0.6,0-1-0.5-1-1.1c0-0.6,0.5-1.1,1-1.1h3.1
			c0.6,0,1,0.5,1,1.1C398.2,206.5,397.8,206.9,397.2,206.9z M389,206.9h-3.1c-0.6,0-1-0.5-1-1.1c0-0.6,0.5-1.1,1-1.1h3.1
			c0.6,0,1,0.5,1,1.1C390,206.5,389.6,206.9,389,206.9z M380.8,206.9h-3.1c-0.6,0-1-0.5-1-1.1c0-0.6,0.5-1.1,1-1.1h3.1
			c0.6,0,1,0.5,1,1.1C381.8,206.5,381.3,206.9,380.8,206.9z M372.6,206.9h-3.1c-0.6,0-1-0.5-1-1.1c0-0.6,0.5-1.1,1-1.1h3.1
			c0.6,0,1,0.5,1,1.1C373.6,206.5,373.1,206.9,372.6,206.9z M364.3,206.9h-3.1c-0.6,0-1-0.5-1-1.1c0-0.6,0.5-1.1,1-1.1h3.1
			c0.6,0,1,0.5,1,1.1C365.4,206.5,364.9,206.9,364.3,206.9z M356.1,206.9H353c-0.6,0-1-0.5-1-1.1c0-0.6,0.5-1.1,1-1.1h3.1
			c0.6,0,1,0.5,1,1.1C357.1,206.5,356.7,206.9,356.1,206.9z M347.9,206.9h-3.1c-0.6,0-1-0.5-1-1.1c0-0.6,0.5-1.1,1-1.1h3.1
			c0.6,0,1,0.5,1,1.1C348.9,206.5,348.5,206.9,347.9,206.9z M339.7,206.9h-3.1c-0.6,0-1-0.5-1-1.1c0-0.6,0.5-1.1,1-1.1h3.1
			c0.6,0,1,0.5,1,1.1C340.7,206.5,340.3,206.9,339.7,206.9z M331.5,206.9h-3.1c-0.6,0-1-0.5-1-1.1c0-0.6,0.5-1.1,1-1.1h3.1
			c0.6,0,1,0.5,1,1.1C332.5,206.5,332,206.9,331.5,206.9z M323.2,206.9h-3.1c-0.6,0-1-0.5-1-1.1c0-0.6,0.5-1.1,1-1.1h3.1
			c0.6,0,1,0.5,1,1.1C324.3,206.5,323.8,206.9,323.2,206.9z M315,206.9h-3.1c-0.6,0-1-0.5-1-1.1c0-0.6,0.5-1.1,1-1.1h3.1
			c0.6,0,1,0.5,1,1.1C316.1,206.5,315.6,206.9,315,206.9z M306.8,206.9h-3.1c-0.6,0-1-0.5-1-1.1c0-0.6,0.5-1.1,1-1.1h3.1
			c0.6,0,1,0.5,1,1.1C307.8,206.5,307.4,206.9,306.8,206.9z M298.6,206.9h-3.1c-0.6,0-1-0.5-1-1.1c0-0.6,0.5-1.1,1-1.1h3.1
			c0.6,0,1,0.5,1,1.1C299.6,206.5,299.2,206.9,298.6,206.9z M290.4,206.9h-3.1c-0.6,0-1-0.5-1-1.1c0-0.6,0.5-1.1,1-1.1h3.1
			c0.6,0,1,0.5,1,1.1C291.4,206.5,290.9,206.9,290.4,206.9z M282.2,206.9h-3.1c-0.6,0-1-0.5-1-1.1c0-0.6,0.5-1.1,1-1.1h3.1
			c0.6,0,1,0.5,1,1.1C283.2,206.5,282.7,206.9,282.2,206.9z M273.9,206.9h-3.1c-0.6,0-1-0.5-1-1.1c0-0.6,0.5-1.1,1-1.1h3.1
			c0.6,0,1,0.5,1,1.1C275,206.5,274.5,206.9,273.9,206.9z M265.7,206.9h-3.1c-0.6,0-1-0.5-1-1.1c0-0.6,0.5-1.1,1-1.1h3.1
			c0.6,0,1,0.5,1,1.1C266.8,206.5,266.3,206.9,265.7,206.9z M257.5,206.9h-3.1c-0.6,0-1-0.5-1-1.1c0-0.6,0.5-1.1,1-1.1h3.1
			c0.6,0,1,0.5,1,1.1C258.5,206.5,258.1,206.9,257.5,206.9z M249.3,206.9h-3.1c-0.6,0-1-0.5-1-1.1c0-0.6,0.5-1.1,1-1.1h3.1
			c0.6,0,1,0.5,1,1.1C250.3,206.5,249.9,206.9,249.3,206.9z M241.1,206.9H238c-0.6,0-1-0.5-1-1.1c0-0.6,0.5-1.1,1-1.1h3.1
			c0.6,0,1,0.5,1,1.1C242.1,206.5,241.6,206.9,241.1,206.9z M232.9,206.9h-3.1c-0.6,0-1-0.5-1-1.1c0-0.6,0.5-1.1,1-1.1h3.1
			c0.6,0,1,0.5,1,1.1C233.9,206.5,233.4,206.9,232.9,206.9z M224.6,206.9h-3.1c-0.6,0-1-0.5-1-1.1c0-0.6,0.5-1.1,1-1.1h3.1
			c0.6,0,1,0.5,1,1.1C225.7,206.5,225.2,206.9,224.6,206.9z M216.4,206.9h-3.1c-0.6,0-1-0.5-1-1.1c0-0.6,0.5-1.1,1-1.1h3.1
			c0.6,0,1,0.5,1,1.1C217.4,206.5,217,206.9,216.4,206.9z M208.2,206.9h-3.1c-0.6,0-1-0.5-1-1.1c0-0.6,0.5-1.1,1-1.1h3.1
			c0.6,0,1,0.5,1,1.1C209.2,206.5,208.8,206.9,208.2,206.9z M200,206.9h-3.1c-0.6,0-1-0.5-1-1.1c0-0.6,0.5-1.1,1-1.1h3.1
			c0.6,0,1,0.5,1,1.1C201,206.5,200.6,206.9,200,206.9z M191.8,206.9h-3.1c-0.6,0-1-0.5-1-1.1c0-0.6,0.5-1.1,1-1.1h3.1
			c0.6,0,1,0.5,1,1.1C192.8,206.5,192.3,206.9,191.8,206.9z M183.5,206.9h-3.1c-0.6,0-1-0.5-1-1.1c0-0.6,0.5-1.1,1-1.1h3.1
			c0.6,0,1,0.5,1,1.1C184.6,206.5,184.1,206.9,183.5,206.9z M175.3,206.9h-3.1c-0.6,0-1-0.5-1-1.1c0-0.6,0.5-1.1,1-1.1h3.1
			c0.6,0,1,0.5,1,1.1C176.4,206.5,175.9,206.9,175.3,206.9z M167.1,206.9H164c-0.6,0-1-0.5-1-1.1c0-0.6,0.5-1.1,1-1.1h3.1
			c0.6,0,1,0.5,1,1.1C168.1,206.5,167.7,206.9,167.1,206.9z M158.9,206.9h-3.1c-0.6,0-1-0.5-1-1.1c0-0.6,0.5-1.1,1-1.1h3.1
			c0.6,0,1,0.5,1,1.1C159.9,206.5,159.5,206.9,158.9,206.9z M150.7,206.9h-3.1c-0.6,0-1-0.5-1-1.1c0-0.6,0.5-1.1,1-1.1h3.1
			c0.6,0,1,0.5,1,1.1C151.7,206.5,151.2,206.9,150.7,206.9z M142.5,206.9h-3.1c-0.6,0-1-0.5-1-1.1c0-0.6,0.5-1.1,1-1.1h3.1
			c0.6,0,1,0.5,1,1.1C143.5,206.5,143,206.9,142.5,206.9z M134.2,206.9h-3.1c-0.6,0-1-0.5-1-1.1c0-0.6,0.5-1.1,1-1.1h3.1
			c0.6,0,1,0.5,1,1.1C135.3,206.5,134.8,206.9,134.2,206.9z M126,206.9h-3.1c-0.6,0-1-0.5-1-1.1c0-0.6,0.5-1.1,1-1.1h3.1
			c0.6,0,1,0.5,1,1.1C127.1,206.5,126.6,206.9,126,206.9z M117.8,206.9h-3.1c-0.6,0-1-0.5-1-1.1c0-0.6,0.5-1.1,1-1.1h3.1
			c0.6,0,1,0.5,1,1.1C118.8,206.5,118.4,206.9,117.8,206.9z M109.6,206.9h-3.1c-0.6,0-1-0.5-1-1.1c0-0.6,0.5-1.1,1-1.1h3.1
			c0.6,0,1,0.5,1,1.1C110.6,206.5,110.2,206.9,109.6,206.9z M101.4,206.9h-3.1c-0.6,0-1-0.5-1-1.1c0-0.6,0.5-1.1,1-1.1h3.1
			c0.6,0,1,0.5,1,1.1C102.4,206.5,101.9,206.9,101.4,206.9z M93.2,206.9h-3.1c-0.6,0-1-0.5-1-1.1c0-0.6,0.5-1.1,1-1.1h3.1
			c0.6,0,1,0.5,1,1.1C94.2,206.5,93.7,206.9,93.2,206.9z M84.9,206.9h-3.1c-0.6,0-1-0.5-1-1.1c0-0.6,0.5-1.1,1-1.1h3.1
			c0.6,0,1,0.5,1,1.1C86,206.5,85.5,206.9,84.9,206.9z M76.7,206.9h-3.1c-0.6,0-1-0.5-1-1.1c0-0.6,0.5-1.1,1-1.1h3.1
			c0.6,0,1,0.5,1,1.1C77.7,206.5,77.3,206.9,76.7,206.9z M68.5,206.9h-3.1c-0.6,0-1-0.5-1-1.1c0-0.6,0.5-1.1,1-1.1h3.1
			c0.6,0,1,0.5,1,1.1C69.5,206.5,69.1,206.9,68.5,206.9z M60.3,206.9h-3c-0.6,0-1-0.5-1-1.1c0-0.6,0.4-1.1,1-1.1h3.1
			c0.6,0,1,0.5,1,1.1C61.3,206.5,60.9,206.9,60.3,206.9z"/>
	</g>
	<g>
		<g>
			<g>
				<g>
					<rect x="478.8" y="393.7" class="st3" width="2.3" height="2.2"/>
				</g>
			</g>
			<g>
				<g>
					<g>
						<path class="st4" d="M469.8,398.8c0,2.5,2,4.5,4.5,4.5c2.5,0,4.5-2,4.5-4.5v-2.9h-8.9V398.8z"/>
					</g>
				</g>
			</g>
			<g>
				<g>
					<rect x="469.8" y="393.7" class="st5" width="8.9" height="2.2"/>
				</g>
			</g>
			<g>
				<g>
					<g>
						<rect x="469.8" y="354.1" class="st4" width="8.9" height="39.6"/>
					</g>
				</g>
			</g>
		</g>
		<g>
			<g>
				<g>
					<rect x="472.5" y="354.1" class="st6" width="3.7" height="39.6"/>
				</g>
			</g>
		</g>
		<g>
			<g>
				<g>
					<polygon class="st6" points="474.3,344.3 472.5,348.3 476.1,348.3 					"/>
				</g>
			</g>
			<g>
				<g>
					<g>
						<polygon class="st5" points="472.5,348.3 469.8,354.5 478.8,354.5 476.1,348.3 						"/>
					</g>
				</g>
			</g>
		</g>
		<g>
			<g>
				<g>
					<path class="st7" d="M459.5,412.4h-48c-2.3,0-4.2-1.9-4.2-4.2V339c0-2.3,1.9-4.2,4.2-4.2h48c2.3,0,4.2,1.9,4.2,4.2v69.2
						C463.7,410.5,461.9,412.4,459.5,412.4z"/>
				</g>
			</g>
		</g>
		<g>
			<g>
				<g>
					<path class="st8" d="M416,364.4l5.8-16.8c0.6-1.9,2.4-3.2,4.6-3.2c2.1,0,3.9,1.3,4.5,3.2l5.7,16.6c0.1,0.3,0.2,0.6,0.2,0.9
						c0,1.5-1.3,2.8-2.8,2.8c-1.3,0-2.3-0.8-2.7-1.9l-1-3.2h-8.3l-1,3.3c-0.3,1.1-1.3,1.9-2.6,1.9c-1.5,0-2.7-1.2-2.7-2.7
						C415.9,364.9,415.9,364.6,416,364.4z M429,358.2l-1.5-4.7c-0.5-1.5-0.7-2.5-1.1-3.9h-0.4c-0.3,1.3-0.6,2.4-1.1,3.9l-1.5,4.7
						H429z"/>
				</g>
				<g>
					<path class="st8" d="M441.5,355.6h3.1v-3.2c0-1.2,1-2.2,2.2-2.2c1.2,0,2.2,1,2.2,2.2v3.2h3.1c1.1,0,2.1,0.9,2.1,2.1
						s-0.9,2.1-2.1,2.1h-3.1v3.4c0,1.2-1,2.2-2.2,2.2c-1.2,0-2.2-1-2.2-2.2v-3.4h-3.1c-1.1,0-2.1-0.9-2.1-2.1
						S440.4,355.6,441.5,355.6z"/>
				</g>
			</g>
			<g>
				<g>
					<g>
						<path class="st4" d="M457.1,381.2h-43c-0.7,0-1.3-0.6-1.3-1.3s0.6-1.3,1.3-1.3h43c0.7,0,1.3,0.6,1.3,1.3
							S457.8,381.2,457.1,381.2z"/>
					</g>
				</g>
				<g>
					<g>
						<path class="st4" d="M457.1,391.7h-43c-0.7,0-1.3-0.6-1.3-1.3c0-0.7,0.6-1.3,1.3-1.3h43c0.7,0,1.3,0.6,1.3,1.3
							C458.3,391.1,457.8,391.7,457.1,391.7z"/>
					</g>
				</g>
				<g>
					<g>
						<path class="st4" d="M457.1,402.1h-43c-0.7,0-1.3-0.6-1.3-1.3s0.6-1.3,1.3-1.3h43c0.7,0,1.3,0.6,1.3,1.3
							S457.8,402.1,457.1,402.1z"/>
					</g>
				</g>
			</g>
		</g>
	</g>
	<g>
		<g>
			<g>
				<path class="st9" d="M206.7,420.7l7.8-22.7c0.9-2.6,3.3-4.4,6.2-4.4c2.8,0,5.3,1.8,6.1,4.4l7.8,22.4c0.1,0.4,0.2,0.8,0.2,1.2
					c0,2.1-1.7,3.8-3.8,3.8c-1.7,0-3.1-1.1-3.6-2.6l-1.4-4.3h-11.2l-1.4,4.4c-0.5,1.5-1.8,2.5-3.5,2.5c-2,0-3.6-1.6-3.6-3.6
					C206.5,421.5,206.5,421.1,206.7,420.7z M224.2,412.5l-2-6.3c-0.6-2-1-3.4-1.4-5.2h-0.5c-0.4,1.8-0.8,3.2-1.4,5.2l-2,6.3H224.2z"
					/>
			</g>
		</g>
		<g>
			<g>
				<g>
					<path class="st8" d="M177.7,404.9c-0.1,0.4-0.2,0.9-0.3,1.3c5.8,1.6,8.4,5.6,8.4,10.1c0,6.4-4.8,10.7-15.1,12
						c-0.3-1-1.3-3-2.1-4c7.2-0.8,11.9-3.2,11.9-7.8c0-1.3-0.4-4.4-4.8-5.8c-1.8,4-4.4,7.7-7.6,10.4c0.2,0.5,0.4,1,0.6,1.4l-4.1,2.6
						c-0.2-0.4-0.4-0.8-0.6-1.3c-2,1.1-4.2,1.8-6.4,1.8c-3.5,0-5.8-2.2-5.8-6c0-5.5,4.2-9.9,9.9-12.2c-0.1-1.7-0.1-3.5-0.1-5.3
						c-3,0.1-6.2,0.2-7.9,0.1l-0.2-4.7c1.8,0,5.2,0,8.2,0c0.1-1.7,0.1-3.7,0.2-5.4l6.3,0.5c-0.1,0.4-0.4,0.7-1.1,0.8
						c-0.1,1.2-0.2,2.7-0.3,4c4.4-0.2,9.9-0.7,14.3-1.7l0.4,4.8c-4.4,0.8-10.2,1.2-15,1.4c0,1.4-0.1,2.8-0.1,4.1
						c1.7-0.4,4.1-0.6,6-0.5c0.2-0.6,0.3-1.2,0.3-1.8L177.7,404.9z M162.8,419.3c-0.4-2.1-0.7-4.6-0.9-7.3c-3.2,1.6-5.3,4-5.3,6.7
						c0,2.3,1.7,2.2,2.2,2.2C160.1,420.8,161.4,420.2,162.8,419.3z M170.9,409.8c-0.6-0.1-2.6,0.1-4.4,0.6c0.1,2,0.2,3.8,0.5,5.4
						C168.6,414.2,169.9,412.1,170.9,409.8z"/>
				</g>
			</g>
		</g>
		<path class="st5" d="M220.4,377.2l-3.8-3.6l0.1,5.1c-8.2-6-26.7-15.3-47.1,3.2c-1.2,1.1-1.2,2.9-0.1,4l0,0c1,1,2.7,1.1,3.8,0.1
			c16.1-14.7,30.3-9.8,39-3.6l-4.3,0.1l3.8,3.6l8.7-0.2L220.4,377.2z"/>
		<path class="st5" d="M219.8,434.5L219.8,434.5c-1.1-1.1-2.7-1.1-3.8-0.1c-16.1,14.7-30.3,9.8-39,3.6l4.3-0.1l-3.8-3.6l-8.7,0.2
			l0.2,8.7l3.8,3.6l-0.1-5.1c8.2,6,26.7,15.3,47.1-3.2C220.9,437.5,220.9,435.7,219.8,434.5z"/>
	</g>
	<g>
		<g>
			<path class="st4" d="M83,399v13.6c0,0.9-0.8,1.7-1.7,1.7H25.5c-0.9,0-1.7-0.8-1.7-1.7V399c0-0.9,0.8-1.7,1.7-1.7h55.9
				C82.3,397.3,83,398,83,399z"/>
			<g>
				<g>
					<rect x="30.6" y="397.3" class="st6" width="5.9" height="16.9"/>
					<rect x="70.3" y="397.3" class="st6" width="5.9" height="16.9"/>
				</g>
			</g>
			<path class="st7" d="M67.6,405.8L67.6,405.8c0,1.2-1,2.2-2.2,2.2h-24c-1.2,0-2.2-1-2.2-2.2l0,0c0-1.2,1-2.2,2.2-2.2h24
				C66.6,403.5,67.6,404.5,67.6,405.8z"/>
		</g>
		<g>
			<path class="st5" d="M79.4,382v13.6c0,0.9-0.8,1.7-1.7,1.7H21.8c-0.9,0-1.7-0.8-1.7-1.7V382c0-0.9,0.8-1.7,1.7-1.7h55.9
				C78.6,380.3,79.4,381.1,79.4,382z"/>
			<g>
				<g>
					<rect x="27" y="380.3" class="st6" width="5.9" height="16.9"/>
					<rect x="66.6" y="380.3" class="st6" width="5.9" height="16.9"/>
				</g>
			</g>
			<path class="st4" d="M64,388.8L64,388.8c0,1.2-1,2.2-2.2,2.2h-24c-1.2,0-2.2-1-2.2-2.2l0,0c0-1.2,1-2.2,2.2-2.2h24
				C63,386.6,64,387.6,64,388.8z"/>
		</g>
		<g>
			<path class="st7" d="M83,365.1v13.6c0,0.9-0.8,1.7-1.7,1.7H25.5c-0.9,0-1.7-0.8-1.7-1.7v-13.6c0-0.9,0.8-1.7,1.7-1.7h55.9
				C82.3,363.4,83,364.2,83,365.1z"/>
			<g>
				
					<rect x="25.1" y="368.9" transform="matrix(6.123234e-17 -1 1 6.123234e-17 -338.2777 405.4522)" class="st4" width="16.9" height="5.9"/>
				
					<rect x="64.8" y="368.9" transform="matrix(6.123234e-17 -1 1 6.123234e-17 -298.6405 445.0894)" class="st4" width="16.9" height="5.9"/>
			</g>
			<path class="st5" d="M67.6,371.9L67.6,371.9c0,1.2-1,2.2-2.2,2.2h-24c-1.2,0-2.2-1-2.2-2.2l0,0c0-1.2,1-2.2,2.2-2.2h24
				C66.6,369.6,67.6,370.6,67.6,371.9z"/>
		</g>
		<g>
			<path class="st6" d="M110.7,410.7l-13.1,3.5c-0.9,0.2-1.8-0.3-2.1-1.2l-14.2-54c-0.2-0.9,0.3-1.8,1.2-2.1l13.1-3.5
				c0.9-0.2,1.8,0.3,2.1,1.2l14.2,54C112.1,409.6,111.6,410.5,110.7,410.7z"/>
			<g>
				
					<rect x="83.1" y="361.7" transform="matrix(0.9671 -0.2545 0.2545 0.9671 -89.7906 35.3027)" class="st4" width="16.9" height="5.9"/>
				
					<rect x="93.1" y="400" transform="matrix(0.9671 -0.2545 0.2545 0.9671 -99.2143 39.1326)" class="st4" width="16.9" height="5.9"/>
			</g>
			<path class="st7" d="M100.2,397.6L100.2,397.6c-1.2,0.3-2.4-0.4-2.7-1.6l-6.1-23.2c-0.3-1.2,0.4-2.4,1.6-2.7l0,0
				c1.2-0.3,2.4,0.4,2.7,1.6l6.1,23.2C102.1,396,101.4,397.2,100.2,397.6z"/>
		</g>
		<path class="st8" d="M55.8,340.9c-1.6,0.1-3.1,0.1-4.7,0c-3.5-0.2-9.5,1.1-9.5,12.3c0,9.6,7.8,10.3,10.8,10.3c0.7,0,1.5,0,2.2,0
			c2.9,0.1,10.8-0.7,10.8-10.3C65.3,341.9,59.3,340.7,55.8,340.9z"/>
		<path class="st4" d="M57.8,333c0,0,0,0.1-0.1,0.2C57.8,333,57.8,333,57.8,333c-7.7,2.3-4.7,8-4.7,8l0,0
			C53.2,341,59.6,340.8,57.8,333z"/>
	</g>
	<g>
		<g>
			<g>
				<path class="st5" d="M167,126.7h53.8c1.1,0,2-0.9,2-2V53.8c0-1.1-0.9-2-2-2H167V126.7z"/>
			</g>
		</g>
		<g>
			<g>
				<path class="st6" d="M159.5,59.3c0,8.6,0,29.9,0,29.9s0,21.4,0,29.9c0,8.6,7.5,7.5,7.5,7.5V89.3V51.8
					C167,51.8,159.5,50.7,159.5,59.3z"/>
			</g>
		</g>
		<g>
			<path class="st4" d="M207.7,89.3h-25.5c-1.9,0-3.5-1.6-3.5-3.5V72.9c0-1.9,1.6-3.5,3.5-3.5h25.5c1.9,0,3.5,1.6,3.5,3.5v12.9
				C211.2,87.7,209.6,89.3,207.7,89.3z"/>
		</g>
		<g>
			<path class="st10" d="M182,83l2.7-7.9c0.3-0.9,1.1-1.5,2.2-1.5c1,0,1.8,0.6,2.1,1.5l2.7,7.8c0,0.1,0.1,0.3,0.1,0.4
				c0,0.7-0.6,1.3-1.3,1.3c-0.6,0-1.1-0.4-1.2-0.9l-0.5-1.5h-3.9l-0.5,1.5c-0.2,0.5-0.6,0.9-1.2,0.9c-0.7,0-1.2-0.6-1.2-1.2
				C181.9,83.3,181.9,83.2,182,83z M188,80.1l-0.7-2.2c-0.2-0.7-0.3-1.2-0.5-1.8h-0.2c-0.2,0.6-0.3,1.1-0.5,1.8l-0.7,2.2H188z"/>
			<path class="st10" d="M193.7,79.2h3.1c0.6,0,1.1,0.5,1.1,1.1c0,0.6-0.5,1.1-1.1,1.1h-3.1c-0.6,0-1.1-0.5-1.1-1.1
				C192.7,79.6,193.1,79.2,193.7,79.2z"/>
			<path class="st10" d="M199.1,82.7l5.1-6.8h-3.9c-0.6,0-1.1-0.5-1.1-1.1s0.5-1.1,1.1-1.1h6.3c0.6,0,1.2,0.5,1.2,1.2
				c0,0.3-0.1,0.5-0.2,0.7l-5.1,6.8h4.4c0.6,0,1.1,0.5,1.1,1.1c0,0.6-0.5,1.1-1.1,1.1H200c-0.6,0-1.1-0.5-1.1-1.1
				C198.9,83.2,198.9,82.9,199.1,82.7z"/>
		</g>
		<g>
			<path class="st4" d="M212.2,52l10.4,10.4c0.1,0.1,0.4,0,0.4-0.2v-9.8c0-0.5-0.4-0.9-0.9-0.9l-9.7,0C212.2,51.6,212,51.9,212.2,52
				z"/>
		</g>
		<g>
			<path class="st4" d="M222.6,116.1l-10.4,10.4c-0.1,0.1,0,0.4,0.2,0.4h9.8c0.5,0,0.9-0.4,0.9-0.9l0-9.7
				C223,116.1,222.8,115.9,222.6,116.1z"/>
		</g>
	</g>
	<g>
		<g>
			<g>
				<path class="st6" d="M415.3,133.2c-0.3-0.9-6.9-21.8,3.1-35.4c5.3-7.3,14.3-11,26.7-11v4.3c-10.9,0-18.7,3.1-23.2,9.3
					c-8.6,11.9-2.5,31.4-2.4,31.6L415.3,133.2z"/>
			</g>
		</g>
		<g>
			<g>
				<path class="st6" d="M474.8,133.2l-4.1-1.3c0.1-0.2,6.2-19.7-2.5-31.6c-4.5-6.1-12.3-9.3-23.2-9.3v-4.3c12.4,0,21.4,3.7,26.7,11
					C481.7,111.4,475.1,132.3,474.8,133.2z"/>
			</g>
		</g>
		<g>
			<g>
				<g>
					<path class="st5" d="M425.2,132.2l4,15.7c0.5,1.8-0.7,3.7-2.5,4.1l-7.6,1.9c-1.8,0.5-3.7-0.7-4.1-2.5l-4-15.7
						c-0.5-1.8,0.7-3.7,2.5-4.1l7.6-1.9C422.9,129.3,424.7,130.4,425.2,132.2z"/>
				</g>
			</g>
			<g>
				<g>
					<g>
						<path class="st4" d="M427.4,126.8l6.3,24.8c0.2,0.6-0.2,1.2-0.8,1.4l-8.3,2.1c-0.6,0.2-1.2-0.2-1.4-0.8l-6.3-24.8
							c-0.2-0.6,0.2-1.2,0.8-1.4l8.3-2.1C426.6,125.9,427.2,126.2,427.4,126.8z"/>
					</g>
				</g>
			</g>
			<g>
				<g>
					<path class="st5" d="M464.9,132.2l-4,15.7c-0.5,1.8,0.7,3.7,2.5,4.1l7.6,1.9c1.8,0.5,3.7-0.7,4.1-2.5l4-15.7
						c0.5-1.8-0.7-3.7-2.5-4.1l-7.6-1.9C467.2,129.3,465.4,130.4,464.9,132.2z"/>
				</g>
			</g>
			<g>
				<g>
					<g>
						<path class="st4" d="M462.7,126.8l-6.3,24.8c-0.2,0.6,0.2,1.2,0.8,1.4l8.3,2.1c0.6,0.2,1.2-0.2,1.4-0.8l6.3-24.8
							c0.2-0.6-0.2-1.2-0.8-1.4l-8.3-2.1C463.5,125.9,462.9,126.2,462.7,126.8z"/>
					</g>
				</g>
			</g>
		</g>
	</g>
	<g>
		<g>
			<g>
				<g>
					<path class="st5" d="M86.4,133.2c1.9-9,2.4-14.8-8.5-16.8c-10.9-2-5.9-16.6,0-19.2c5.4-2.3,10.3,1.3,11.2,2.1
						c-0.9-1.3-1.8-2.6-2.8-3.8c-3,0-6.8-0.3-8-1.7c-2.2-2.4-1.2,3.4-2.7,3.6s-6.2-4.1-2.2-4.1c0.5-1.8-1-4.9,2.7-4.9
						c-4.1-1.2-6.2-3-6.7-4.3c-3-1-6.2-1.6-9.4-1.7C58.6,84,56.7,86.1,55,86c-1.6-0.1-2.3-1.8-2.6-3.4c-3.6,0.5-7,1.5-10.1,2.9
						c-0.5,0.6-0.8,1.3-0.7,2c0.3,2.9,9.7-3.4,10.5,2.3c0.9,5.7-7.2,1.3-10.5,5.7c-3.4,4.4-4.6,9.7-6.3,8.2
						c-1.7-1.5-7.5-0.8-7.5,1.7c0,2.5,4.4,0.2,6.3,8.8c-3.1,3.7-9.2-4.2-9.2-7.8c0-1.3,0-3.1,0-4.9c-3,5.4-4.8,11.7-4.8,18.3
						c0,17.5,12,32.1,28.2,36.3c1.4-1.3,3.7-2.7,7-2.5c4.8,0.3,10.8-0.1,13,2.2c8.5-2.5,15.7-7.9,20.5-15.1
						C86.5,141.4,85.1,139.5,86.4,133.2z M54,136.4c-8.7,9.5-3.2,15.8-7,15.8c-3.7,0-7.3-10.7-7.3-16.6s-5.8-4.8-5.8-12.9
						c0-8.2,5.8-9.5,5.8-9.5c8.6-1.8,11.4,5.3,17.1,8.8C62.5,125.5,62.6,126.9,54,136.4z"/>
				</g>
			</g>
			<g>
				<path class="st4" d="M89.1,99.2c-0.9-0.7-5.9-4.4-11.2-2.1c-5.9,2.5-10.9,17.2,0,19.2c10.9,2,10.4,7.8,8.5,16.8
					c-1.3,6.3,0.1,8.2,2.5,7.5c4-6,6.3-13.2,6.3-20.9C95.2,112.2,93,105.1,89.1,99.2z"/>
			</g>
			<g>
				<path class="st4" d="M76.1,88.3c-3.7,0-2.2,3.1-2.7,4.9c-4,0,0.7,4.3,2.2,4.1s0.5-5.9,2.7-3.6c1.3,1.4,5.1,1.7,8,1.7
					c-4.5-5.2-10.3-9.2-17-11.4C69.8,85.4,72,87.2,76.1,88.3z"/>
			</g>
			<g>
				<path class="st4" d="M55,86c1.8,0.1,3.6-1.9,4.9-3.7c-0.7,0-1.5-0.1-2.2-0.1c-1.8,0-3.6,0.2-5.3,0.4C52.7,84.2,53.4,85.9,55,86z
					"/>
			</g>
			<g>
				<path class="st4" d="M34.1,114.2c-1.9-8.7-6.3-6.3-6.3-8.8c0-2.5,5.8-3.2,7.5-1.7c1.7,1.5,2.9-3.7,6.3-8.2
					c3.4-4.4,11.4,0,10.5-5.7c-0.9-5.7-10.2,0.6-10.5-2.3c-0.1-0.7,0.2-1.4,0.7-2c-7.3,3.3-13.4,8.9-17.3,15.9c0,1.8,0,3.7,0,4.9
					C24.9,109.9,31.1,117.9,34.1,114.2z"/>
			</g>
			<g>
				<g>
					<path class="st4" d="M56.8,122c-5.7-3.6-8.5-10.6-17.1-8.8c0,0-5.8,1.4-5.8,9.5c0,8.2,5.8,7,5.8,12.9s3.6,16.6,7.3,16.6
						c3.7,0-1.7-6.3,7-15.8C62.6,126.9,62.5,125.5,56.8,122z"/>
				</g>
			</g>
			<g>
				<path class="st4" d="M48.3,156.1c3,0.8,6.1,1.2,9.4,1.2c3.7,0,7.3-0.6,10.7-1.6c-2.2-2.3-8.3-1.9-13-2.2
					C52,153.4,49.7,154.8,48.3,156.1z"/>
			</g>
		</g>
		<path class="st9" d="M94.4,116.2H62.1c-2.5,0-4.6,2.1-4.6,4.6v11.8c0,2.5,2.1,4.6,4.6,4.6h2.6v5.9c0,0.7,0.8,1,1.3,0.5l6.5-6.5h22
			c2.6,0,4.6-2.1,4.6-4.6v-11.8C99,118.3,96.9,116.2,94.4,116.2z"/>
	</g>
	<g>
		<g>
			<path class="st8" d="M263.4,67c0-1.7,1.4-3.1,3.1-3.1c1.7,0,3.1,1.4,3.1,3.1v6.5h8.9V67c0-1.7,1.4-3.1,3.1-3.1
				c1.7,0,3.1,1.4,3.1,3.1v18.7c0,1.7-1.4,3.1-3.1,3.1c-1.7,0-3.1-1.4-3.1-3.1v-7.1h-8.9v7.1c0,1.7-1.4,3.1-3.1,3.1
				c-1.7,0-3.1-1.4-3.1-3.1V67z"/>
			<path class="st9" d="M289.6,66.9c0-1.8,1-2.7,2.7-2.7h11.9c1.4,0,2.5,1.1,2.5,2.5c0,1.4-1.1,2.5-2.5,2.5h-8.5v4.7h7
				c1.3,0,2.4,1.1,2.4,2.4c0,1.4-1.1,2.5-2.4,2.5h-7v4.7h9.1c1.4,0,2.5,1.1,2.5,2.5c0,1.4-1.1,2.5-2.5,2.5h-12.5
				c-1.8,0-2.7-1-2.7-2.7V66.9z"/>
			<path class="st9" d="M310.7,67c0-1.7,1.4-3.1,3.1-3.1c1.7,0,3.1,1.4,3.1,3.1v16.4h8.5c1.4,0,2.5,1.1,2.5,2.5
				c0,1.4-1.1,2.5-2.5,2.5h-12c-1.8,0-2.7-1-2.7-2.7V67z"/>
			<path class="st8" d="M331,67c0-1.7,1.4-3.1,3.1-3.1c1.7,0,3.1,1.4,3.1,3.1v16.4h8.5c1.4,0,2.5,1.1,2.5,2.5c0,1.4-1.1,2.5-2.5,2.5
				h-12c-1.8,0-2.7-1-2.7-2.7V67z"/>
			<path class="st8" d="M360.9,63.6c7.5,0,11.9,5,11.9,12.7c0,7.7-4.5,12.7-12,12.7c-7.5,0-11.9-5-11.9-12.7
				C348.9,68.7,353.5,63.6,360.9,63.6z M360.9,84.1c3.1,0,5.5-2.3,5.5-7.8c0-5.5-2.4-7.8-5.5-7.8c-3.1,0-5.5,2.3-5.5,7.8
				C355.5,81.8,357.8,84.1,360.9,84.1z"/>
		</g>
		<g>
			<g>
				<g>
					<g>
						<path class="st6" d="M356.8,122c-1.6,1.6-4.3,1.6-6,0l-27.4-27.4c-1.6-1.6-1.6-4.3,0-6c1.6-1.6,4.3-1.6,6,0l27.4,27.4
							C358.5,117.7,358.5,120.3,356.8,122z"/>
					</g>
				</g>
				<g>
					<g>
						<path class="st4" d="M353.1,112.2l-6.1,6.1c-0.2,0.2-0.7,0.2-0.9,0l-18.9-18.9c-0.2-0.2-0.2-0.7,0-0.9l6.1-6.1
							c0.2-0.2,0.7-0.2,0.9,0l18.9,18.9C353.4,111.5,353.4,111.9,353.1,112.2z"/>
					</g>
				</g>
			</g>
			<g>
				<g>
					<path class="st6" d="M310.2,100.2c-6.4,0-12.7-2.4-17.6-7.3c-4.7-4.7-7.3-10.9-7.3-17.6c0-6.6,2.6-12.9,7.3-17.6
						c9.7-9.7,25.5-9.7,35.2,0l0,0l0,0c4.7,4.7,7.3,10.9,7.3,17.6c0,6.6-2.6,12.9-7.3,17.6C322.9,97.8,316.6,100.2,310.2,100.2z
						 M310.2,56.3c-4.9,0-9.8,1.9-13.5,5.6c-3.6,3.6-5.6,8.4-5.6,13.5c0,5.1,2,9.9,5.6,13.5c7.4,7.4,19.5,7.4,26.9,0
						c3.6-3.6,5.6-8.4,5.6-13.5c0-5.1-2-9.9-5.6-13.5l0,0C320,58.2,315.1,56.3,310.2,56.3z"/>
				</g>
			</g>
		</g>
	</g>
	<g>
		<path class="st6" d="M320.4,372h-44c-5.1,0-9.3,4.2-9.3,9.3v13.1c0,5.1,4.2,9.3,9.3,9.3h1.5v8.7c0,1.1,1.3,1.6,2.1,0.9l9.6-9.6
			h30.8c5.1,0,9.3-4.2,9.3-9.3v-13.1C329.8,376.2,325.6,372,320.4,372z"/>
		<path class="st8" d="M355,406.8h-44c-5.1,0-9.3,4.2-9.3,9.3v13.1c0,5.1,4.2,9.3,9.3,9.3h30.8l9.6,9.6c0.8,0.8,2.1,0.2,2.1-0.9
			v-8.7h1.5c5.1,0,9.3-4.2,9.3-9.3v-13.1C364.4,411,360.2,406.8,355,406.8z"/>
		<g>
			<circle class="st11" cx="287.1" cy="387.9" r="4"/>
			<circle class="st11" cx="298.4" cy="387.9" r="4"/>
			<circle class="st11" cx="309.7" cy="387.9" r="4"/>
		</g>
		<g>
			<circle class="st11" cx="321.7" cy="422.3" r="4"/>
			<circle class="st11" cx="333" cy="422.3" r="4"/>
			<path class="st11" d="M348.4,422.3c0,2.2-1.8,4-4,4c-2.2,0-4-1.8-4-4c0-2.2,1.8-4,4-4C346.6,418.2,348.4,420,348.4,422.3z"/>
		</g>
	</g>
	<g class="st12">
		<path class="st3" d="M360.9,84.1c3.1,0,5.5-2.3,5.5-7.8c0-5.5-2.4-7.8-5.5-7.8c-3.1,0-5.5,2.3-5.5,7.8
			C355.5,81.8,357.8,84.1,360.9,84.1z"/>
		<path class="st3" d="M323.5,88.6c0.1-0.1,0.1-0.1,0.2-0.1h-10.2c-1.8,0-2.7-1-2.7-2.7V67c0-1.7,1.4-3.1,3.1-3.1s3.1,1.4,3.1,3.1
			v16.4h8.5c0.6,0,1.2,0.3,1.7,0.7c1.4-2.7,2.1-5.6,2.1-8.7c0-5.1-2-9.9-5.6-13.5c-3.7-3.7-8.6-5.6-13.5-5.6c0,0,0,0,0,0v38.1
			c4.5,0,9-1.6,12.6-4.8C323,89.2,323.2,88.9,323.5,88.6z"/>
		<path class="st3" d="M296.7,61.9c-0.7,0.7-1.3,1.5-1.9,2.3h9.4c1.4,0,2.5,1.1,2.5,2.5c0,1.4-1.1,2.5-2.5,2.5h-8.5v4.7h7
			c1.3,0,2.4,1.1,2.4,2.4c0,1.4-1.1,2.5-2.4,2.5h-7v4.7h9.1c1.4,0,2.5,1.1,2.5,2.5c0,1.4-1.1,2.5-2.5,2.5h-8.4
			c0.1,0.1,0.2,0.2,0.3,0.3c3.7,3.7,8.6,5.5,13.5,5.5V56.3C305.3,56.3,300.4,58.1,296.7,61.9z"/>
		<path class="st3" d="M218.8,406.1l-2,6.3h7.3l-2-6.3c-0.6-2-1-3.4-1.4-5.2h-0.5C219.8,402.7,219.4,404.1,218.8,406.1z"/>
	</g>
	<rect x="65.9" y="219.5" class="st3" width="357.6" height="60"/>
</g>
<g id="DESIGNED_BY_FREEPIK">
	<g>
		<path class="st13" d="M72.8,242.4h4.9c2.7,0,5.1,0.9,5.1,3.7c0,1.9-1,2.9-2.6,3.4v0c1.7,0.3,3.2,1.4,3.2,3.5c0,3-2.4,4.1-5.7,4.1
			h-4.8V242.4z M77.3,248.5c1.7,0,2.4-0.6,2.4-1.9c0-1.2-0.8-1.8-2.3-1.8h-1.5v3.7H77.3z M77.5,254.7c1.8,0,2.7-0.5,2.7-2
			c0-1.4-0.8-2.1-2.6-2.1h-1.8v4H77.5z"/>
		<path class="st13" d="M86.1,242.4h3.1v5.2h1.9c3.2,0,5.6,1.5,5.6,4.6c0,3.2-2.3,4.8-5.9,4.8h-4.7V242.4z M90.7,254.7
			c2,0,2.8-0.8,2.8-2.4c0-1.5-0.8-2.3-2.7-2.3h-1.7v4.7H90.7z M99,242.4h3.1v14.7H99V242.4z"/>
		<path class="st13" d="M104.8,249.7c0-4,2.6-7.6,7.6-7.6c1.9,0,3.3,0.4,4.4,1.2l-1.4,2.3c-0.8-0.5-1.7-0.9-3.1-0.9
			c-2.8,0-4.2,2.2-4.2,4.9c0,2.8,1.4,5.1,4.3,5.1c1.6,0,2.6-0.5,3.3-1.1l1.3,2.2c-0.7,0.7-2.5,1.5-4.6,1.5
			C107.4,257.3,104.8,253.7,104.8,249.7z"/>
		<path class="st13" d="M119.3,242.4h3.1v12.1h5v-12.1h3.1v12.1h5v-12.1h3.1v14.7h-19.2V242.4z"/>
		<path class="st13" d="M146.4,242.4h3l5.7,14.7h-3.4l-1-2.8h-5.9l-1,2.8h-3.1L146.4,242.4z M149.9,251.8l-1.3-3.5
			c-0.5-1.3-0.7-2.2-0.8-2.5h0c-0.1,0.4-0.4,1.3-0.8,2.5l-1.3,3.5H149.9z"/>
		<path class="st13" d="M156.3,254.6h0.2c1,0,1.5-0.8,2.5-2.5c0.4-0.6,0.9-1.3,1.4-1.5v0c-1.8-0.2-3.4-1.6-3.4-3.9
			c0-2.7,2-4.2,5.4-4.2h4.9v14.7h-3.1V251H164c-0.8,0.2-1.3,1.2-2.4,3c-1.4,2.4-2.2,3.1-3.9,3.1h-1.3V254.6z M164.3,248.9v-4h-1.6
			c-1.8,0-2.6,0.7-2.6,2c0,1.3,0.8,2,2.4,2H164.3z"/>
		<path class="st13" d="M175.3,242.4h3.1v12.1h5v-12.1h3.1v12.1h5v-12.1h3.1v14.7h-19.2V242.4z"/>
		<path class="st13" d="M198.3,242.4h3.1v6.1h1l4.3-6.1h3.3l-5.1,6.8c0.5,0.5,1,1.2,1.7,2.3c1.3,2.2,1.8,3.1,2.8,3.1h0.2l0,2.5h-1.3
			c-1.7,0-2.5-0.8-3.9-3.1c-1.2-1.9-1.7-3-2.6-3h-0.6v6.2h-3.1V242.4z"/>
		<path class="st13" d="M210.9,249.8c0-4,2.7-7.6,7.6-7.6s7.5,3.6,7.5,7.5c0,4-2.6,7.7-7.5,7.7S210.9,253.7,210.9,249.8z
			 M222.7,249.8c0-2.7-1.3-5.1-4.2-5.1c-2.9,0-4.3,2.3-4.3,5c0,2.8,1.3,5.1,4.3,5.1C221.4,254.8,222.7,252.5,222.7,249.8z"/>
		<path class="st13" d="M227.2,254.9c1.7-0.2,2.2-2,2.4-5.2l0.6-7.3h9.9v14.7h-3.1V245h-4.1l-0.4,5.5c-0.4,4.8-1.9,6.8-5,6.8
			L227.2,254.9z"/>
		<path class="st13" d="M247.9,242.4h3l5.7,14.7h-3.4l-1-2.8h-5.9l-1,2.8h-3.1L247.9,242.4z M251.4,251.8l-1.3-3.5
			c-0.5-1.3-0.7-2.2-0.8-2.5h0c-0.1,0.4-0.4,1.3-0.8,2.5l-1.3,3.5H251.4z"/>
		<path class="st13" d="M263,242.4h12.3v14.7h-3.1V245h-6.1v12.1H263V242.4z"/>
		<path class="st13" d="M278.9,242.4h8.4v2.6H282v3.3h4.8v2.4H282v3.8h5.5v2.6h-8.6V242.4z"/>
		<path class="st13" d="M290.6,242.4h4.8c3.2,0,5.6,1.5,5.6,4.6c0,3.2-2.3,4.8-5.9,4.8h-1.4v5.2h-3.1V242.4z M295.1,249.5
			c2,0,2.8-0.8,2.8-2.4c0-1.5-0.8-2.3-2.7-2.3h-1.5v4.7H295.1z"/>
		<path class="st13" d="M303.6,242.4h8.4v2.6h-5.4v3.3h4.8v2.4h-4.8v3.8h5.5v2.6h-8.6V242.4z"/>
		<path class="st13" d="M315.3,242.4h4.9c2.7,0,5.1,0.9,5.1,3.7c0,1.9-1,2.9-2.6,3.4v0c1.7,0.3,3.2,1.4,3.2,3.5c0,3-2.4,4.1-5.7,4.1
			h-4.8V242.4z M319.8,248.5c1.7,0,2.4-0.6,2.4-1.9c0-1.2-0.8-1.8-2.3-1.8h-1.5v3.7H319.8z M320,254.7c1.8,0,2.7-0.5,2.7-2
			c0-1.4-0.8-2.1-2.6-2.1h-1.8v4H320z"/>
		<path class="st13" d="M327.7,249.8c0-4,2.7-7.6,7.6-7.6c4.9,0,7.5,3.6,7.5,7.5c0,4-2.6,7.7-7.5,7.7
			C330.4,257.3,327.7,253.7,327.7,249.8z M339.5,249.8c0-2.7-1.3-5.1-4.2-5.1c-2.9,0-4.3,2.3-4.3,5c0,2.8,1.3,5.1,4.3,5.1
			C338.2,254.8,339.5,252.5,339.5,249.8z"/>
		<path class="st13" d="M343.8,254.5h1.2c0.8-0.9,1.1-2.2,1.5-4.8l1.1-7.3h9.4v12.1h1.5l-0.4,5.8h-2l-0.2-3.2h-9.3l-0.2,3.2h-2
			L343.8,254.5z M353.8,254.5V245h-3.6l-0.7,5.3c-0.3,2.1-0.8,3.6-1.4,4.2H353.8z"/>
		<path class="st13" d="M365.6,242.4h3l5.7,14.7H371l-1-2.8h-5.9l-1,2.8H360L365.6,242.4z M369.1,251.8l-1.3-3.5
			c-0.5-1.3-0.7-2.2-0.8-2.5h0c-0.1,0.4-0.4,1.3-0.8,2.5l-1.3,3.5H369.1z"/>
		<path class="st13" d="M381.9,242.4h3l2.9,9c0.4,1.1,0.6,2.1,0.7,2.5h0c0.1-0.4,0.4-1.5,0.8-2.5l3-9h3l2,14.7h-3.2l-0.9-7.6
			c-0.1-1.1-0.2-1.8-0.2-2.1h0c-0.1,0.3-0.3,1.1-0.6,2.1l-2.5,7.6h-3.1l-2.5-7.6c-0.3-0.9-0.5-1.8-0.6-2.1h0c0,0.3-0.1,1.2-0.2,2.2
			l-0.9,7.5h-2.8L381.9,242.4z"/>
		<path class="st13" d="M400.2,242.4h8.6v2.5h-5.5v12.1h-3.1V242.4z"/>
		<path class="st13" d="M410.6,257l0.4-2.3c0.2,0.1,0.5,0.1,0.9,0.1c1.1,0,1.7-0.7,2.2-1.9l0.2-0.5l-4.4-9.9h3l3,6.8l3-6.8h3l-5,11
			c-1.2,2.6-2.4,3.7-4.8,3.7C411.4,257.2,410.9,257,410.6,257z"/>
	</g>
</g>
</svg>
