<svg xml:space="preserve" width="4266.67" height="2666.67" xmlns="http://www.w3.org/2000/svg">
  <defs>
    <clipPath clipPathUnits="userSpaceOnUse" id="a">
      <path d="M11623.4 8610.5c-7.7 0-15.5.1-23.3.3-192.7 4.4-384.6 63.4-550.8 177.8a1016.7 1016.7 0 0 0-120.9 97.6c-408.1 384-427.7 1026.1-43.7 1434.3 14.2 15 28.7 29.6 43.5 43.5 194.3 183.3 444.7 275.9 695.6 275.9 58.2 0 116.3-5 173.8-15 144.9-25 285.5-81.7 410.9-170.3 38.4-27.1 75.3-57.3 110.5-90.4.2-.1.4-.3.5-.5v-1334l122.6-4.5c-24.2-32.9-50.7-64.7-79.4-95.2-141.4-150.3-317.6-247.8-504.4-292.1-77-18.2-155.9-27.4-234.9-27.4"/>
    </clipPath>
  </defs>
  <path d="M16300 0H0v10187.5h16300V0" style="fill:#fff;fill-opacity:1;fill-rule:nonzero;stroke:none" transform="matrix(.26176 0 0 -.26176 0 2666.67)"/>
  <path d="M1914.66 932.97s-1529.77 431.23-828.3 2406.06c701.46 1974.83 2035.83 1122.87 1650.26 2849.99-508.45 2277.44 1644.6 3826.18 4011.61 3195.4 2367.02-630.81 1732.62-1331.9 4514.27-625.85 3391.1 860.77 3677.1-2720.39 2890.6-3909.93-786.5-1189.58 2146.9-1361.06 935.3-3915.67H1914.66" style="fill:#fafafa;fill-opacity:1;fill-rule:nonzero;stroke:none" transform="matrix(.25923 0 0 -.25923 0 2666.67)"/>
  <path d="M15292.8 6565.77s475.4 969.36 741.3 883.33c265.9-86.03-741.3-883.33-741.3-883.33" style="fill:#feebf1;fill-opacity:1;fill-rule:nonzero;stroke:none" transform="matrix(.21372 0 0 -.21372 0 2666.67)"/>
  <path d="M14356.5 5883.64s1093.6 1071.9 1518.6 876.43c424.9-195.48-259.1-405.11-520-462.21-260.9-57.1-998.6-414.22-998.6-414.22" style="fill:#feebf1;fill-opacity:1;fill-rule:nonzero;stroke:none" transform="matrix(.22257 0 0 -.22257 0 2666.67)"/>
  <path d="M15935.9 1717.82c364.1 239.21 18.2 872.64 18.2 872.64s-849.4 228.66-909.7 356.37c-60.3 127.75 764.4-53.67 764.4-53.67-59.6 266.24-591.6 820.22-591.6 820.22s-802.2-309.01-829.2-170.37c-27 138.65 724.3 237.43 724.3 237.43-156.8 225.14-524.6 362.78-524.6 362.78-570 135.8-715-603.17-715-603.17s-280.3-101.12-662.3-32.72c0 0-72.9 19.82-188 26.52l22.4-68.12a682 682 0 0 0 58.9-1.12l.3-.05.9-.06c12-1.22 29.2-3.01 50.2-5.36v-.05h.1c47.6-7.43 82.3-11.62 106.9-13.4h.2c148.3-20.44 344.3-55.62 398.8-104.09 0 0 8.2 11 26.5 24.85a5289 5289 0 0 0-26.5-24.85c-211.5-198.39-62.1-794.8 110.9-1097.62 173.1-302.86 218.2-131.33 309.5 92.19 91.4 223.58-67.9 577.04-45.1 704.35 22.8 127.31 133-11.73 187.2-233.63 54.4-221.9-126.6-401.09-45.3-761.69 81.3-360.55 826.3-411.36 826.3-411.36-154.1 216.87-162.8 693.46-85 737.34 77.8 43.95 279.6-599.81 337.3-691.5 57.8-91.74 314.9-201.08 679 38.14" style="fill:#fef1f5;fill-opacity:1;fill-rule:nonzero;stroke:none" transform="matrix(.23878 0 0 -.23878 0 2666.67)"/>
  <path d="M7944.48 8783.7s-961.15 1959.7-1498.71 1785.8c-537.58-174 1498.71-1785.8 1498.71-1785.8M8635.71 7897s-2302.42 2256.8-3197.12 1845.3c-894.71-411.6 545.37-852.9 1094.64-973.1C7082.5 8649 8635.71 7897 8635.71 7897" style="fill:#feebf1;fill-opacity:1;fill-rule:nonzero;stroke:none" transform="matrix(.13333 0 0 -.13333 0 2666.67)"/>
  <path d="M4294.76 6601.4c11.83 685.7 1145.58 758.5 1145.58 758.5s1018.95-937.6 1239.65-910.3c220.69 27.2-714.65 971.7-714.65 971.7 404.41 144.8 1589.03-96.7 1589.03-96.7s263.88-1327.4 471.08-1246.6c207.21 80.7-293.61 1163.3-293.61 1163.3 431.52-19.1 924.06-392.6 924.06-392.6 660.38-644.1-200.76-1458.8-200.76-1458.8s101.38-458 513.81-908.6h.01s87.68-80.3 193.41-227.7L9053 4226a1108.6 1108.6 0 0 1-51.11 77.4l-.33.4-.78 1.1a6543.5 6543.5 0 0 1-49.4 62.2l-.08.1-.11.1c-49.92 57-84.69 99.6-107.77 130.9l-.19.3c-151.94 180.1-1479.16-308.5-2027.66-333.1-548.5-24.7-358.3 179.8-137.75 489.4 220.56 309.6 824.8 395.1 975.01 532.6 150.21 137.5-127.48 167-468.4 52.5-340.91-114.5-427-506.1-975.12-701.3-548.12-195.2-1242.64 753.2-1242.64 753.2 418.16-22.5 1059.5 366.9 1052.5 507.4-7.01 140.5-1033.27-132.8-1203.86-133.2-170.58-.3-532.39 249.7-520.55 935.4" style="fill:#fef1f5;fill-opacity:1;fill-rule:nonzero;stroke:none" transform="matrix(.13333 0 0 -.13333 0 2666.67)"/>
  <path d="M15821.9 1863.3H7725.82c-175.87 0-318.46 142.9-318.46 319.3v10816.3c0 181.1 149.97 326 330.4 319.2l8402.54-387.5v-10748c0-176.4-142.6-319.3-318.4-319.3" style="fill:#f57d67;fill-opacity:1;fill-rule:nonzero;stroke:none" transform="matrix(.13333 0 0 -.13333 0 2666.67)"/>
  <path d="M10785.8 1221.06h5305.5c115.3 0 208.7 93.64 208.7 209.24v7088.19c0 118.65-98.3 213.57-216.5 209.12l-5506.4-253.95V1430.3c0-115.6 93.4-209.24 208.7-209.24" style="fill:#f57f6e;fill-opacity:1;fill-rule:nonzero;stroke:none" transform="matrix(.20346 0 0 -.20346 0 2666.67)"/>
  <path d="m8020.42 12848.9-262.5-213.3c-37.09-30.1-58.71-75.9-58.71-124.4V2025c0-87.8 69.52-158.9 155.27-158.9h653.57c89.45 0 160.41 77.1 154.98 168.5l-642.61 10814.3" style="fill:#f1501c;fill-opacity:1;fill-rule:nonzero;stroke:none" transform="matrix(.13333 0 0 -.13333 0 2666.67)"/>
  <path d="m16087.1 8514.57 173.9-141.32c24.6-19.97 39-50.33 39-82.45V1341.9c0-58.18-46.1-105.29-102.9-105.29H15764c-59.3 0-106.3 51.09-102.7 111.66l425.8 7166.3" style="fill:#f1501c;fill-opacity:1;fill-rule:nonzero;stroke:none" transform="matrix(.2012 0 0 -.2012 0 2666.67)"/>
  <path d="M15840.7 1863.3H8223.34c-165.48 0-299.63 138.1-299.63 308.5V12622c0 174.9 141.09 314.9 310.86 308.3l6648.93-256.9c701.6-27.1 1256.8-620.7 1256.8-1343.6v-9158c0-170.4-134.1-308.5-299.6-308.5" style="fill:#fef7f2;fill-opacity:1;fill-rule:nonzero;stroke:none" transform="matrix(.13333 0 0 -.13333 0 2666.67)"/>
  <path d="M10985.4 1246.95H16116c101.6 0 184 84.79 184 189.45v7028.08c0 107.43-86.7 193.38-190.9 189.35L11548 8477.56c-416.8-16.11-746.7-368.72-746.7-798.21V1436.4c0-104.66 82.4-189.45 184.1-189.45" style="fill:#fef7f2;fill-opacity:1;fill-rule:nonzero;stroke:none" transform="matrix(.19924 0 0 -.19924 0 2666.67)"/>
  <path d="M16161 4065h-41.3v6785.5h41.3V4065" style="fill:#fcd8bc;fill-opacity:1;fill-rule:nonzero;stroke:none" transform="matrix(.13333 0 0 -.13333 0 2666.67)"/>
  <path d="M16286.1 9328.05c12.4-14.38 13.9-30.35 7.6-47.36l-.2-.23c-11.6-31.45-49.5-66.4-93.6-101.25-5.6-4.48-10.6-8.56-15-12.33-1.1-.98-2.2-1.98-3.4-2.97-.9-.77-1.7-1.58-2.6-2.31-41-37.35-25.7-46.08-99.6-121.94-84.3-86.45-141.9-87.6-158.2-79.56-13.8 6.85 14.7 52.81 46.2 104.47 1.6 2.49 3 5.02 4.7 7.54 4.2 6.86 8.3 13.84 12.5 20.74 37 62.18 27.8 91.54 19.8 184.53-6.5 75.56-114.5 422.68-114.5 422.68l160.5 26.48s46.4-276.13 99.2-318.98c28.3-22.84 60.1-23.35 87.4-40.32 1.8-1.18 3.8-2.39 5.6-3.63 15.5-10.42 31.2-21.15 43.6-35.56" style="fill:#f89d63;fill-opacity:1;fill-rule:nonzero;stroke:none" transform="matrix(.16478 0 0 -.16478 0 2666.67)"/>
  <path d="M16286.1 9328.05c12.4-14.38 13.9-30.35 7.6-47.36l-.2-.23c-14.1-31.41-51.1-66.18-93.7-100.93-5.6-4.56-10.5-8.74-14.9-12.65-1.1-.98-2.2-1.98-3.4-2.97-.9-.77-1.7-1.58-2.6-2.31-41-37.35-25.7-46.08-99.6-121.94-84.3-86.45-141.9-87.6-158.2-79.56-13.8 6.85 14.7 52.81 46.2 104.47 16.4 5.85 92.2 36.05 149.9 108.82 50.8 63.92 85.1 146.26 119.7 193.85 1.8-1.18 3.8-2.39 5.6-3.63 15.5-10.42 31.2-21.15 43.6-35.56" style="fill:#233664;fill-opacity:1;fill-rule:nonzero;stroke:none" transform="matrix(.16478 0 0 -.16478 0 2666.67)"/>
  <path d="M16159.3 10170.5c-11-53.2-87-43.8-171.8-22.4-84.7 21.3-64.7-3.5-185.4 10.7-120.8 14.3-157.1 59.6-160.7 77.6-3.2 16 56.5 21.2 120.7 28.1 8.1.8 16.2 1.8 24.3 2.7 72.3 8.6 125.6 54.9 191.6 92.7 62.5 35.9 156.4 183.2 156.4 183.2l165.6-14.4s-87.9-131.4-121.9-188.6c-20.1-33.7-19.4-78.4-17.1-112.9 1.1-18.7 2.3-37.9-1.7-56.7" style="fill:#f89d63;fill-opacity:1;fill-rule:nonzero;stroke:none" transform="matrix(.1529 0 0 -.1529 0 2666.67)"/>
  <path d="M16122.8 10233.9c-85.5 21.5-65.3-3.5-187.1 10.9-121.8 14.3-158.3 60-161.9 78.2-3.3 16.1 56.9 21.3 121.7 28.3l.5-1.2s72.7-52.4 174.2-55.5c82.7-2.6 170.4 20.5 227.5 19.1 1.2-18.9 2.3-38.2-1.7-57.1-11.1-53.7-87.7-44.2-173.2-22.7" style="fill:#233664;fill-opacity:1;fill-rule:nonzero;stroke:none" transform="matrix(.15162 0 0 -.15162 0 2666.67)"/>
  <path d="M16300 9688.36s-10.8-7.04-27-15.98c-19.3-10.58-46.1-23.84-70.9-30.81-26.4-7.42-53.5-9.32-72.9-9.5-16.9-.14-28 1-28 1l-186.3 512.43-33.7 92.6-35.8 98.6-12.5 34.3-60.6 166.9s148.2 380.2 299.4 198.9c18.4-22 35.7-54.2 51.8-93.6 11.1-26.9 21.5-57.2 31.5-90.1 7.5-24.6 14.8-50.7 21.7-77.8 18.8-73.8 35.5-155.3 50.1-237.2 48.6-273.31 73.2-549.74 73.2-549.74" style="fill:#233664;fill-opacity:1;fill-rule:nonzero;stroke:none" transform="matrix(.16288 0 0 -.16288 0 2666.67)"/>
  <path d="m16234 9847.82-708.9-29.84c-155.3 32.12-286.3 114.31-375.4 158.38-7.4 3.7-14.3 7.15-20.7 10.3-30.5 15.14-51.4 25.44-60 27.14-53.9 11.3-81.6-76.58-127.3-184.67-9.4-22.01-19.4-44.8-30.5-67.82-8-16.41-23-37.65-43.2-62.22l-11.7-13.92c-156.9-183.23-560.8-524.46-560.8-524.46s-4.8 0-12.5.17c-24.6.48-79.7 2.74-106 12.85-15.2 5.84-26.5 12.32-34.4 17.85-11.6 8.27-16.4 14.69-16.4 14.69s483.3 944.93 733.5 1202.33v.1c3.6 3.7 7.2 7.3 10.8 10.7 27.3 26.7 51.5 44.3 71.7 50.7 85.3 26.8 636.8-3.1 636.8-3.1l17.6 28.6 29.5 2.1 5 .3 24.5 1.8h.1l34 2.4 50.4 3.6 136.2 9.7 21.9 1.5 252 17.9s11.5-25.9 27.1-68.9c6-16.7 12.6-36.1 19.5-57.5 45-140.7 103.2-393.8 37.2-560.68" style="fill:#2c4394;fill-opacity:1;fill-rule:nonzero;stroke:none" transform="matrix(.17359 0 0 -.17359 0 2666.67)"/>
  <path d="M16086.4 11258.1c-123.5 105.5-211.7 131.6-224 298.6-6.6 90.6-128.3 390.5-334.1 364.3-17.3-2.3-34.6-3.8-51.9-3.1-24.1 1-63.8-2.2-104.7-26.2-99.1-58.1-281.6-594.6-158.5-783.1 22.1-33.9 53.9-56.5 98.1-63.1 5.2-2.9 10.4-5.9 15.8-8.9h.1c22.2-12.5 46.5-26.1 72.2-40.7 145.5-82 335.9-190.5 433.5-245.3 6-3.3 11.5-6.5 16.7-9.4 11.3-6.3 20.8-11.6 28.4-15.7 11.3-6.3 18.1-9.8 18.6-9.8 0 0 25.1-9.7 60.3-17 49-10.2 117.8-15.9 165.6 15.4a260.1 260.1 0 0 1 52.4 45.4c99 110.7 125.1 316.4-88.5 498.6" style="fill:#233664;fill-opacity:1;fill-rule:nonzero;stroke:none" transform="matrix(.17692 0 0 -.17692 0 2666.67)"/>
  <path d="M16024.4 11531c-1-.6 98.2-35.2 164.9-6.2 62.6 27.1 110.7 129.7 109.8 129.7-28.4 1.5-59.5 26.6-82.4 189.9l-12.1-4.2-204.1-71.9s14.3-65.4 23.4-127.7c7.6-52.2 11.6-102.3.5-109.6" style="fill:#f89d63;fill-opacity:1;fill-rule:nonzero;stroke:none" transform="matrix(.17085 0 0 -.17085 0 2666.67)"/>
  <path d="M16094.7 11837.7s8.7-46.2 20.9-112.1c117.8 20.4 167.4 120.8 184.4 184.3l-205.3-72.2" style="fill:#f6823f;fill-opacity:1;fill-rule:nonzero;stroke:none" transform="matrix(.16984 0 0 -.16984 0 2666.67)"/>
  <path d="M16020.3 11740.8s279.7 35.6 254.9 209.4c-24.8 173.9-5.4 295.5-185 280.2-179.7-15.3-204.8-86.6-210.7-146.7-5.8-60 67.4-347.7 140.8-342.9" style="fill:#f89d63;fill-opacity:1;fill-rule:nonzero;stroke:none" transform="matrix(.1703 0 0 -.1703 0 2666.67)"/>
  <path d="M15834.3 12135.9s177.2-154.9 298.4-168.1c121.1-13.3 167.3 25.3 167.3 25.3s-71 59.9-113.4 156a85.13 85.13 0 0 1-69.9 50.7c-86.6 8.1-250.6 12.7-282.4-63.9" style="fill:#233664;fill-opacity:1;fill-rule:nonzero;stroke:none" transform="matrix(.1709 0 0 -.1709 0 2666.67)"/>
  <path d="M16300 12418.7s-61.4-58.6-80.9-102.1c-18.9-42.1-25.1-142.9-10.6-183.1 0 0-93.8 185.3-39.3 274.7 57.7 94.7 130.8 10.5 130.8 10.5" style="fill:#233664;fill-opacity:1;fill-rule:nonzero;stroke:none" transform="matrix(.1672 0 0 -.1672 0 2666.67)"/>
  <path d="M15535.4 10945.1c4.4-555-.9-439 59.5-492.1 14.5-12.7 55.6-20.6 109.7-24.5 170-12.5 469.4 13.4 481 44.7 40 108.6 12.5 142.6 46.4 308.9 3.6 17.7 7.9 36.9 13 57.7 28.1 114.2 55 153-40.6 337.5-86.6 167.1-177 302.9-185.2 298-232.7-135.9-250.6-20.1-250.6-20.1s-235.4-239.4-233.2-510.1" style="fill:#f57b68;fill-opacity:1;fill-rule:nonzero;stroke:none" transform="matrix(.17361 0 0 -.17361 0 2666.67)"/>
  <path d="M16300 9688.36s-10.8-7.04-27-15.98c-19.3-10.58-46.1-23.84-70.9-30.81-26.4-7.42-53.5-9.32-72.9-9.5-16.9-.14-28 1-28 1l-186.3 512.43 54.6 92.6 139.7 237.2 45.8 77.8c7.5-24.6 14.8-50.7 21.7-77.8 18.8-73.8 35.5-155.3 50.1-237.2 48.6-273.31 73.2-549.74 73.2-549.74" style="fill:#2c4394;fill-opacity:1;fill-rule:nonzero;stroke:none" transform="matrix(.16288 0 0 -.16288 0 2666.67)"/>
  <path d="M16300 11841.2s-246.8-40-276.5-146l-204.4-728.6s125.1-23.4 183.4 34.1c58.3 57.5 205.3 535.6 205.3 535.6l92.2 304.9" style="fill:#f57b68;fill-opacity:1;fill-rule:nonzero;stroke:none" transform="matrix(.16795 0 0 -.16795 0 2666.67)"/>
  <path d="M15770.3 10472.1c170.8-12.5 471.4 13.5 483 45 40.2 109 12.6 143.1 46.7 310.2l-80.8 232.6s11.8-258.5-64.9-325.9c-76.6-67.5-312.9-129-350.4-185.6-18.1-27.1-30-54.4-33.6-76.3" style="fill:#2b3347;fill-opacity:1;fill-rule:nonzero;stroke:none" transform="matrix(.17289 0 0 -.17289 0 2666.67)"/>
  <path d="M16300 10800.2s-171.8 39.5-199.7 24.4c-27.8-15-96.1-70.2-104.8-89.5-8.5-19.3 62 14.3 84.9 20.2 14.8 3.9 53.7-9.9 73-16.5 81-27.6 130.9-14 130.9-14l15.7 75.4" style="fill:#f89d63;fill-opacity:1;fill-rule:nonzero;stroke:none" transform="matrix(.16935 0 0 -.16935 0 2666.67)"/>
  <path d="M15688.3 11238.3s220.6-15.2 296.3-122.3c106.5-150.8 315.4-791.7 192.5-876.1-138.5-95.1-627-20.7-627-20.7s-15.8 76.2 7.1 112.8c22.9 36.7 391.4 93.5 408.5 110.4 17.1 16.8-210 332.7-209.6 383.6.3 51-67.8 412.3-67.8 412.3" style="fill:#f57b68;fill-opacity:1;fill-rule:nonzero;stroke:none" transform="matrix(.17727 0 0 -.17727 0 2666.67)"/>
  <path d="M16300 10916.3s-36.8-46.8-48.9-52.4c-12-5.5-19.8-4.1-19.8-4.1l25 44.2 43.7 12.3" style="fill:#f89d63;fill-opacity:1;fill-rule:nonzero;stroke:none" transform="matrix(.16719 0 0 -.16719 0 2666.67)"/>
  <path d="m16300 10958.9-106.5-50.8s4.5-7.4 17.5-6.9c13.1.5 46.1 12.3 46.1 12.3l42.9 45.4" style="fill:#f89d63;fill-opacity:1;fill-rule:nonzero;stroke:none" transform="matrix(.16728 0 0 -.16728 0 2666.67)"/>
  <path d="m16300 10831.5-841.4 6-248.6 631.1 840.1-5.9 249.9-631.2" style="fill:#d4d4d2;fill-opacity:1;fill-rule:nonzero;stroke:none" transform="matrix(.16692 0 0 -.16692 0 2666.67)"/>
  <path d="m15206.3 10691.5 1093.7-7.7-.2-24.1-1083.9 7.6-9.6 24.2" style="fill:#f36318;fill-opacity:1;fill-rule:nonzero;stroke:none" transform="matrix(.16958 0 0 -.16958 0 2666.67)"/>
  <path d="M16210.7 11533.1c-6.4 22.9 7 41.4 29.9 41.2 22.9-.2 46.6-18.9 53-41.8 6.4-22.9-7-41.4-29.9-41.2-22.9.1-46.6 18.8-53 41.8" style="fill:#fff;fill-opacity:1;fill-rule:nonzero;stroke:none" transform="matrix(.16139 0 0 -.16139 0 2666.67)"/>
  <path d="M9009.36 1870.2h5622.44c391.1 0 708.1 317.1 708.1 708.1v29.6c0 391-317 708.1-708.1 708.1H9009.36c-391.08 0-708.11-317.1-708.11-708.1v-29.6c0-391 317.03-708.1 708.11-708.1" style="fill:#2c4394;fill-opacity:1;fill-rule:nonzero;stroke:none" transform="matrix(.13333 0 0 -.13333 0 2666.67)"/>
  <path d="m12086.9 2760.52-5-313.08c-4.4-277 216.6-505.24 493.6-509.6l3703.4-59.17 1.1 62.34c-207.8 108.12-348.1 326.85-344.1 576.9l1.8 110.21c3.9 250.04 151.1 464.21 362.2 565.6l.1 1.29-3703.5 59.16c-277 4.37-505.2-216.64-509.6-493.65" style="fill:#fcd8bc;fill-opacity:1;fill-rule:nonzero;stroke:none" transform="matrix(.13453 0 0 -.13453 0 2666.67)"/>
  <path d="M16241.8 1838.32h-3869.7c-249.5 0-445.1 312.38-445.1 711.07 0 398.68 195.6 710.96 445.1 710.96h3869.7c32.2 0 58.2-26.04 58.2-58.19 0-32.14-26-58.19-58.2-58.19h-3869.7c-178.2 0-328.8-272.28-328.8-594.58 0-322.32 150.6-594.69 328.8-594.69h3869.7c32.2 0 58.2-26.05 58.2-58.19s-26-58.19-58.2-58.19" style="fill:#263872;fill-opacity:1;fill-rule:nonzero;stroke:none" transform="matrix(.13565 0 0 -.13565 0 2666.67)"/>
  <path d="M16147.9 2922.4h-3385.5v9.4h3385.5v-9.4M16099.8 2791.2h-1285.2v8.5h1285.2v-8.5M16099.8 2342.2h-2242.1v8.6h2242.1v-8.6" style="fill:#eeb991;fill-opacity:1;fill-rule:nonzero;stroke:none" transform="matrix(.13333 0 0 -.13333 0 2666.67)"/>
  <path d="M13182.8 2927.1s173.7-72.7 194.4-318.1c20.6-245.3 0-376.1 0-376.1l-209.7 99.8-211.7-99.8v383.6s-7.8 310.6-296.7 310.6h523.7" style="fill:#f36545;fill-opacity:1;fill-rule:nonzero;stroke:none" transform="matrix(.13333 0 0 -.13333 0 2666.67)"/>
  <path d="M8558.59 3316h4325.91c256 0 463.5 207.5 463.5 463.5v161.2c0 256-207.5 463.5-463.5 463.5H8558.59c-256 0-463.53-207.5-463.53-463.5v-161.2c0-256 207.53-463.5 463.53-463.5" style="fill:#7095d5;fill-opacity:1;fill-rule:nonzero;stroke:none" transform="matrix(.13333 0 0 -.13333 0 2666.67)"/>
  <path d="m11001.6 4005.4-3.8-237.5c-3.3-210 163.1-383.1 371.7-386.5l2788.8-44.8.8 47.3c-156.5 81.9-262.1 247.9-259.1 437.5l1.3 83.6c3 189.6 113.9 352.1 272.8 429l.1.9-2788.8 44.9c-208.6 3.3-380.5-164.3-383.8-374.4" style="fill:#fcd8bc;fill-opacity:1;fill-rule:nonzero;stroke:none" transform="matrix(.13333 0 0 -.13333 0 2666.67)"/>
  <path d="M14231.3 3317.5h-2938c-189.5 0-338 238.8-338 543.7 0 304.9 148.5 543.8 338 543.8h2938c24.4 0 44.2-20 44.2-44.5 0-24.6-19.8-44.5-44.2-44.5h-2938c-135.3 0-249.6-208.3-249.6-454.8s114.3-454.7 249.6-454.7h2938c24.4 0 44.2-19.9 44.2-44.5s-19.8-44.5-44.2-44.5" style="fill:#527ec8;fill-opacity:1;fill-rule:nonzero;stroke:none" transform="matrix(.13333 0 0 -.13333 0 2666.67)"/>
  <path d="M13951 4108.7h-2121.4v6.4H13951v-6.4M13915.1 4009.8H12956v6.4h959.1v-6.4M13915.1 3672.3h-1673.2v6.4h1673.2v-6.4" style="fill:#eeb991;fill-opacity:1;fill-rule:nonzero;stroke:none" transform="matrix(.13333 0 0 -.13333 0 2666.67)"/>
  <path d="M16262.4 3690.24s37.6-115.72 34.3-142.21c-3.2-26.5-26.8-116.97-43.6-140.13-16.9-23.16-25.2 94.37-38.6 112.03-13.3 17.67-2.7-44.23-12.1-50-9.4-5.7-29 45.55-37.5 63.63-8.4 18.08 20.7 84.78 20.8 131.3 0 46.45 76.7 25.38 76.7 25.38" style="fill:#f89d63;fill-opacity:1;fill-rule:nonzero;stroke:none" transform="matrix(.19173 0 0 -.19173 0 2666.67)"/>
  <path d="M15381.6 4610.85c-10.4 132.78 133.9 223.76 247.7 154.69 2.4-1.39 4.7-2.85 7-4.31 170.5-109.76 538.4-621.84 563.7-673.1 25.3-51.33 100-459.43 100-459.43s-92.3-33.8-135.5 1.26c0 0-149.8 387.08-171.9 406.42-22.2 19.34-599.1 343.05-604 464.36-1.3 32.13-3.9 70.67-7 110.11" style="fill:#233664;fill-opacity:1;fill-rule:nonzero;stroke:none" transform="matrix(.19169 0 0 -.19169 0 2666.67)"/>
  <path d="m16244.3 5360.62 55.7-160.05-805-280.28-55.7 160.04 805 280.29" style="fill:#f57e65;fill-opacity:1;fill-rule:nonzero;stroke:none" transform="matrix(.17254 0 0 -.17254 0 2666.67)"/>
  <path d="m16073.8 5191.51 226.2-15.6-58.6 168.35-167.6-152.75" style="fill:#fcd8b1;fill-opacity:1;fill-rule:nonzero;stroke:none" transform="matrix(.16402 0 0 -.16402 0 2666.67)"/>
  <path d="m16271.7 5312.51 17.5-50.36a59.35 59.35 0 0 0-36.5-75.57l-37-12.92-55.5 159.22 40.3 13.99a55.82 55.82 0 0 0 71.2-34.36" style="fill:#fcd8b1;fill-opacity:1;fill-rule:nonzero;stroke:none" transform="matrix(.17343 0 0 -.17343 0 2666.67)"/>
  <path d="M16232 1595.9s68-62.06 54.7-106.16c-13.3-44.03-74.6-73.47-82.9-127.34-8.3-53.87-41.5-83.25-71.3-83.25h-142.3s-22 37.91 31.1 49.33c53 11.42 73.1 74.72 69.8 133.54-3.4 58.75 4.9 137.18 4.9 137.18l112.8 26.08 23.2-29.38" style="fill:#243f7a;fill-opacity:1;fill-rule:nonzero;stroke:none" transform="matrix(.1938 0 0 -.1938 0 2666.67)"/>
  <path d="M16287.1 1518.29s12.9-149.33-18.7-164.9l-404.1.87s0 46.58 64.9 56.98c64.9 10.34 179 48.32 198.3 132.96 19.2 84.63 159.6-25.91 159.6-25.91" style="fill:#243f7a;fill-opacity:1;fill-rule:nonzero;stroke:none" transform="matrix(.18322 0 0 -.18322 0 2666.67)"/>
  <path d="M15713.2 3575.32s21-258.01 45.7-568.15c33.5-421.29 73.8-938.74 77.9-1036.83 6.8-170.24 34.5-442.52 34.5-442.52s65.7-64.68 197.1-37.43c0 0 117.1 388.73 150.6 800.05l1.5 20.3c31.1 418.7 79.5 1300.36 79.5 1300.36l-586.8-35.78" style="fill:#f57e65;fill-opacity:1;fill-rule:nonzero;stroke:none" transform="matrix(.18594 0 0 -.18594 0 2666.67)"/>
  <path d="M15713.2 3575.32s21-258.01 45.7-568.15l460.1-716.73 1.5 20.3c31.1 418.7 79.5 1300.36 79.5 1300.36l-586.8-35.78" style="fill:#f35e60;fill-opacity:1;fill-rule:nonzero;stroke:none" transform="matrix(.18594 0 0 -.18594 0 2666.67)"/>
  <path d="M15230.8 3415.04s364.7-900.18 604.5-1323.26c239.8-423.08 314.8-541.15 314.8-541.15s137.4 54.16 149.9 91.05c0 0-91.7 816.73-252.3 1015.84-90.8 112.47-197.4 450.09-202.4 568.16-4.9 118.07-32.4 351.71-32.4 351.71l-582.1-162.35" style="fill:#f57e65;fill-opacity:1;fill-rule:nonzero;stroke:none" transform="matrix(.193 0 0 -.193 0 2666.67)"/>
  <path d="M16300 4996.81s-256.2-129.95-406.2-86.64c0 0 35.7 47.09 99.3 82.8-5.7 29.85-10.3 55.71-13.1 77.73-7.3 50.71-7.8 79.47-7.8 79.47l98.2 80.48 93.2 77c-3.3-211.38 136.4-310.84 136.4-310.84" style="fill:#f89d63;fill-opacity:1;fill-rule:nonzero;stroke:none" transform="matrix(.18406 0 0 -.18406 0 2666.67)"/>
  <path d="M16255.7 3610.03c-101.6-61.53-197.8-107.7-310.3-133.66-132.7-31.51-295.9-22.19-350.5-30.52-5.6-.78-10.9.72-15.9 3.99-4.3 2.2-28.4 164.17-52.5 368.53-1.1 8.18-2.2 16.5-2.6 24.83l-.4 2.77c-9.4 79.88-17.6 163.82-24.7 247.97a5669.5 5669.5 0 0 0-14 190.99c-4.2 76.04-5.9 145.96-4.2 203.44.8 26.24 2.3 49.86 4.7 70.42 14.4 119.36 71.3 204.65 124.9 268.16l44.5 50.65c51.6-3.27 104.3 6.47 153.9 39.27 54.4 35.78 113.2 78.17 124.3 71.7 83.3-45.53 150.8-167.52 199.2-323.44 27.8-89.7 49.1-191.56 62.8-299.4 4.3-33.5 8.1-67.78 10.9-102 .6-6.33 1-12.66 1.5-18.85 6.6-93.47 17.2-181.1 29-259.27 16-105.49 34.1-193.91 46.9-256.15 6.4-31.66 11.3-56.12 14.2-73.7 2.6-15.29-28.1-37.2-41.7-45.73" style="fill:#2c4394;fill-opacity:1;fill-rule:nonzero;stroke:none" transform="matrix(.18744 0 0 -.18744 0 2666.67)"/>
  <path d="M16300 5269.98s-63.5-121.46-188.4-157.54c-7.4 51.12-7.9 80.12-7.9 80.12l99 81.14 97.3-3.72" style="fill:#f68340;fill-opacity:1;fill-rule:nonzero;stroke:none" transform="matrix(.18256 0 0 -.18256 0 2666.67)"/>
  <path d="M15965.7 5165.37s248.2-35.51 268.4 116.99c20.3 152.57 65.9 250.68-91.7 279.87-157.6 29.12-196.2-25.13-215.5-74.43-19.3-49.31-25.1-309.21 38.8-322.43" style="fill:#f89d63;fill-opacity:1;fill-rule:nonzero;stroke:none" transform="matrix(.1836 0 0 -.1836 0 2666.67)"/>
  <path d="M16277 5569.87c2.2 2.61 7.4 4.78 18.8 5.65 0 0-9.3 5.58-21.6 5.58-2.7 15.94-11.8 44.11-39.5 50.42 0 0 15-7.61 17.3-24.56-32.5 32.09-101.3 54.62-290.1 35.93-248.8-24.63-163.6-182.61-130.9-200.94 32.7-18.4 112.8 35.35 173 31.8 60.2-3.62 73.4-90.25 94.1-101.77 20.5-11.51 12.1 9.42 39.4 22.46 27.4 12.96 31-32.67 23.6-62.59-7.4-29.84 31.3-68.3 31.3-68.3l37.5 42.01c37.4 42.01 70.1 217.52 51.9 254.39-1.6 3.26-3.2 6.59-4.8 9.92" style="fill:#293666;fill-opacity:1;fill-rule:nonzero;stroke:none" transform="matrix(.18407 0 0 -.18407 0 2666.67)"/>
  <path d="M16300 4585.61s-210-159.85-432.7-194.83c-4.3 77.91-6 149.56-4.3 208.46l437-13.63" style="fill:#233664;fill-opacity:1;fill-rule:nonzero;stroke:none" transform="matrix(.18293 0 0 -.18293 0 2666.67)"/>
  <path d="M16300 5203.61c-3.6 3.87-50.1 159.33-130.5 148.01-52.5-7.36-138.2-37.76-115.5-106.93 9-27.15 168.9-120.79 168.9-120.79l77.1 79.71" style="fill:#f89d63;fill-opacity:1;fill-rule:nonzero;stroke:none" transform="matrix(.16845 0 0 -.16845 0 2666.67)"/>
  <path d="M16181.3 4850.98c118.7-71.01 109.1-247.86-17.9-302.77a184.2 184.2 0 0 0-7.8-3.25c-195.5-78.46-777.1-87.12-909-72.68-143.2 15.68-449.3 191.52-449.3 191.52s27 98.54 82.6 114c0 0 323.4-91.61 447.6-98.76 78.6-4.47 650.7 301.04 756.4 232.27 28-18.21 62.2-39.23 97.4-60.33" style="fill:#2c4394;fill-opacity:1;fill-rule:nonzero;stroke:none" transform="matrix(.18456 0 0 -.18456 0 2666.67)"/>
  <path d="m16300 2493.93-1616.9-79.55v1616.94l1616.9 79.46V2493.93" style="fill:#fcd8bc;fill-opacity:1;fill-rule:nonzero;stroke:none" transform="matrix(.15102 0 0 -.15102 0 2666.67)"/>
  <path d="m14914.1 2624.36 481.1 891.12 353.8-465.17 176.6 201.81 374.4-559.63-1385.9-68.13" style="fill:#fef7f2;fill-opacity:1;fill-rule:nonzero;stroke:none" transform="matrix(.1499 0 0 -.1499 0 2666.67)"/>
  <path d="M16044.3 3749.31c0 70.69 57.2 130.69 127.8 134.16 70.6 3.48 127.9-50.96 127.9-121.56s-57.3-130.7-127.9-134.17c-70.6-3.47-127.8 50.97-127.8 121.57" style="fill:#fef7f2;fill-opacity:1;fill-rule:nonzero;stroke:none" transform="matrix(.14599 0 0 -.14599 0 2666.67)"/>
  <path d="m16300 6701.15-1799.1-88.37v1799.07l1799.1 88.42V6701.15" style="fill:#fcd8bc;fill-opacity:1;fill-rule:nonzero;stroke:none" transform="matrix(.19553 0 0 -.19553 0 2666.67)"/>
  <path d="m14756.6 6881.18 535.9 992.3 393.9-518 196.7 224.7 416.9-623.15-1543.4-75.85" style="fill:#fef7f2;fill-opacity:1;fill-rule:nonzero;stroke:none" transform="matrix(.19394 0 0 -.19394 0 2666.67)"/>
  <path d="M16014.3 8265.51c0 78.87 64 145.95 142.9 149.83 78.9 3.88 142.8-56.92 142.8-135.79 0-78.87-63.9-145.96-142.8-149.84-78.9-3.87-142.9 56.92-142.9 135.8" style="fill:#fef7f2;fill-opacity:1;fill-rule:nonzero;stroke:none" transform="matrix(.18829 0 0 -.18829 0 2666.67)"/>
  <path d="m16300 6649.4-2189.1-107.59v127.52l2189.1 107.59V6649.4" style="fill:#f57e65;fill-opacity:1;fill-rule:nonzero;stroke:none" transform="matrix(.15714 0 0 -.15714 0 2666.67)"/>
  <path d="m16300 6762.7-1251.6-61.53v68.05l1251.6 61.44v-67.96" style="fill:#fcd8bc;fill-opacity:1;fill-rule:nonzero;stroke:none" transform="matrix(.14735 0 0 -.14735 0 2666.67)"/>
  <path d="m16300 6668.56-905.1-44.53v69.52l905.1 44.53v-69.52" style="fill:#fcd8bc;fill-opacity:1;fill-rule:nonzero;stroke:none" transform="matrix(.14403 0 0 -.14403 0 2666.67)"/>
  <path d="m16300 6303.73-848.8-41.76v65.2l848.8 41.76v-65.2" style="fill:#fcd8bc;fill-opacity:1;fill-rule:nonzero;stroke:none" transform="matrix(.15359 0 0 -.15359 0 2666.67)"/>
  <path d="m16300 5939.47-965.8-47.43v60.89l965.8 47.5v-60.96" style="fill:#fcd8bc;fill-opacity:1;fill-rule:nonzero;stroke:none" transform="matrix(.16447 0 0 -.16447 0 2666.67)"/>
  <path d="m16300 6483.52-791.5-38.98v70.13l791.5 38.88v-70.03" style="fill:#fcd8bc;fill-opacity:1;fill-rule:nonzero;stroke:none" transform="matrix(.14298 0 0 -.14298 0 2666.67)"/>
  <path d="m16300 6172.02-748.1-36.76v66.2l748.1 36.75v-66.19" style="fill:#fcd8bc;fill-opacity:1;fill-rule:nonzero;stroke:none" transform="matrix(.15127 0 0 -.15127 0 2666.67)"/>
  <path d="m16300 5856.26-858-42.23v62.39l858 42.14v-62.3" style="fill:#fcd8bc;fill-opacity:1;fill-rule:nonzero;stroke:none" transform="matrix(.16072 0 0 -.16072 0 2666.67)"/>
  <path d="m16300 8088.27-2189.1-107.59v127.53L16300 8215.8v-127.53" style="fill:#f57e65;fill-opacity:1;fill-rule:nonzero;stroke:none" transform="matrix(.15714 0 0 -.15714 0 2666.67)"/>
  <path d="m16300 8297.18-1251.6-61.53v68.04l1251.6 61.53v-68.04" style="fill:#fcd8bc;fill-opacity:1;fill-rule:nonzero;stroke:none" transform="matrix(.14735 0 0 -.14735 0 2666.67)"/>
  <path d="m16300 7667.64-1146.4-56.37v62.34l1146.4 56.28v-62.25" style="fill:#fcd8bc;fill-opacity:1;fill-rule:nonzero;stroke:none" transform="matrix(.16086 0 0 -.16086 0 2666.67)"/>
  <path d="m16300 8238.36-905.1-44.53v69.61l905.1 44.44v-69.52" style="fill:#fcd8bc;fill-opacity:1;fill-rule:nonzero;stroke:none" transform="matrix(.14403 0 0 -.14403 0 2666.67)"/>
  <path d="m16300 7775.92-848.8-41.76v65.29l848.8 41.67v-65.2" style="fill:#fcd8bc;fill-opacity:1;fill-rule:nonzero;stroke:none" transform="matrix(.15359 0 0 -.15359 0 2666.67)"/>
  <path d="m16300 7314.31-965.8-47.51v60.96l965.8 47.43v-60.88" style="fill:#fcd8bc;fill-opacity:1;fill-rule:nonzero;stroke:none" transform="matrix(.16447 0 0 -.16447 0 2666.67)"/>
  <path d="m16300 8064.9-791.5-38.88v70.03l791.5 38.89v-70.04" style="fill:#fcd8bc;fill-opacity:1;fill-rule:nonzero;stroke:none" transform="matrix(.14298 0 0 -.14298 0 2666.67)"/>
  <path d="m16300 7666.72-748.1-36.75v66.19l748.1 36.76v-66.2" style="fill:#fcd8bc;fill-opacity:1;fill-rule:nonzero;stroke:none" transform="matrix(.15127 0 0 -.15127 0 2666.67)"/>
  <path d="m16300 7263.08-858-42.14v62.3l858 42.15v-62.31" style="fill:#fcd8bc;fill-opacity:1;fill-rule:nonzero;stroke:none" transform="matrix(.16072 0 0 -.16072 0 2666.67)"/>
  <path d="m16300 6588.63-1282.5-63.03v74.69l1282.5 63.04v-74.7" style="fill:#f57e65;fill-opacity:1;fill-rule:nonzero;stroke:none" transform="matrix(.18868 0 0 -.18868 0 2666.67)"/>
  <path d="m16300 6650.91-713.6-35.06v38.8l713.6 35.05v-38.79" style="fill:#fcd8bc;fill-opacity:1;fill-rule:nonzero;stroke:none" transform="matrix(.18179 0 0 -.18179 0 2666.67)"/>
  <path d="m16300 6360.26-678.2-33.32v36.87l678.2 33.32v-36.87" style="fill:#fcd8bc;fill-opacity:1;fill-rule:nonzero;stroke:none" transform="matrix(.1913 0 0 -.1913 0 2666.67)"/>
  <path d="m16300 6596.35-511-25.19v39.3l511 25.12v-39.23" style="fill:#fcd8bc;fill-opacity:1;fill-rule:nonzero;stroke:none" transform="matrix(.17946 0 0 -.17946 0 2666.67)"/>
  <path d="m16300 6387.15-492.6-24.21v37.89l492.6 24.21v-37.89" style="fill:#fcd8bc;fill-opacity:1;fill-rule:nonzero;stroke:none" transform="matrix(.18618 0 0 -.18618 0 2666.67)"/>
  <path d="m16300 6166.47-576.5-28.34v36.39l576.5 28.34v-36.39" style="fill:#fcd8bc;fill-opacity:1;fill-rule:nonzero;stroke:none" transform="matrix(.19383 0 0 -.19383 0 2666.67)"/>
  <path d="m16300 6491.8-445.5-21.86v39.39l445.5 21.94v-39.47" style="fill:#fcd8bc;fill-opacity:1;fill-rule:nonzero;stroke:none" transform="matrix(.17872 0 0 -.17872 0 2666.67)"/>
  <path d="m16300 6312-431.4-21.24v38.21l431.4 21.17V6312" style="fill:#fcd8bc;fill-opacity:1;fill-rule:nonzero;stroke:none" transform="matrix(.18455 0 0 -.18455 0 2666.67)"/>
  <path d="m16300 6120.35-507.4-24.89v36.82l507.4 24.96v-36.89" style="fill:#fcd8bc;fill-opacity:1;fill-rule:nonzero;stroke:none" transform="matrix(.1912 0 0 -.1912 0 2666.67)"/>
  <path d="m16300 5148.41-2189.1-107.59v127.53l2189.1 107.59v-127.53" style="fill:#f57e65;fill-opacity:1;fill-rule:nonzero;stroke:none" transform="matrix(.15714 0 0 -.15714 0 2666.67)"/>
  <path d="m16300 5161.99-1251.6-61.53v67.96l1251.6 61.53v-67.96" style="fill:#fcd8bc;fill-opacity:1;fill-rule:nonzero;stroke:none" transform="matrix(.14735 0 0 -.14735 0 2666.67)"/>
  <path d="m16300 4795.76-1146.4-56.36v62.25l1146.4 56.36v-62.25" style="fill:#fcd8bc;fill-opacity:1;fill-rule:nonzero;stroke:none" transform="matrix(.16086 0 0 -.16086 0 2666.67)"/>
  <path d="m16300 5030.99-905.1-44.52v69.52l905.1 44.53v-69.53" style="fill:#fcd8bc;fill-opacity:1;fill-rule:nonzero;stroke:none" transform="matrix(.14403 0 0 -.14403 0 2666.67)"/>
  <path d="m16300 4767.91-848.8-41.67v65.19l848.8 41.76v-65.28" style="fill:#fcd8bc;fill-opacity:1;fill-rule:nonzero;stroke:none" transform="matrix(.15359 0 0 -.15359 0 2666.67)"/>
  <path d="m16300 4505.37-965.8-47.42v60.88l965.8 47.5v-60.96" style="fill:#fcd8bc;fill-opacity:1;fill-rule:nonzero;stroke:none" transform="matrix(.16447 0 0 -.16447 0 2666.67)"/>
  <path d="m16300 4833.78-791.5-38.89v70.13l791.5 38.88v-70.12" style="fill:#fcd8bc;fill-opacity:1;fill-rule:nonzero;stroke:none" transform="matrix(.14298 0 0 -.14298 0 2666.67)"/>
  <path d="m16300 4612.79-748.1-36.84v66.29l748.1 36.75v-66.2" style="fill:#fcd8bc;fill-opacity:1;fill-rule:nonzero;stroke:none" transform="matrix(.15127 0 0 -.15127 0 2666.67)"/>
  <path d="m16300 4388.63-858-42.14v62.3l858 42.22v-62.38" style="fill:#fcd8bc;fill-opacity:1;fill-rule:nonzero;stroke:none" transform="matrix(.16072 0 0 -.16072 0 2666.67)"/>
  <path d="m16300 2890.65-1552.2-76.26v117.07l1552.2 76.26v-117.07" style="fill:#f57e65;fill-opacity:1;fill-rule:nonzero;stroke:none" transform="matrix(.17118 0 0 -.17118 0 2666.67)"/>
  <path d="m16300 2739.36-870.6-42.78v61.2l870.6 42.78v-61.2" style="fill:#fcd8bc;fill-opacity:1;fill-rule:nonzero;stroke:none" transform="matrix(.16362 0 0 -.16362 0 2666.67)"/>
  <path d="m16300 2623.15-818.4-40.22v57.53l818.4 40.21v-57.52" style="fill:#fcd8bc;fill-opacity:1;fill-rule:nonzero;stroke:none" transform="matrix(.17406 0 0 -.17406 0 2666.67)"/>
  <path d="m16300 2563.21-625.2-30.71v62.17l625.2 30.71v-62.17" style="fill:#fcd8bc;fill-opacity:1;fill-rule:nonzero;stroke:none" transform="matrix(.16106 0 0 -.16106 0 2666.67)"/>
  <path d="m16300 2486.01-597.9-29.37v59.45l597.9 29.45v-59.53" style="fill:#fcd8bc;fill-opacity:1;fill-rule:nonzero;stroke:none" transform="matrix(.16844 0 0 -.16844 0 2666.67)"/>
  <path d="m16300 2405.9-693.8-34.08v56.69l693.8 34.08v-56.69" style="fill:#fcd8bc;fill-opacity:1;fill-rule:nonzero;stroke:none" transform="matrix(.17684 0 0 -.17684 0 2666.67)"/>
  <path d="m16300 2368.39-545.5-26.79v62.57l545.5 26.79v-62.57" style="fill:#fcd8bc;fill-opacity:1;fill-rule:nonzero;stroke:none" transform="matrix(.16024 0 0 -.16024 0 2666.67)"/>
  <path d="m16300 2308.17-524.6-25.76v60.08l524.6 25.77v-60.09" style="fill:#fcd8bc;fill-opacity:1;fill-rule:nonzero;stroke:none" transform="matrix(.16665 0 0 -.16665 0 2666.67)"/>
  <path d="m16300 2244.97-612.4-30.13v57.57l612.4 30.12v-57.56" style="fill:#fcd8bc;fill-opacity:1;fill-rule:nonzero;stroke:none" transform="matrix(.17395 0 0 -.17395 0 2666.67)"/>
  <path d="m15194.6 8925.3-2875.1 104.4v2875.1l2875.1-104.4V8925.3" style="fill:#fcd8bc;fill-opacity:1;fill-rule:nonzero;stroke:none" transform="matrix(.13333 0 0 -.13333 0 2666.67)"/>
  <path d="m12535.5 9350.3 849.2 1500.2 624.5-874.4 311.8 329.5 660.7-1044.1-2446.2 88.8M13789.4 11055.6c0 121.4 98.4 216.2 219.8 211.8 121.3-4.4 219.7-106.4 219.7-227.8 0-121.3-98.4-216.2-219.7-211.7-121.4 4.4-219.8 106.3-219.8 227.7" style="fill:#fef7f2;fill-opacity:1;fill-rule:nonzero;stroke:none" transform="matrix(.13333 0 0 -.13333 0 2666.67)"/>
  <path d="m14851.1 7791.5-2579.9 93.7v150.3l2579.9-93.7v-150.3" style="fill:#f57e65;fill-opacity:1;fill-rule:nonzero;stroke:none" transform="matrix(.13333 0 0 -.13333 0 2666.67)"/>
  <path d="m13654.3 7530.8-1383.1 50.2v75.1l1383.1-50.2v-75.1M13248.9 7295.5l-977.7 35.5v75.1l977.7-35.5v-75.1M14416.5 7253.1l-977.8 35.5v75.1l977.8-35.4v-75.2M15747.1 7204.8l-1191.3 43.3v75.1l1191.3-43.2v-75.2M13120 7055.3l-848.8 30.8v75.2l848.8-30.9v-75.1M14133.6 7018.5l-848.8 30.8v75.2l848.8-30.8v-75.2M15288.9 6976.6l-1034.3 37.5v75.2l1034.3-37.6v-75.1" style="fill:#fcd8bc;fill-opacity:1;fill-rule:nonzero;stroke:none" transform="matrix(.13333 0 0 -.13333 0 2666.67)"/>
  <path d="m14851.1 6022.5-2579.9 93.7v150.3l2579.9-93.7v-150.3" style="fill:#f57e65;fill-opacity:1;fill-rule:nonzero;stroke:none" transform="matrix(.13333 0 0 -.13333 0 2666.67)"/>
  <path d="m13654.3 5761.8-1383.1 50.2v75.1l1383.1-50.2v-75.1M15306 5701.8l-1383.2 50.2v75.2L15306 5777v-75.2M13248.9 5526.5l-977.7 35.5v75.1l977.7-35.5v-75.1M14416.5 5484.1l-977.8 35.5v75.1l977.8-35.5v-75.1M15747.1 5435.8l-1191.3 43.3v75.1l1191.3-43.3v-75.1M13120 5286.3l-848.8 30.8v75.2l848.8-30.9v-75.1M14133.6 5249.5l-848.8 30.8v75.2l848.8-30.9v-75.1M15288.9 5207.6l-1034.3 37.5v75.2l1034.3-37.6v-75.1" style="fill:#fcd8bc;fill-opacity:1;fill-rule:nonzero;stroke:none" transform="matrix(.13333 0 0 -.13333 0 2666.67)"/>
  <path d="m11185.3 12183.2-2579.99 93.7v150.2l2579.99-93.6v-150.3" style="fill:#f57e65;fill-opacity:1;fill-rule:nonzero;stroke:none" transform="matrix(.13333 0 0 -.13333 0 2666.67)"/>
  <path d="m9988.44 11922.5-1383.13 50.2v75.1l1383.13-50.2v-75.1M11640.1 11862.5l-1383.1 50.2v75.1l1383.1-50.2v-75.1M9583.05 11687.2l-977.74 35.5v75.1l977.74-35.5v-75.1M10750.6 11644.8l-977.71 35.5v75.1l977.71-35.5v-75.1M12081.3 11596.5l-1191.4 43.2v75.2l1191.4-43.3v-75.1M9454.14 11447l-848.83 30.8v75.1l848.83-30.8v-75.1M10467.8 11410.2l-848.85 30.8v75.1l848.85-30.8v-75.1M11623 11368.2l-1034.3 37.6v75.1l1034.3-37.5v-75.2" style="fill:#fcd8bc;fill-opacity:1;fill-rule:nonzero;stroke:none" transform="matrix(.13333 0 0 -.13333 0 2666.67)"/>
  <path d="m10270.3 14628.4-234.2 326.6-62.31-397.1zm-414.29 595.5 226.39 53.7 745.3-1010.3-256.7-61-161.5 226.1-471.89-112.2-42.57-274.5-250.3-59.5 211.27 1237.7" style="fill:#fff;fill-opacity:1;fill-rule:nonzero;stroke:none" transform="matrix(.13333 0 0 -.13333 0 2666.67)"/>
  <path d="M11023.4 15739.2c32 321.5 300.5 560.8 647.9 526.3 213.2-21.2 324.8-113.9 419.5-227.7l-165.7-156.5c-79.3 87.9-149 142.1-278.3 154.9-190.6 19-343.7-125.7-363.2-322.8-19.3-193.9 98.8-368.8 292.7-388.1 129.2-12.8 213.5 31 310.4 103l141.5-185.4c-128.7-112.8-264.7-167.9-482.8-146.2-332.8 33.1-554.5 314.5-522 642.5" style="fill:#fff;fill-opacity:1;fill-rule:nonzero;stroke:none" transform="matrix(.13457 0 0 -.13457 0 2666.67)"/>
  <path d="M15269 15367.2c110 17.8 170 67.3 155.9 154.7-12.3 76-76.4 113.8-204.2 93.1l-288-46.5 40.2-249.1zm-140 445.5c110 17.7 173.8 64.6 159.7 151.9-12 74.4-77 107.1-182.2 90.1l-245.9-39.7 38.7-239.4zm-546.3 381.5 525.8 84.9c129.4 20.9 237 1.8 312.2-52.5 60.1-43.4 96.2-102.3 109.3-183.2 20.6-127.8-35.9-209.9-109.4-268.3 139.1-29 232.3-92 257.3-247.3 33.5-207-118.1-337.7-373.7-379l-538.7-86.9-182.8 1132.3" style="fill:#fff;fill-opacity:1;fill-rule:nonzero;stroke:none" transform="matrix(.13334 0 0 -.13334 0 2666.67)"/>
  <path d="M12610.6 14302.8c27.7 324.9 303.4 569.5 649.5 540.1 205.8-17.5 325.1-83.5 435.7-194.9l-174.6-177.6c-81.9 81-156.7 130.1-289 141.4-182.8 15.5-341.9-133.8-358.7-331.4-17.8-209 112.9-374.7 315.3-391.9 91.5-7.7 175.1 8.2 242.6 48.5l13.9 163.3-253.1 21.5 18.5 217.1 496.4-42.2-42.2-496.3c-126.1-89.6-294.7-157.5-503.7-139.8-355.9 30.3-579.6 300.9-550.6 642.2" style="fill:#fff;fill-opacity:1;fill-rule:nonzero;stroke:none" transform="matrix(.13333 0 0 -.13333 0 2666.67)"/>
  <path d="m15947.4 8020.42-90.5 117.31 117.4 86.46 90.1-124.3c18.5 25.42 30.9 55.19 38.5 91.03 24.6 116.22-40.2 231.1-160.3 256.51-120.1 25.41-223.5-51.88-248.5-170.04-24.6-116.22 40.2-231.11 160.3-256.52 32.9-6.97 64.4-6.54 93-.45zm89.7-121.18c-64.9-24.71-138.2-31.47-213.8-15.49-209.2 44.26-326.3 231.95-285.1 426.63 40.8 192.74 226.2 318.44 435.5 274.18 209.2-44.27 326.3-231.96 285.1-426.63-15-70.71-50.6-133.99-101.3-181.98l57.3-73.83-117.2-85.48-60.5 82.6" style="fill:#fff;fill-opacity:1;fill-rule:nonzero;stroke:none" transform="matrix(.2207 0 0 -.2207 0 2666.67)"/>
  <path d="m15544.9 10053.3 149.6 20.3 407-407.17-61.5 453.97 160.1 21.7 99.9-737.33-138-18.69-420.6 420.35 63.5-468.74-160.1-21.69-99.9 737.3" style="fill:#fff;fill-opacity:1;fill-rule:nonzero;stroke:none" transform="matrix(.20555 0 0 -.20555 0 2666.67)"/>
  <path d="m14751 13329.9 240.6-25 139.7-713.4 301.1 670.5 192.5-20 156.9-718.1 283.4 669.4 234.8-24.4-455.5-992-195.4 20.3-161.1 691.9-299.9-644-195.4 20.3-241.7 1064.5" style="fill:#fff;fill-opacity:1;fill-rule:nonzero;stroke:none" transform="matrix(.149 0 0 -.149 0 2666.67)"/>
  <path d="M4695.88 2200.4c0-13.8.82-27.5 2.55-40.9a334.21 334.21 0 0 1 38.16-119.6 334.49 334.49 0 0 1 57.53-76.8c60.79-60.7 144.58-98.2 237.28-98.2h4718.81c185.3 0 335.59 150.2 335.59 335.5 0 92.7-37.5 176.6-98.31 237.3a334.14 334.14 0 0 1-237.28 98.3H5031.4c-185.3 0-335.52-150.2-335.52-335.6M5055.81 2596.7h1617.91c28.32 0 51.49 23.2 51.49 51.5s-23.17 51.5-51.49 51.5H5055.81c-28.32 0-51.5-23.2-51.5-51.5s23.18-51.5 51.5-51.5" style="fill:#f36545;fill-opacity:1;fill-rule:nonzero;stroke:none" transform="matrix(.13333 0 0 -.13333 0 2666.67)"/>
  <path d="M5145.17 2536h175.37v60.7h-175.37V2536M4736.59 2039.9a334.49 334.49 0 0 1 57.53-76.8c60.79-60.7 144.58-98.2 237.28-98.2h999.54v175H4736.59" style="fill:#f1471d;fill-opacity:1;fill-rule:nonzero;stroke:none" transform="matrix(.13333 0 0 -.13333 0 2666.67)"/>
  <path d="M10710.4 2298.7v-196.6c0-21.5-2.9-42.4-8.3-62.2-27.2-100.9-119.4-175-228.9-175H5557.76c-109.51 0-201.66 74.1-228.92 175a238.02 238.02 0 0 0-8.26 62.2v196.6c0 131.1 106.14 237.3 237.18 237.3h4915.44c131.1 0 237.2-106.2 237.2-237.3" style="fill:#f57e65;fill-opacity:1;fill-rule:nonzero;stroke:none" transform="matrix(.13333 0 0 -.13333 0 2666.67)"/>
  <path d="M10702.1 2039.9c-27.2-100.9-119.4-175-228.9-175H5557.76c-109.51 0-201.66 74.1-228.92 175h5373.26" style="fill:#f3668c;fill-opacity:1;fill-rule:nonzero;stroke:none" transform="matrix(.13333 0 0 -.13333 0 2666.67)"/>
  <path d="M10222.2 2199.2c0-104.2 37.9-197.4 97.6-259.1 1.4-1.4 2.7-2.7 4-4.1 46.2-46 104.7-73.5 168.4-73.5 99.5 0 346.2 150.1 499 249.8 76.2 49.7 129.1 86.9 129.1 86.9s-52.9 37.2-129.1 86.9c-152.8 99.8-399.5 249.9-499 249.9-28.8 0-56.5-5.6-82.6-16-43.9-17.6-83-48.9-113.8-89.8-34-44.9-58.1-101.4-68.3-164.2l-.3-2.2c-3.3-20.8-5-42.4-5-64.6" style="fill:#d0e3f6;fill-opacity:1;fill-rule:nonzero;stroke:none" transform="matrix(.13333 0 0 -.13333 0 2666.67)"/>
  <path d="M10222.2 2199.2c0-104.2 37.9-197.4 97.6-259.1l756.6 260.3-849.2 63.4c-3.3-20.8-5-42.4-5-64.6" style="fill:#a7caed;fill-opacity:1;fill-rule:nonzero;stroke:none" transform="matrix(.13333 0 0 -.13333 0 2666.67)"/>
  <path d="m10295.8 2430.2 754.8-206.1-641 295.9c-43.9-17.6-83-48.9-113.8-89.8" style="fill:#e6f3fc;fill-opacity:1;fill-rule:nonzero;stroke:none" transform="matrix(.13333 0 0 -.13333 0 2666.67)"/>
  <path d="M10942 2199.2c0-40.1 20.5-74.2 49.2-86.9 76.2 49.7 129.1 86.9 129.1 86.9s-52.9 37.2-129.1 86.9c-28.7-12.6-49.2-46.7-49.2-86.9" style="fill:#f57e65;fill-opacity:1;fill-rule:nonzero;stroke:none" transform="matrix(.13333 0 0 -.13333 0 2666.67)"/>
  <path d="M8750.02 1842.7c33.76-.2 69.19 24.5 79.15 55l2033.73 6248.2c10 30.6-9.3 55.6-43.1 55.8-33.7.2-69.2-24.5-79.1-55L8706.91 1898.4c-9.95-30.5 9.35-55.5 43.11-55.7M7110.94 1852.3c33.76-.2 69.19 24.4 79.14 55l2033.76 6248.2c9.95 30.6-9.35 55.5-43.11 55.7-33.76.2-69.19-24.4-79.14-55L7067.83 1908c-9.95-30.5 9.35-55.5 43.11-55.7" style="fill:#233664;fill-opacity:1;fill-rule:nonzero;stroke:none" transform="matrix(.13333 0 0 -.13333 0 2666.67)"/>
  <path d="m8875.78 7284.9 1645.92-9.6c31.7-.2 65.4 23.1 74.7 51.9 9.4 28.7-8.9 52.4-40.7 52.6l-1645.9 9.6c-31.73.2-65.35-23.2-74.71-51.9-9.35-28.8 8.96-52.4 40.69-52.6M8520.69 6194l1645.91-9.6c31.8-.2 65.4 23.1 74.7 51.9 9.4 28.7-8.9 52.4-40.7 52.6l-1645.88 9.6c-31.74.2-65.36-23.2-74.72-51.9-9.35-28.8 8.96-52.4 40.69-52.6M8178.7 5143.3l1645.93-9.6c31.74-.2 65.36 23.2 74.72 51.9 9.35 28.7-8.96 52.4-40.7 52.6l-1645.93 9.6c-31.73.2-65.35-23.2-74.71-51.9-9.35-28.8 8.96-52.4 40.69-52.6M7793.7 3960.4l1645.93-9.6c31.73-.2 65.35 23.2 74.71 52 9.35 28.7-8.96 52.4-40.69 52.6l-1645.94 9.6c-31.73.1-65.35-23.2-74.71-52-9.35-28.7 8.96-52.4 40.7-52.6M7390.72 2722.4l1645.93-9.6c31.74-.2 65.36 23.2 74.71 51.9 9.36 28.8-8.95 52.4-40.69 52.6l-1645.93 9.6c-31.73.2-65.36-23.2-74.71-51.9-9.36-28.7 8.95-52.4 40.69-52.6" style="fill:#233664;fill-opacity:1;fill-rule:nonzero;stroke:none" transform="matrix(.13333 0 0 -.13333 0 2666.67)"/>
  <path d="M10434.9 9560.7s19.4 43.8 32 64.5c12.6 20.7 66.5 81.5 75.7 67.7 9.1-13.7 45.8-106.3 26.3-132.2-19.5-25.9 1.3-71-95.6-98.3l-38.4 98.3" style="fill:#f89d63;fill-opacity:1;fill-rule:nonzero;stroke:none" transform="matrix(.13333 0 0 -.13333 0 2666.67)"/>
  <path d="M9358.37 9837.1s495.88-413.9 689.23-375.6c151.2 30 383.2 109.5 383.2 109.5l46.5-118.7s-208.1-282.3-425.1-284.1c-339.14-2.9-589.7 146.8-589.7 146.8l-104.13 522.1" style="fill:#f35e60;fill-opacity:1;fill-rule:nonzero;stroke:none" transform="matrix(.13333 0 0 -.13333 0 2666.67)"/>
  <path d="M8488.7 5471s14.39-232.2 59.32-235.5c5.97-.5 227.86-.5 227.86-.5l283.26 1.7s-1.86 68.2-84.66 82.6c-82.79 14.5-221.37 72.7-271.53 182.1-52.76 115.1-214.25-30.4-214.25-30.4" style="fill:#243c75;fill-opacity:1;fill-rule:nonzero;stroke:none" transform="matrix(.13333 0 0 -.13333 0 2666.67)"/>
  <path d="M8472.37 5454.9s86.11-28.8 153.33-28.8c74.99 0 143.15 20.4 143.15 20.4s16.21 156.8 105.42 502.2c46.77 181.1 113.56 413.8 208.59 703.1 262.73 799.5 342.63 1267.1 349.92 1311.4.39 2.4.54 3.5.54 3.5l-.85.4-807.75 354.7s99.84-1101.9-27.54-1524.8c-17.84-59.1-33.12-128-46.23-202.6-80.44-459.4-78.58-1139.5-78.58-1139.5" style="fill:#2c4394;fill-opacity:1;fill-rule:nonzero;stroke:none" transform="matrix(.13333 0 0 -.13333 0 2666.67)"/>
  <path d="M8874.27 5948.7c46.77 181.1 113.56 413.8 208.59 703.1 262.73 799.5 342.63 1267.1 349.92 1311.4-.08 1.4-.16 2.6-.31 3.9l-807.75 354.7s99.84-1101.9-27.54-1524.8c-17.84-59.1 277.09-848.3 277.09-848.3" style="fill:#233664;fill-opacity:1;fill-rule:nonzero;stroke:none" transform="matrix(.13333 0 0 -.13333 0 2666.67)"/>
  <path d="M9119.59 5471s14.39-232.2 59.32-235.5c5.98-.5 227.87-.5 227.87-.5l283.25 1.7s-1.86 68.2-84.65 82.6c-82.8 14.5-221.38 72.7-271.54 182.1-52.76 115.1-214.25-30.4-214.25-30.4" style="fill:#243c75;fill-opacity:1;fill-rule:nonzero;stroke:none" transform="matrix(.13333 0 0 -.13333 0 2666.67)"/>
  <path d="M9577.55 8295.8s10.5-714-113.04-1590.6c-123.53-876.7-81.66-1248.8-81.66-1248.8s-84.87-27.5-119.12-30.3c-87.27-7.1-176.75 20.4-176.75 20.4s-176.81 877-126.12 1315.8c50.7 438.8-242.12 1505.7-242.12 1505.7l858.81 27.8" style="fill:#2c4394;fill-opacity:1;fill-rule:nonzero;stroke:none" transform="matrix(.13333 0 0 -.13333 0 2666.67)"/>
  <path d="m9004.79 9966.6 157.68-103.4 143.62 40.7c26.25 37.4 33.2 109.6 33.59 172.2.38 62-5.64 114.6-5.64 114.6l-212.73 93.9-79.37 35c.23-1.2 6.18-65.2 7.02-74.5 14.83-165.8-44.17-278.5-44.17-278.5" style="fill:#f89d63;fill-opacity:1;fill-rule:nonzero;stroke:none" transform="matrix(.13333 0 0 -.13333 0 2666.67)"/>
  <path d="M9581.17 8097.3c-196.25-189.5-938.99-157.6-984.76 51.2-45.7 208.7 49.91 1777.2 385.16 1875.7 69.56 20.4 441.48-99.8 441.48-99.8s58.36-152.6 96.63-347c7.43-37.8 29.11-438.6 45.34-813.6 7.57-175.4 13.97-345.1 17.25-469.4 2.98-116.5 3.13-192.9-1.1-197.1" style="fill:#f57e65;fill-opacity:1;fill-rule:nonzero;stroke:none" transform="matrix(.13333 0 0 -.13333 0 2666.67)"/>
  <path d="M9064.87 10242.1c43.16-72.9 194.58-136.8 274.81-166 .38 62-5.64 114.6-5.64 114.6l-212.73 93.9c-47.02.6-75.67-9.9-56.44-42.5" style="fill:#f78f4e;fill-opacity:1;fill-rule:nonzero;stroke:none" transform="matrix(.13333 0 0 -.13333 0 2666.67)"/>
  <path d="M9414.28 10203.7s-342.76-106.9-406.06 107.5c-63.29 214.5-150.16 345.2 66 422.5 216.17 77.3 283.03 8.1 321.57-58.4 38.55-66.4 106.02-438.3 18.49-471.6" style="fill:#f89d63;fill-opacity:1;fill-rule:nonzero;stroke:none" transform="matrix(.13333 0 0 -.13333 0 2666.67)"/>
  <path d="M9382.33 10696s-21.86-249.6-73.47-238.7c-51.61 10.8-108.43 34-100.87-41.3 7.55-75.2-50.19-204.2-124.62-203.9-159.62.7-333.06 410.3-289.36 488 126.08 224.1 770.56 269.3 588.32-4.1" style="fill:#203561;fill-opacity:1;fill-rule:nonzero;stroke:none" transform="matrix(.13333 0 0 -.13333 0 2666.67)"/>
  <path d="M9331.9 10018.8c-4.41 1.8-255.15 114.3-284.47 104.6-29.32-9.6-65.88-99.2-65.88-99.2l441.51-99.8s-34.75 70.6-91.16 94.4" style="fill:#f35e60;fill-opacity:1;fill-rule:nonzero;stroke:none" transform="matrix(.13333 0 0 -.13333 0 2666.67)"/>
  <path d="M10892.9 8804.1 9487.38 7480.8c-27.56-26-62.29-34.2-77.2-18.4l-47.45 50.4c-14.91 15.8-4.57 50 22.98 75.9l1405.59 1323.4c27.5 25.9 62.2 34.2 77.2 18.3l47.4-50.3c14.9-15.9 4.6-50.1-23-76" style="fill:#234a8d;fill-opacity:1;fill-rule:nonzero;stroke:none" transform="matrix(.13333 0 0 -.13333 0 2666.67)"/>
  <path d="m10104.2 8061.5-616.82-580.7c-27.56-26-62.29-34.2-77.2-18.4l-47.45 50.4c-14.91 15.8-4.57 50 22.98 75.9l616.79 580.8 101.7-108" style="fill:#f36545;fill-opacity:1;fill-rule:nonzero;stroke:none" transform="matrix(.13333 0 0 -.13333 0 2666.67)"/>
  <path d="M10884.7 10320.5c242.6 257.9 588.4 360.7 913 304.5 189.1-32.8 371-119.4 521.3-260.8 408.2-384 427.7-1026.1 43.7-1434.2-141.4-150.3-317.6-247.8-504.4-292.1-320.6-75.9-672 5.6-929.9 248.3-408.1 384-427.7 1026.1-43.7 1434.3m-314.8-1016.8c53.9-177.8 153.9-344.3 298.9-480.8 443.2-416.9 1140.4-395.6 1557.3 47.4 411.4 437.4 396.1 1122-30.3 1540.6a544.4 544.4 0 0 1-17.3 16.6c-443 416.9-1140.2 395.8-1557.1-47.4-280.4-298-362.7-711-251.5-1076.4" style="fill:#234a8d;fill-opacity:1;fill-rule:nonzero;stroke:none" transform="matrix(.13333 0 0 -.13333 0 2666.67)"/>
  <g clip-path="url(#a)" transform="matrix(.13333 0 0 -.13333 0 2666.67)">
    <path d="M10500.7 8610.5h1941.4v2029.37h-1941.4z" style="fill:#feefef;fill-opacity:1;fill-rule:nonzero;stroke:none"/>
  </g>
  <path d="m12442.1 9025.2-122.6 4.5v1334c72.7-68.5 133.1-145.2 181-227.3.1-.2.2-.3.3-.5.2-.3.4-.6.5-.8 44.2-76 77.8-156.7 100.6-239.7 0-.1 0-.1.1-.2.2-.7.3-1.3.5-2 32.9-120.6 43.2-246.3 30.8-370.2l-97.8-172.7 64.5-2.4a1009.01 1009.01 0 0 0-157.9-322.7" style="fill:#fde0d6;fill-opacity:1;fill-rule:nonzero;stroke:none" transform="matrix(.13333 0 0 -.13333 0 2666.67)"/>
  <path d="m12600 9347.9-64.5 2.4 97.8 172.7c-6-58.9-17.1-117.6-33.3-175.1" style="fill:#feefef;fill-opacity:1;fill-rule:nonzero;stroke:none" transform="matrix(.13333 0 0 -.13333 0 2666.67)"/>
  <path d="M11623.5 8610.5a912.86 912.86 0 0 0-.1 0c79 0 157.9 9.2 234.9 27.4 186.8 44.3 363 141.8 504.4 292.1 28.7 30.5 55.2 62.3 79.4 95.2 73.1 99.4 125.6 208.9 157.9 322.7 16.2 57.5 27.3 116.2 33.3 175.1 12.4 123.9 2.1 249.6-30.8 370.2 89.8-329.4 11.3-696.4-239.8-963.2-141.3-150.3-317.6-247.8-504.4-292.1-77-18.2-155.9-27.4-234.8-27.4m-574.2 178.1a1016.7 1016.7 0 0 0-120.9 97.6c-408.1 384-427.7 1026.1-43.7 1434.3-384-408.2-364.4-1050.3 43.7-1434.3 38.4-36.1 78.8-68.7 120.9-97.6M12602 9895.2c-.1.1-.1.1-.1.2 0-.1 0-.1.1-.2m-100.7 239.9c-.1.2-.3.5-.5.8.2-.3.4-.6.5-.8m-.8 1.3c-47.9 82.1-108.3 158.8-181 227.3-.1.2-.3.4-.5.5-35.2 33.1-72.1 63.3-110.5 90.4 38.4-27.1 75.3-57.2 110.5-90.4 72.9-68.6 133.5-145.5 181.5-227.8" style="fill:#8a99bd;fill-opacity:1;fill-rule:nonzero;stroke:none" transform="matrix(.13333 0 0 -.13333 0 2666.67)"/>
  <path d="M9582.27 8294.4c-774.47 551.8-710.07 1288.2-710.07 1288.2 283.06-159.6 563.95-512.6 692.82-818.8 7.57-175.4 13.97-345.1 17.25-469.4" style="fill:#f35e60;fill-opacity:1;fill-rule:nonzero;stroke:none" transform="matrix(.13333 0 0 -.13333 0 2666.67)"/>
  <path d="M10346.6 8545.7c54.7 12.6 91.3 53.9 99 61.1 0 0 23.2-1.6-3.9-51.3-2.2-4.2-7.3-14.8-11.1-22.4-1.5-3.1.6-6.6 4.1-6.9 31.5-2.4 63.2 10.1 123.9-2.6 8.4-1.7 10.8-21.8 10.5-30.4-.6-14.4.5-30.7-16.3-52.8-9.8-13-37.1-26.8-97.9-51.3-23.1-9.3-89.4-2.3-151.4 19l-49.6 23 15.4 92.1 12.4-2.6c19.8-4.1 44.3 20 64.9 25.1" style="fill:#f57e65;fill-opacity:1;fill-rule:nonzero;stroke:none" transform="matrix(.13333 0 0 -.13333 0 2666.67)"/>
  <path d="M9112.55 9924.4s-695.88-132.5 204.74-1140.2c144.03-161.2 922.21-371 922.21-371s78.9 67.1 39.2 121.5c0 0-535.85 389.1-653.75 450.9-53.03 27.9-205.83 621.1-292.29 763.9-86.45 142.9-220.11 174.9-220.11 174.9" style="fill:#f57e65;fill-opacity:1;fill-rule:nonzero;stroke:none" transform="matrix(.13333 0 0 -.13333 0 2666.67)"/>
  <path d="M10453.7 9548.5s22.8 43.5 27.2 66.4c4.5 23 33.1 89.9 45 101.7 4.7 4.7 20.3-1.4 22.1-21.7.8-8.8-3.5-24.9-11.2-44-12.4-31.1-10.4-73.4-14.7-87.4-10.8-35.1-68.4-15-68.4-15" style="fill:#f89d63;fill-opacity:1;fill-rule:nonzero;stroke:none" transform="matrix(.13333 0 0 -.13333 0 2666.67)"/>
  <path d="m16279.4 958.5-15217.29 5.23a20.65 20.65 0 0 0-20.59 20.6l.01 16.23c0 11.34 9.27 20.6 20.6 20.6l15217.27-5.23c11.3 0 20.6-9.26 20.6-20.6V979.1c0-11.33-9.3-20.6-20.6-20.6" style="fill:#767779;fill-opacity:1;fill-rule:nonzero;stroke:none" transform="matrix(.24469 0 0 -.24469 0 2666.67)"/>
</svg>
